<svg xmlns="http://www.w3.org/2000/svg" viewBox="0 0 78.92 77.37"><defs><style>.cls-1{fill:#bcd397}.cls-2{fill:#a1c484}.cls-3{fill:#7da84c}.cls-4{fill:#e0eacc}.cls-5{fill:#92b870}.cls-6{fill:#729d40}.cls-9{fill:#d06874}.cls-10{fill:#fbf085}.cls-12{fill:#405a2e}.cls-13{fill:#57703c}.cls-14{fill:#db95a1}</style></defs><g id="Capa_2" data-name="Capa 2"><g id="Capa_3" data-name="Capa 3"><path d="M78.13 23.64v-1.05a.37.37 0 0 0 .39-.39 86.8 86.8 0 0 1 .36-10.69.33.33 0 0 0-.21-.35v-.72l-2.37-.28a.42.42 0 0 0-.3-.33c-5.89-.67-11.82-1-17.74-1.3l-5.1-.23a.36.36 0 0 0-.39.4h-.43l-.21-.18a2.24 2.24 0 0 0-2.08-.57.38.38 0 0 0-.15.05h-.33c0-.07-.09-.13-.13-.19v-.35a4.8 4.8 0 0 0-1.64-3.09 4.57 4.57 0 0 0-1.29-.72l.12-.08c.25-.16.56-.4.47-.75s-.52-.43-.87-.43a1.09 1.09 0 0 0 .14-.23c.26-.62-.39-.81-.86-.8a3.89 3.89 0 0 0-1.36.29A7.66 7.66 0 0 0 44.6 1a.35.35 0 0 0-.37-.52 5.9 5.9 0 0 0-2.47 1.37c0-1-.07-2.11-.86-1.78-.45.18-.72.83-.85 1.26a3.09 3.09 0 0 0-.13 1.05 17.84 17.84 0 0 0-2-.83.36.36 0 0 0-.41.5 6.06 6.06 0 0 0 .92 1.2c-.88 0-1.79.11-1.56.93a.66.66 0 0 0 .19.34 6.77 6.77 0 0 0-3.26 3.41h-.09a1 1 0 0 0-.6.16l-1.16.69a.4.4 0 0 0-.6-.41l-11.68 7.49L8 23.34l-6.54 4.24a.4.4 0 0 0-.11.57l-.08.1a1.59 1.59 0 0 0-.15.29.09.09 0 0 1 0 .05.37.37 0 0 0-.2.34Q.39 42.17.52 55.36q0 3.69.12 7.4a.28.28 0 0 0 0 .13v1.57a.41.41 0 0 0-.36.39L0 76.64a.41.41 0 0 0 .74.23h2.34a.39.39 0 0 0 .37.26q11.67.28 23.35.25c2.2 0 4.41 0 6.61-.05a.4.4 0 0 0 .39-.46h1.12a.39.39 0 0 0 .39.36c4.79.15 9.6.09 14.38-.2a.4.4 0 0 0 .39-.4h.59l.4-.44a.4.4 0 0 0 .34-.39l.27-.29c.52-.56 1.05-1.12 1.58-1.67a.37.37 0 0 0 .45-.08l12.83-12.98 3.6-3.64a.37.37 0 0 0 .06-.47l1-1a.41.41 0 0 0 .45-.07q2.19-1.93 4.33-4a.39.39 0 0 0-.09-.62l.51-.52v-.49a.42.42 0 0 0 .47-.38q.68-10 1.37-20l.43-5.59a.38.38 0 0 0-.54-.36Z" class="cls-1"/><path d="M26.71 39.07ZM39.56 43.91c1.6-.79 3.15-1.9 5-2a9.77 9.77 0 0 1 1.53 0 7 7 0 0 1 1.42.33 2.9 2.9 0 0 0 2.6 0c1.29-.89.86-2.77 1-4.09.09-1 .22-2 .26-3a8.35 8.35 0 0 0-.25-2.86c-.47-1.41-2-1.4-3.22-1.23-.69.1-1.36.25-2.05.3-1.19.07-2.4.07-3.59.08q-3.59 0-7.16-.18c-2.44-.13-4.86-.33-7.3-.4s-4.85-.09-7.28-.08c-4.86 0-9.72.16-14.58.08H4.43a2.24 2.24 0 0 0-1.07.14.27.27 0 0 0-.37.25q0 3.61.23 7.23c.13 2.08-.17 4.35.75 6.3a3 3 0 0 0 1.38 1.47 3.32 3.32 0 0 0 1.87.22 17.48 17.48 0 0 0 4.05-1.5 10.8 10.8 0 0 1 6-.48 13.76 13.76 0 0 1 2.95 1A5.22 5.22 0 0 0 23 46a8.24 8.24 0 0 0 2.74-1 13.38 13.38 0 0 1 2.86-1.22 8 8 0 0 1 3.05-.19 20.3 20.3 0 0 1 3.25.89 6 6 0 0 0 2.5.21 7.1 7.1 0 0 0 2.16-.78Zm-20.71.16a4.93 4.93 0 0 1-4-.35 1.55 1.55 0 0 1-.64-1.72c.44-1.42 3.26-1.7 4.49-1.36a2.79 2.79 0 0 1 1.44.92c.86 1.19-.34 2.17-1.29 2.51Zm3-6.63a3.75 3.75 0 0 1-1.5 2.36 2.16 2.16 0 0 1-2.54-.13 4.31 4.31 0 0 1-1.31-2.62 9.82 9.82 0 0 1-.12-3.29.41.41 0 0 1 .4-.4c.2 0 .44.18.41.4a9.28 9.28 0 0 0 .2 3.56c.24.88.76 2.14 1.87 2s1.57-1.19 1.8-2.07a13.07 13.07 0 0 0 .39-3.58.41.41 0 0 1 .81 0 13.85 13.85 0 0 1-.4 3.77Zm5.65 1.86a1.45 1.45 0 0 1-1.55.84 1.23 1.23 0 0 1-.74-.6 2.61 2.61 0 0 1-.23-1 .41.41 0 0 1 .4-.4.42.42 0 0 1 .41.4 1.91 1.91 0 0 0 .1.54c.06.1.13.21.24.24a.42.42 0 0 0 .33-.06.81.81 0 0 0 .34-.39.8.8 0 0 0 .06-.3.87.87 0 0 1 0-.36.4.4 0 0 1 .24-.22.4.4 0 0 1 .5.28 1.66 1.66 0 0 1-.09 1.03Zm3.38-1.3a11.58 11.58 0 0 1-.25-3.47c0-.52.85-.52.81 0a11.48 11.48 0 0 0 .24 3.36c.17.75.44 1.65 1.25 1.92a2 2 0 0 0 2-.57A4.21 4.21 0 0 0 36 37a28.6 28.6 0 0 0 .3-2.92c.05-.52.86-.52.81 0a18.66 18.66 0 0 1-.51 3.87 4.19 4.19 0 0 1-1.6 2.26 2.69 2.69 0 0 1-2.63.21A3.28 3.28 0 0 1 30.88 38Zm3 5.75a1.55 1.55 0 0 1-.63-1.75c.44-1.42 3.26-1.7 4.5-1.36a2.79 2.79 0 0 1 1.44.92c.81 1.15-.34 2.13-1.29 2.47a4.93 4.93 0 0 1-4-.31ZM47.88 54.39a34.76 34.76 0 0 0-3.83 2.11c-1.76.9-3.74-.13-5.31-.93a10.4 10.4 0 0 0-3-1.15 5.66 5.66 0 0 0-2.71.2c-1.76.56-3.22 1.76-4.9 2.5a6.43 6.43 0 0 1-3 .62 9.16 9.16 0 0 1-3.13-.85c-1.91-.83-3.92-2-6.09-1.79-1.9.21-3.38 1.47-5.12 2.16a5.15 5.15 0 0 1-3.46.23 7.08 7.08 0 0 1-1.64-.73 10.72 10.72 0 0 0-1.29-.7c-.7-.29-1.65-.34-2 .36a.28.28 0 0 0-.25.26c-.07 2.84-.23 5.67-.25 8.51 0 1.42 0 2.84.08 4.26A27 27 0 0 1 2 73.27c-.08.86-.09 1.77.8 2.18a6.16 6.16 0 0 0 2.45.32c1.26 0 2.51.08 3.77.07s2.77-.07 4.15-.13c2.8-.12 5.6-.24 8.41-.2s5.7.06 8.55 0 5.62-.24 8.42-.52c1.36-.13 2.73-.26 4.09-.34s2.52-.07 3.78-.06a2.54 2.54 0 0 0 2.35-.92 4.75 4.75 0 0 0 .57-2.37c0-.82 0-1.63-.05-2.44v-3.93c0-1.31 0-2.83.07-4.24.05-1.26 0-2.54.17-3.79.1-.69.37-1.86-.2-2.43-.4-.38-1.01-.24-1.45-.08Z" class="cls-2"/><path d="M1.06 28.61a.09.09 0 0 1 0 .05l.13-.05ZM1.24 28.28l.08-.1ZM1.06 28.61a1.59 1.59 0 0 1 .15-.29 1.59 1.59 0 0 0-.15.29ZM71.37 16.24l.71-.52a.46.46 0 0 1-.15-.53l-.84.62-1.8 1.33 1.55-1a.36.36 0 0 1 .53.1ZM6.89 55.91a5.16 5.16 0 0 0 1.11.44 2.61 2.61 0 0 0 1.18 0 5.11 5.11 0 0 1-2.29-.44ZM1.35 28.15h-.01.01zM44.91 54.38c.17-.06.34-.14.51-.22.95-.46 1.87-1 2.79-1.55l.36-.21q-.63.32-1.26.69a20.44 20.44 0 0 1-2.4 1.29ZM78.72 10.44l-2.37-.28ZM74.09 13.62l-.68.49 3.69-2.5a.36.36 0 0 1 .56.21l.44-.3a.43.43 0 0 1 .55-.37v-.46l-2.11 1.24c-.81.48-1.62 1.07-2.45 1.69ZM36.9 46.86a.37.37 0 0 1 .37-.49 4.89 4.89 0 0 0 2.92-1c1.59-1.06 3.19-2.6 5.25-2.48A7.12 7.12 0 0 1 48.5 44a8.89 8.89 0 0 0 2.38 1 4.43 4.43 0 0 0 .51.06q.2-7.16.13-14.31a.41.41 0 0 1 .82 0v1-1.89h-1.59a.38.38 0 0 1-.29.11l-13.79-.4a.38.38 0 0 1-.22-.07L32 29.45H27.43l-23.57-.23a.41.41 0 0 1-.35-.59H1.36a.35.35 0 0 1 .3.38c-.09 2.46-.16 4.93-.21 7.39q-.11 4.2-.13 8.38a.41.41 0 0 1 .31.1 12.28 12.28 0 0 0 3.57 2.4 4.47 4.47 0 0 0 3.8-.19c1-.52 1.81-1.24 2.81-1.7a5.43 5.43 0 0 1 3.58-.39 12.48 12.48 0 0 1 3.07 1.55 4.81 4.81 0 0 0 3.39.62 17.62 17.62 0 0 0 4.66-2 5.45 5.45 0 0 1 2.06-.89h.11a6 6 0 0 1 3.43-.16 6.54 6.54 0 0 1 2.83 2.08.4.4 0 0 1 .1.35 5.3 5.3 0 0 0 1.86.31Zm-2-2.45a20.3 20.3 0 0 0-3.25-.89 8 8 0 0 0-3.05.19 13.38 13.38 0 0 0-2.86 1.22A8.24 8.24 0 0 1 23 46a5.22 5.22 0 0 1-2.79-.57 13.76 13.76 0 0 0-2.95-1 10.8 10.8 0 0 0-6 .48 17.48 17.48 0 0 1-4 1.5 3.32 3.32 0 0 1-1.87-.22A3 3 0 0 1 4 44.74c-.92-2-.62-4.22-.75-6.3Q3 34.83 3 31.21a.27.27 0 0 1 .36-.21 2.24 2.24 0 0 1 1.05-.23h1.51c4.86.08 9.72-.05 14.58-.08 2.43 0 4.85 0 7.28.08s4.86.27 7.3.4 4.77.2 7.16.18c1.19 0 2.4 0 3.59-.08.69-.05 1.36-.2 2.05-.3 1.23-.17 2.75-.18 3.22 1.23a8.35 8.35 0 0 1 .25 2.86c0 1-.17 2-.26 3-.13 1.32.3 3.2-1 4.09a2.9 2.9 0 0 1-2.6 0 7 7 0 0 0-1.42-.33 9.77 9.77 0 0 0-1.53 0c-1.84.13-3.39 1.24-5 2a7.1 7.1 0 0 1-2.14.71 6 6 0 0 1-2.48-.12Z" class="cls-3"/><path d="M31.66 44.85c.57.27 1.11.59 1.66.9a4.2 4.2 0 0 0-1.66-.9ZM50.48 76.17c0-1.17.05-2.33.1-3.49.05-1.35.11-2.69.16-4 0-2.16-.05-4.32-.14-6.48a.37.37 0 0 1 .43-.39l.06-1.32a.35.35 0 0 1-.34-.39q.2-3.21.34-6.44c0-.59 0-1.18.08-1.78l-3 1.7a25.59 25.59 0 0 1-3.15 1.66 6.38 6.38 0 0 1-2.83.47 9.48 9.48 0 0 1-2.56-.62c-1.67-.63-3.31-1.58-5.12-1.71a9 9 0 0 0-4.88 1.41 26.77 26.77 0 0 1-4.8 2.37.4.4 0 0 1-.46-.57 4.76 4.76 0 0 1-2-.27.38.38 0 0 1-.64.12 7.08 7.08 0 0 0-4-2.18 7.23 7.23 0 0 0-4 .41c-1.39.57-2.4 1.76-3.78 2.32-1.62.67-3.12-.09-4.51-.91-1.1-.65-2.86-1.64-4-.61l-.09.06q0 3.63.12 7.27a.4.4 0 0 1-.78.13v1.57a.38.38 0 0 1 .45.39L.81 76.64a.42.42 0 0 1-.07.23h2.34a.4.4 0 0 1 .37-.55c2.2 0 4.41.1 6.61.13q11.67.19 23.35.07a.38.38 0 0 1 .39.35h1.12a.38.38 0 0 1 .39-.45c4.79.15 9.6.09 14.38-.2a.36.36 0 0 1 .39.41h.59-.17c-.01-.18-.02-.32-.02-.46Zm-1-19.27c-.17 1.25-.12 2.53-.17 3.79-.06 1.41-.06 2.83-.07 4.24s0 2.62 0 3.93c0 .81.08 1.62.05 2.44a4.75 4.75 0 0 1-.57 2.37 2.54 2.54 0 0 1-2.35.92c-1.26 0-2.52 0-3.78.06s-2.73.21-4.09.34c-2.8.28-5.6.46-8.42.52s-5.7 0-8.55 0-5.61.08-8.41.2c-1.38.06-2.76.11-4.15.13s-2.51 0-3.77-.07a6.16 6.16 0 0 1-2.45-.32c-.89-.41-.88-1.32-.8-2.18a27 27 0 0 0-.05-3.82c-.08-1.42-.1-2.84-.08-4.26 0-2.84.18-5.67.25-8.51a.28.28 0 0 1 .25-.26c.39-.7 1.34-.65 2-.36a10.72 10.72 0 0 1 1.29.7 7.08 7.08 0 0 0 1.64.73 5.15 5.15 0 0 0 3.46-.23c1.74-.69 3.22-1.95 5.12-2.16 2.17-.23 4.18 1 6.09 1.79a9.16 9.16 0 0 0 3.15.85 6.43 6.43 0 0 0 3-.62c1.68-.74 3.14-1.94 4.9-2.5a5.66 5.66 0 0 1 2.71-.2 10.4 10.4 0 0 1 3 1.15c1.57.8 3.55 1.83 5.31.93a34.76 34.76 0 0 1 3.83-2.11c.44-.16 1-.3 1.42.08.63.53.36 1.74.26 2.43Z" class="cls-3"/><path d="M28.57 44.31a5.45 5.45 0 0 0-2.06.89 14.39 14.39 0 0 1 2.06-.89Z" class="cls-4"/><path d="M24.67 56.33A37.42 37.42 0 0 0 30 53.67a8.55 8.55 0 0 1 5-1.1 24.53 24.53 0 0 1 5 1.73 7.94 7.94 0 0 0 2.54.57 5.66 5.66 0 0 0 2.37-.49 20.44 20.44 0 0 0 2.4-1.29q.63-.37 1.26-.69l2.54-1.46h.1c.06-1.66.11-3.31.16-5a7.79 7.79 0 0 1-3.27-1.25 5.75 5.75 0 0 0-3.06-1 5.2 5.2 0 0 0-2.56 1.05c-1.59 1.06-3.16 2.57-5.21 2.48a.39.39 0 0 1-.37-.32 5.3 5.3 0 0 1-1.9-.35.4.4 0 0 1-.68.22 11.12 11.12 0 0 0-1-1c-.55-.31-1.09-.63-1.66-.9a4.08 4.08 0 0 0-.64-.1 8.1 8.1 0 0 0-3.89 1c-2.15 1.06-4.36 2.63-6.89 2.31a8.15 8.15 0 0 1-3.14-1.36 5.49 5.49 0 0 0-3.34-1c-2.34.16-3.83 2.4-6.14 2.7-2.46.32-4.53-1.25-6.31-2.75v8.87c1.4-.76 3.13 0 4.42.72.37.23.75.46 1.15.66a5.11 5.11 0 0 0 2.33.43 3.75 3.75 0 0 0 1.08-.45c.69-.41 1.3-1 2-1.39a7.53 7.53 0 0 1 2.07-.92 8.13 8.13 0 0 1 8 2.24.42.42 0 0 1 .07.46 4.76 4.76 0 0 0 2 .27.4.4 0 0 1 .24-.23ZM51.39 45.12a4.43 4.43 0 0 1-.51-.06 3 3 0 0 0 .51.06Z" class="cls-4"/><path d="M71.56 40.17c-.72.85-1.34 1.79-2 2.69a6.5 6.5 0 0 1-.84 1 5.19 5.19 0 0 1-2 1c-.49.13-1 .22-1.5.31a.43.43 0 0 1-.33.22 15.23 15.23 0 0 0-2.68.49l-.26.11a7.63 7.63 0 0 0-3 2.6C58 49.74 57.39 51.1 56 51.83a4.92 4.92 0 0 1-1.71.52 3.33 3.33 0 0 0-1.41.41 1.13 1.13 0 0 0-.4 1.26c-.33 3.84-.22 7.71-.44 11.56a20.53 20.53 0 0 0-.32 4 2 2 0 0 0 .88 1.47c.53.27 1.06-.13 1.46-.45A193.29 193.29 0 0 0 69 57.15c.2-.19.39-.39.59-.59l.09-.07 1.28-1.24a.44.44 0 0 1 .12-.19l.89-.79 1.5-1.48c.56-.57 1.19-1.08 1.7-1.69a4 4 0 0 0 .9-2.1c.11-.87 0-1.75 0-2.62a27.93 27.93 0 0 1 .42-3c0-.77.1-1.53.16-2.3a4 4 0 0 0-.37-1.49 2.1 2.1 0 0 0-1.19-1c-.33 0-.68.05-1 .09a3.83 3.83 0 0 0-1.9.83 7.21 7.21 0 0 0-.63.66ZM71.25 16.8l-2.63 1.77c-1.27 1-2.51 2-3.74 3.08S62.23 24 60.83 25s-2.72 2-4.12 3a15.37 15.37 0 0 0-2.64 1.8 2.11 2.11 0 0 0-.62 1.24.22.22 0 0 0 .18.25c0 1.58-.11 3.15-.2 4.72 0 .77 0 1.54-.07 2.31a10.16 10.16 0 0 0 0 1.56 1.8 1.8 0 0 0 .53 1.2 1.08 1.08 0 0 0 1.24 0 8.41 8.41 0 0 0 1.3-1.08 1.44 1.44 0 0 1 .6-.37 4.16 4.16 0 0 1 1.27 0c1.54.05 2.42-1 3.19-2.19a8.81 8.81 0 0 1 2.6-2.83 6.52 6.52 0 0 1 1.68-.76c.62-.19 1.29-.25 1.89-.49a5.29 5.29 0 0 0 2.4-2.3c.66-1.05 1.25-2.29 2.44-2.79s2.29-.49 3.11-1.39a6.14 6.14 0 0 0 1.27-3.35 29.86 29.86 0 0 0 .17-3.9 9.07 9.07 0 0 1 .08-1.63c.1-.56.2-1.11.25-1.67a2.57 2.57 0 0 0-.17-1.45 1.39 1.39 0 0 0-1.21-.69 5.87 5.87 0 0 0-3 1.29c-.52.32-1 .67-1.55 1a.37.37 0 0 1-.2.32Z" class="cls-5"/><path d="M61.17 40a.43.43 0 0 0 0 .07A16.43 16.43 0 0 0 62.43 38a6.84 6.84 0 0 1 .77-1.06A8.15 8.15 0 0 0 61.17 40ZM76.1 49.67q.18-2.82.38-5.65v-.66a27.93 27.93 0 0 0-.42 3c0 .87.07 1.75 0 2.62a4 4 0 0 1-.92 2.11c-.51.61-1.14 1.12-1.7 1.69L72 54.27q1.74-1.56 3.44-3.16a.38.38 0 0 1 .49 0l.51-.52v-.49a.34.34 0 0 1-.34-.43ZM70.94 55.25l-1.28 1.24a.41.41 0 0 1 .54.18l1-1a.42.42 0 0 1-.26-.42ZM52.19 45.79ZM50.64 75.74c.08-2.36.12-4.73.1-7.1-.05 1.35-.11 2.69-.16 4 0 1.16-.12 2.32-.1 3.49v.42h.21l.4-.44a.39.39 0 0 1-.45-.37ZM62 45a5.66 5.66 0 0 0-1.25.47 9.85 9.85 0 0 1 1.69-.56ZM53.17 73.13l3.6-3.64L69 57.15a193.29 193.29 0 0 1-14.89 13.46c-.4.32-.93.72-1.46.45a2 2 0 0 1-.88-1.47 20.53 20.53 0 0 1 .32-4c.22-3.85.11-7.72.44-11.56a1.13 1.13 0 0 1 .4-1.26 3.33 3.33 0 0 1 1.41-.41 4.92 4.92 0 0 0 1.66-.53c1.35-.73 2-2.09 2.87-3.28a7.63 7.63 0 0 1 3-2.6l.26-.11c-.25.08-.5.15-.74.24a7.55 7.55 0 0 0-2.5 1.55c-.67.61-1.25 1.3-1.87 1.95A9.31 9.31 0 0 1 55 51.3a5.64 5.64 0 0 1-3 .7c-.11 2.68-.25 5.37-.41 8.05a.42.42 0 0 1-.47.39L51 61.77a.39.39 0 0 1 .38.39q.27 6.78 0 13.58l.27-.29c.52-.56 1.05-1.12 1.58-1.67a.4.4 0 0 1-.06-.65ZM73.72 37.74a5.22 5.22 0 0 0-3.33 2.37c.21-.24.42-.48.65-.7a5.51 5.51 0 0 1 2.52-1.49 13.84 13.84 0 0 0 2.3-.32h-.2c-.66.13-1.3.03-1.94.14ZM76.93 37.47v-.39c-.09.06-.18.13-.27.18a.49.49 0 0 1 .27.21ZM65.09 44.6a.43.43 0 0 1 .07.53c.51-.09 1-.18 1.5-.31a5.19 5.19 0 0 0 2-1 6.5 6.5 0 0 0 .84-1c.67-.9 1.29-1.84 2-2.69a7.21 7.21 0 0 1 .66-.7 5.43 5.43 0 0 0-.68.59c-1.48 1.46-2.43 3.45-4.31 4.48a.42.42 0 0 1-.61-.34 3.66 3.66 0 0 1-.61.22 7.12 7.12 0 0 1-.86.22Z" class="cls-6"/><path d="M77.74 22.2a90.69 90.69 0 0 1 .36-10.68l-.44.3a.41.41 0 0 1-.15.49l-5 3.41a.34.34 0 0 1-.41 0l-.71.52a.39.39 0 0 1 .06.26c.51-.35 1-.7 1.55-1a5.87 5.87 0 0 1 3-1.29 1.39 1.39 0 0 1 1.21.71 2.57 2.57 0 0 1 .17 1.45c0 .56-.15 1.11-.25 1.67a9.07 9.07 0 0 0-.08 1.56 29.86 29.86 0 0 1-.17 3.9 6.14 6.14 0 0 1-1.27 3.35c-.82.9-2.06.94-3.11 1.39S70.72 30 70.06 31a5.29 5.29 0 0 1-2.4 2.3c-.6.24-1.27.3-1.89.49a6.52 6.52 0 0 0-1.68.76 8.81 8.81 0 0 0-2.6 2.83c-.77 1.19-1.65 2.24-3.19 2.19a4.16 4.16 0 0 0-1.27 0 1.44 1.44 0 0 0-.6.37 8.41 8.41 0 0 1-1.26 1.12 1.08 1.08 0 0 1-1.24 0 1.8 1.8 0 0 1-.53-1.2 10.16 10.16 0 0 1 0-1.56c0-.77 0-1.54.07-2.31.09-1.57.22-3.14.2-4.72a.22.22 0 0 1-.18-.25 2.11 2.11 0 0 1 .62-1.24 15.37 15.37 0 0 1 2.6-1.78c1.4-.94 2.77-2 4.12-3s2.71-2.24 4-3.39 2.47-2.09 3.74-3.08c-.5.34-1 .67-1.5 1Q59.91 24.56 53 30a.46.46 0 0 1-.64-.09v7.31c0 2.58-.06 5.16-.12 7.74.74-.06 1.15-.89 1.49-1.48a3.33 3.33 0 0 1 1.56-1.56 3.79 3.79 0 0 1 .73-.21 2.63 2.63 0 0 1 .78-.18h1.26a3.53 3.53 0 0 0 1-.34c1-.58 1.48-1.81 2-2.81a5.47 5.47 0 0 1 2.58-2.66 5.12 5.12 0 0 1 3.71-.19 3.25 3.25 0 0 0 .42-.11 3.36 3.36 0 0 0 .63-.26.37.37 0 0 1 .17-.44 2.56 2.56 0 0 0 .86-.81 5.79 5.79 0 0 0 .57-1.14 3.21 3.21 0 0 1 1.44-1.56 6 6 0 0 1 2.47-.45 2.33 2.33 0 0 0 1.83-.76.43.43 0 0 1 .67 0c.38-.27.74-.57 1.1-.88.12-1.69.23-3.38.35-5.07a.39.39 0 0 1 .27-.36v-1.05a.39.39 0 0 1-.39-.44ZM78.71 11.16v-.05ZM76.32 39.57a4 4 0 0 1 .37 1.49c.07-1.07.14-2.14.22-3.2l-.06.06a2.82 2.82 0 0 1-1.72.63 2.1 2.1 0 0 1 1.19 1.02Z" class="cls-6"/><path d="m76.44 30.4-.08.11-.06.08a2.84 2.84 0 0 1-1.73.9 11.69 11.69 0 0 0-2.58.33 2.79 2.79 0 0 0-1.49 1.75 3.66 3.66 0 0 1-1.5 1.84.38.38 0 0 1-.58-.26 3.36 3.36 0 0 1-.63.26 3.25 3.25 0 0 1-.42.11h.06c.48.18.27 1-.22.78a4.26 4.26 0 0 0-4 .59 6.84 6.84 0 0 0-.78 1.11 16.43 16.43 0 0 1-1.3 2 4 4 0 0 1-2.56 2.2c-1.18.27-2.77 0-3.67.93-.47.52-.69 1.21-1.13 1.75a2.16 2.16 0 0 1-1.57.89c0 1.8-.12 3.61-.19 5.41a5 5 0 0 0 3.17-1c1.46-1.08 2.45-2.67 3.9-3.76a7.25 7.25 0 0 1 1.64-.94A5.66 5.66 0 0 1 62 45l.44-.09a16.86 16.86 0 0 1 2.43-.4.35.35 0 0 1 .26.06 7.12 7.12 0 0 0 .92-.18 3.66 3.66 0 0 0 .61-.22.38.38 0 0 1 .2-.36c1.55-.85 2.45-2.41 3.57-3.73a5.22 5.22 0 0 1 3.33-2.37c.64-.11 1.29 0 1.94-.1h.2a1.33 1.33 0 0 0 .42-.26.42.42 0 0 1 .41-.08c.09 0 .18-.12.27-.18.18-2.67.37-5.34.55-8-.36.31-.72.61-1.1.88a.35.35 0 0 1-.01.43Z" class="cls-4"/><path d="M56.77 41.55a2.63 2.63 0 0 0-.78.18c.66-.12 1.37-.1 2-.21-.38.01-.8 0-1.22.03Z" class="cls-4"/><path d="M46.61 24.21c.15-.14.29-.3.44-.43a5.51 5.51 0 0 1-2.67 1.31 4 4 0 0 0 1.09-.21 3.43 3.43 0 0 0 1.14-.67Z" class="cls-1"/><path d="M54.77 11.25a6.07 6.07 0 0 1 1 2.2 6.5 6.5 0 0 1 .41 3.65 5 5 0 0 1-3.35 3.9A4.3 4.3 0 0 1 48 24.34a.74.74 0 0 0-.36 0c-.09 0-.2.21-.26.28a4.68 4.68 0 0 1-.6.5 4.55 4.55 0 0 1-1.41.66 4.6 4.6 0 0 1-2.65-.1 4.31 4.31 0 0 1-5.23.67.4.4 0 0 1-.18-.26 5.41 5.41 0 0 1-1.51-1 .31.31 0 0 1-.23.17 5.61 5.61 0 0 1-2.67-.15 3.56 3.56 0 0 1-1.53-1 5.31 5.31 0 0 1-1.32-1.55.35.35 0 0 1-.34 0 5.08 5.08 0 0 1-2.3-2.89c-.76-2.43.54-4.86 2.05-6.68a2.6 2.6 0 0 0 .3-.36.79.79 0 0 0 .07-.43c-2.34 1.36-4.68 2.72-7 4.12-3.06 1.84-6.17 3.67-9.08 5.76-.69.5-1.38 1-2 1.55a14.81 14.81 0 0 1-1.31.93 10.71 10.71 0 0 0-1.24.88c-.27.23-.55.49-.5.87.11.95 1.56.69 2.19.63s1.48 0 2.22 0h2.81c3.71-.06 7.41-.16 11.12-.11 1.88 0 3.75.08 5.63.2s3.71.31 5.57.45 3.65.26 5.47.39c1.48.1 3 .23 4.42.36a9.6 9.6 0 0 0 4-.23 12.81 12.81 0 0 0 3.63-2.38c1.3-1.05 2.64-2.05 4-3.1s2.83-2.35 4.27-3.5l2.11-1.69c.64-.52 1.25-1.07 1.89-1.58 1.06-.85 2.22-1.57 3.2-2.52a5.14 5.14 0 0 0 1-1.41.27.27 0 0 0-.23-.41c-5.63-.51-11.28-.81-16.93-1h-1.22a7.72 7.72 0 0 1 .92.84Z" class="cls-1"/><path d="M1.36 28.62h2.15a.35.35 0 0 1 .35-.22l6.59.05 23.55.19a.41.41 0 0 1 0 .82h-2.32.32l4.53.11a.41.41 0 0 1 .22-.74l13.79.4a.42.42 0 0 1 .29.7h1.59a.34.34 0 0 1 .06-.49q2-1.56 4-3.08 6.3-4.82 12.88-9.22l1.8-1.33.84-.62a.47.47 0 0 1 .15-.17l1.33-.91.68-.49c.83-.6 1.64-1.21 2.52-1.73l2.11-1.24v-.21l-2.37-.28c.06.24-.06.52-.37.48-1.68-.19-3.37-.36-5.06-.5-5.91-.51-11.83-.77-17.76-1a.41.41 0 0 1-.39-.41h-.43a6.85 6.85 0 0 0 1.31 1.16.36.36 0 0 1 .2.39h1.22c5.65.21 11.3.51 16.93 1a.27.27 0 0 1 .23.41 5.14 5.14 0 0 1-1 1.41c-1 1-2.14 1.67-3.2 2.52-.64.51-1.25 1.06-1.89 1.58L64 18.9c-1.44 1.15-2.84 2.35-4.27 3.5s-2.65 2.05-4 3.1a12.81 12.81 0 0 1-3.63 2.38 9.6 9.6 0 0 1-4 .23c-1.47-.13-2.94-.26-4.42-.36-1.82-.13-3.65-.25-5.47-.39s-3.71-.33-5.57-.45-3.75-.18-5.63-.2c-3.71-.05-7.41.05-11.12.11h-5.03c-.73 0-2.08.32-2.19-.63-.05-.38.23-.64.5-.87a10.71 10.71 0 0 1 1.24-.88 14.81 14.81 0 0 0 1.31-.93c.67-.53 1.36-1 2-1.55 2.91-2.09 6-3.92 9.08-5.76 2.32-1.4 4.66-2.76 7-4.12a3.33 3.33 0 0 1 .78-2.07 3.57 3.57 0 0 1 2.69-1.36.36.36 0 0 1 .19 0 7.49 7.49 0 0 1 .27-.84h-.09a1 1 0 0 0-.6.16l-1.16.69a.4.4 0 0 1-.19.3l-6.58 4.23-11.61 7.6-11.63 7.49a.35.35 0 0 1-.52-.13l-.08.1a1.59 1.59 0 0 0-.15.29h.12a.37.37 0 0 1 .12.08Z" style="fill:#90a56c"/><path d="M49.37 12.85c0 .24-.06.47-.1.7a18.9 18.9 0 0 1-.7 2.88c-.2.57-.43 1.12-.68 1.66a8.06 8.06 0 0 1 1.07.29c.49.18.28 1-.22.79a7.25 7.25 0 0 0-6.44.83.36.36 0 0 1-.42 0c-.22.17-.44.34-.65.53.07.15.14.31.2.46a.4.4 0 0 1-.28.5.43.43 0 0 1-.5-.28 5.37 5.37 0 0 0-2.09-2.5c-.91-.58-2.21-1.08-3.22-.49a.41.41 0 0 1-.41-.7 2.75 2.75 0 0 1 .59-.25c-.08-.14-.16-.28-.23-.42q-.3-.57-.57-1.14a11.48 11.48 0 0 1-1.38-6 .51.51 0 0 0 0-.13 2.81 2.81 0 0 0-2.4 1.59 3.12 3.12 0 0 0-.26 1.28 2.4 2.4 0 0 1-.75 1.3 8.94 8.94 0 0 0-1.63 2.88 4.66 4.66 0 0 0 0 3 4.34 4.34 0 0 0 1.87 2.22.4.4 0 0 1-.07.72 5.31 5.31 0 0 0 1.32 1.55 4.24 4.24 0 0 1-.31-.4c-.28-.44.42-.85.7-.41.76 1.18 2.32 1.35 3.59 1.17a.42.42 0 0 1 .5.29.46.46 0 0 1 0 .32 5.41 5.41 0 0 0 1.51 1 .4.4 0 0 1 .59-.44 3.49 3.49 0 0 0 4.42-.73.41.41 0 0 1 .49-.06 3.63 3.63 0 0 0 1.53.26A5.51 5.51 0 0 0 47 23.77a.87.87 0 0 1 .64-.3c.25 0 .51.08.77.09a4.46 4.46 0 0 0 .73 0 3.66 3.66 0 0 0 1.5-.56 3.57 3.57 0 0 0 1.45-2.44.41.41 0 0 1 .28-.29 4.16 4.16 0 0 0 3.06-3.35 6.66 6.66 0 0 0-1.63-5.26c-.32-.4.25-1 .58-.57a9.38 9.38 0 0 1 1.42 2.4 6.07 6.07 0 0 0-1-2.2 7.72 7.72 0 0 0-.92-1 .42.42 0 0 1-.6.3 8 8 0 0 1-1.5-1.29 1.56 1.56 0 0 0-1.48-.54.41.41 0 0 1-.5-.29.37.37 0 0 1 .1-.47h-.33c0-.07-.09-.13-.13-.19a19.86 19.86 0 0 1-.07 5.04Z" style="fill:#f5f7e5"/><path d="M44.51 5.09V5a.13.13 0 0 0 0 .06ZM44.48 5.33z" class="cls-9"/><path d="M33.36 9.52a.51.51 0 0 1 0 .13 11.48 11.48 0 0 0 1.38 6q.27.57.57 1.14c.07.14.15.28.23.42a3.26 3.26 0 0 1 1.46-.06.73.73 0 0 1-.16-.22.15.15 0 0 1 0-.13.3.3 0 0 1 .09-.13.17.17 0 0 1 .18 0h.07a.2.2 0 0 1 .09.06.56.56 0 0 1 .22.44.16.16 0 0 1-.05.11 5.44 5.44 0 0 1 1.45.65 6 6 0 0 1 1 .79.32.32 0 0 1 0-.09.23.23 0 0 1 .07-.07H40.13a.13.13 0 0 1 .06.07 1.18 1.18 0 0 1 .07.2 1.8 1.8 0 0 1 0 .22.14.14 0 0 1 0 .07 6.7 6.7 0 0 1 .92 1.37c.21-.19.43-.36.65-.53a.42.42 0 0 1 0-.69 8 8 0 0 1 6-1.16c.25-.54.48-1.09.68-1.66a18.9 18.9 0 0 0 .7-2.88c0-.23.07-.46.1-.7a19.86 19.86 0 0 0 .07-5v-.35a4.8 4.8 0 0 0-1.58-3.15 4.57 4.57 0 0 0-1.29-.72 9.91 9.91 0 0 1-1.16.62 9.28 9.28 0 0 1-5.35.61l-1.89-.06A1.63 1.63 0 0 1 37 4.51a6.77 6.77 0 0 0-3.26 3.41 7.49 7.49 0 0 0-.27.84.41.41 0 0 1-.11.76ZM35.28 9a.43.43 0 0 1-.06.17.18.18 0 0 1-.13.09.17.17 0 0 1-.09-.06.93.93 0 0 1-.27-.48.18.18 0 0 1 .13-.21.2.2 0 0 1 .15 0H35h.06a.41.41 0 0 1 0 .09.41.41 0 0 1 .08.19.57.57 0 0 1 .14.21Zm.3 4.09a.13.13 0 0 1 0 .06.18.18 0 0 1-.26.1.39.39 0 0 1-.16-.23.38.38 0 0 1 0-.15.2.2 0 0 1 0-.13.28.28 0 0 1 .11-.08h.14l.06.05v.07a.53.53 0 0 1 .11.31Zm5.27-5.7a.29.29 0 0 1 0-.1.13.13 0 0 1 0-.06.21.21 0 0 1 .14-.1.19.19 0 0 1 .13 0 .15.15 0 0 1 .08.11 1 1 0 0 1 0 .24 1.94 1.94 0 0 1 0 .24.18.18 0 0 1-.09.1.2.2 0 0 1-.13 0 .38.38 0 0 1-.26-.2.17.17 0 0 1 .06-.22Zm-2.75 6.76a.08.08 0 0 1-.07 0l-.08-.05v-.05l-.32-.05a.19.19 0 0 1-.05-.13.2.2 0 0 1 .06-.12.09.09 0 0 1 .06 0 .17.17 0 0 1 .11-.09.18.18 0 0 1 .16.05.39.39 0 0 1 .08.1.21.21 0 0 1 0 .06v.24a.21.21 0 0 1 .05.04Zm.81-4.25a.23.23 0 0 1-.1.07.2.2 0 0 1-.13 0 .21.21 0 0 1-.08-.11l-.06-.24a.42.42 0 0 1 0-.27.23.23 0 0 1 .32-.08.36.36 0 0 1 .13.23 1.55 1.55 0 0 0 0 .21.2.2 0 0 1-.09.2Zm2.29 5.53a.11.11 0 0 1-.06.09h-.06a.2.2 0 0 1-.13 0 .28.28 0 0 1-.09-.1.28.28 0 0 1 0-.13v-.06a.65.65 0 0 1 0-.24.16.16 0 0 1 .15-.12.14.14 0 0 1 .11 0 .13.13 0 0 1 .06.07.22.22 0 0 1 .05.08.65.65 0 0 1 0 .13.5.5 0 0 1-.03.28Zm2-3.35v.14a.5.5 0 0 1-.05.13.23.23 0 0 1-.07.07H43a.16.16 0 0 1-.14 0 .36.36 0 0 1-.07-.1.45.45 0 0 1 0-.11.22.22 0 0 1 0-.08.22.22 0 0 1 0-.08.25.25 0 0 1 0-.11.1.1 0 0 1 .06-.05.16.16 0 0 1 .08-.1.15.15 0 0 1 .09 0 .12.12 0 0 1 .11 0 1 1 0 0 1 .07.29Zm1 5.13a.13.13 0 0 1-.07.09.06.06 0 0 1-.06 0 .29.29 0 0 1-.13-.05.18.18 0 0 1-.09-.1.61.61 0 0 1-.05-.12.25.25 0 0 1 0-.17v-.06a.18.18 0 0 1 .31-.11.56.56 0 0 1 .06.52Zm2-3.18a.16.16 0 0 1-.14.08.16.16 0 0 1-.14 0v-.06a.47.47 0 0 1-.06-.09.45.45 0 0 1 0-.23.19.19 0 0 1 0-.07.19.19 0 0 1 0-.2.19.19 0 0 1 .25 0 .41.41 0 0 1 .07.11s.05 0 .06.06a.49.49 0 0 1 0 .45Zm1.08 3.54v.05a.11.11 0 0 1 0 .05.34.34 0 0 1-.06.12.76.76 0 0 1-.08.11.12.12 0 0 1-.1 0h-.14a.57.57 0 0 1 0-.18l.06-.12v-.06a.27.27 0 0 1 .06-.1.31.31 0 0 1 .1 0h.15v.06a.09.09 0 0 1 0 .07.13.13 0 0 1 .01 0Zm1-6.54v.23a.28.28 0 0 1-.06.09.15.15 0 0 1-.14.05.21.21 0 0 1-.13-.05.17.17 0 0 1 0-.1v-.05a.36.36 0 0 1 0-.1v-.06l.05-.09h.16a.05.05 0 0 1 .05 0 .09.09 0 0 1 0 .06.2.2 0 0 1 0 .07Zm-3-2.44a.57.57 0 0 1 0 .18.18.18 0 0 1-.13.12h-.22a.34.34 0 0 1-.11-.18.31.31 0 0 1 0-.19.09.09 0 0 1 0-.07.61.61 0 0 1 .05-.12.19.19 0 0 1 .13-.19.19.19 0 0 1 .13 0 .18.18 0 0 1 .08.11.78.78 0 0 1 .02.34Zm2-2.42a.17.17 0 0 1 0-.07V6a.2.2 0 0 1 0-.08.15.15 0 0 1 .09 0h.08a.14.14 0 0 1 .08 0 .13.13 0 0 1 0 .06.22.22 0 0 1-.06.13.36.36 0 0 1 0 .09.23.23 0 0 1-.07.07h-.13a.14.14 0 0 1-.08-.05.22.22 0 0 1-.05-.08v-.09a.2.2 0 0 0 0-.07s.11.2.12.19Zm-3.11-.93a.11.11 0 0 1 0-.07V5a.26.26 0 0 1 0-.08v-.06a.15.15 0 0 1 .09 0 .11.11 0 0 1 .08 0 .19.19 0 0 1 .13.13 1 1 0 0 1 0 .24 1.94 1.94 0 0 1 0 .24.22.22 0 0 1-.13.12.21.21 0 0 1-.17 0 .38.38 0 0 1-.08-.17.29.29 0 0 1 .06-.18Zm-5.87 1 .06-.06v-.06a.12.12 0 0 1 .08 0h.09a.14.14 0 0 1 .08 0 .2.2 0 0 1 0 .08 1.34 1.34 0 0 1 0 .2.18.18 0 0 1 0 .07.2.2 0 0 1 0 .13.18.18 0 0 1-.11.08h-.12a.21.21 0 0 1-.11 0v-.05c0-.07 0-.15-.05-.23a.2.2 0 0 1 .06-.2ZM41.18 7.34h-.01.01zM44.1 17.09ZM48 11.39ZM48.07 11.38ZM48.15 11.34z" class="cls-9"/><path d="M35.19 8.68a.41.41 0 0 0 0-.09H35a.2.2 0 0 0-.15 0 .18.18 0 0 0-.13.21.93.93 0 0 0 .28.4.17.17 0 0 0 .14.06.18.18 0 0 0 .13-.09.43.43 0 0 0 .01-.17.57.57 0 0 0 0-.13.41.41 0 0 0-.09-.19ZM38.31 6.56v.05a.21.21 0 0 0 .11 0h.12a.18.18 0 0 0 .11-.08.2.2 0 0 0 0-.13.18.18 0 0 0 0-.07 1.34 1.34 0 0 0 0-.2.2.2 0 0 0 0-.08.14.14 0 0 0-.08 0h-.09a.12.12 0 0 0-.08 0v.06l-.06.06a.2.2 0 0 0 0 .13c-.06.11-.05.19-.03.26ZM40.79 7.62a.38.38 0 0 0 .26.2.2.2 0 0 0 .13 0 .18.18 0 0 0 .09-.1 1.94 1.94 0 0 0 0-.24 1 1 0 0 0 0-.24.15.15 0 0 0-.08-.11.19.19 0 0 0-.13 0 .21.21 0 0 0-.14.1.13.13 0 0 0 0 .06.29.29 0 0 0 0 .1.17.17 0 0 0-.13.23Zm.39-.28ZM44.22 5.54a.21.21 0 0 0 .17 0 .22.22 0 0 0 .13-.12 1.94 1.94 0 0 0 0-.24 1 1 0 0 0 0-.24.19.19 0 0 0-.13-.13.11.11 0 0 0-.08 0 .15.15 0 0 0-.09 0s0 0 0 .06a.26.26 0 0 0 0 .08v.09a.11.11 0 0 0 0 .07.29.29 0 0 0 0 .13.38.38 0 0 0 0 .3Zm.29-.48a.13.13 0 0 1 0-.06Zm0 .27ZM47.29 6.35a.22.22 0 0 0 .05.08.14.14 0 0 0 .08.05h.13a.23.23 0 0 0 .07-.07.36.36 0 0 0 0-.09.22.22 0 0 0 .06-.13.13.13 0 0 0 0-.06.14.14 0 0 0-.08 0h-.08a.15.15 0 0 0-.09 0 .2.2 0 0 0 0 .08.17.17 0 0 0 0 .07.2.2 0 0 1 0 .07ZM45.26 8.19a.18.18 0 0 0-.08-.11.19.19 0 0 0-.13 0 .19.19 0 0 0-.13.19.61.61 0 0 0-.05.12.09.09 0 0 0 0 .07.31.31 0 0 0 0 .19.34.34 0 0 0 .11.18h.16a.18.18 0 0 0 .13-.12.57.57 0 0 0 0-.18.78.78 0 0 0-.01-.34ZM39.05 9.69a1.55 1.55 0 0 1 0-.21.36.36 0 0 0-.13-.23.23.23 0 0 0-.32.08.42.42 0 0 0 0 .27l.06.24a.21.21 0 0 0 .08.11.2.2 0 0 0 .13 0 .23.23 0 0 0 .1-.07H39a.2.2 0 0 0 .05-.19ZM35.58 12.94v-.07l-.06-.05h-.14a.28.28 0 0 0-.11.08.2.2 0 0 0 0 .13.38.38 0 0 0 0 .15.39.39 0 0 0 .16.23.18.18 0 0 0 .26-.1.13.13 0 0 0 0-.06.53.53 0 0 0 0-.13ZM38.09 13.81a.21.21 0 0 0 0-.06.39.39 0 0 0-.08-.1.18.18 0 0 0-.16-.05.17.17 0 0 0-.11.09.09.09 0 0 0-.06 0 .2.2 0 0 0-.06.12.19.19 0 0 0 .05.13l.13.11v.05l.08.05a.08.08 0 0 0 .07 0 .21.21 0 0 0 0-.1v-.12c0-.04.15-.08.14-.12ZM43.18 11.79a.12.12 0 0 0-.11 0 .15.15 0 0 0-.09 0 .16.16 0 0 0-.08.1.1.1 0 0 0-.06.05.25.25 0 0 0 0 .11.22.22 0 0 0 0 .08.22.22 0 0 0 0 .08.45.45 0 0 0 0 .11.36.36 0 0 0 .07.1.16.16 0 0 0 .14 0h.07a.23.23 0 0 0 .07-.07.5.5 0 0 0 .05-.13v-.14a1 1 0 0 0 0-.25ZM48.28 10.91a.09.09 0 0 0 0-.06.05.05 0 0 0-.05 0h-.16l-.05.09V11a.36.36 0 0 0 0 .1v.05a.17.17 0 0 0 0 .1.21.21 0 0 0 .13.05.15.15 0 0 0 .14-.05.28.28 0 0 0 .06-.09s0 0 0-.06v-.17a.2.2 0 0 0-.07-.02Zm-.25.48Zm0 0Zm.08 0ZM46.15 13.52a.41.41 0 0 0-.07-.11.19.19 0 0 0-.25 0 .19.19 0 0 0 0 .2.19.19 0 0 0 0 .07.45.45 0 0 0 0 .23.47.47 0 0 0 .06.09v.06a.16.16 0 0 0 .14 0 .16.16 0 0 0 .17-.06.49.49 0 0 0 0-.45s-.03-.01-.05-.03ZM41.17 15a.22.22 0 0 0-.05-.08.13.13 0 0 0-.06-.07.14.14 0 0 0-.11 0 .16.16 0 0 0-.15.12.65.65 0 0 0 0 .24v.06a.28.28 0 0 0 0 .13.28.28 0 0 0 .09.1.2.2 0 0 0 .13 0h.06a.11.11 0 0 0 .06-.09.5.5 0 0 0 0-.27.65.65 0 0 0 .03-.14ZM37.49 17.14a.56.56 0 0 0-.22-.44.2.2 0 0 0-.09-.06h-.07a.17.17 0 0 0-.18 0 .3.3 0 0 0-.09.13.15.15 0 0 0 0 .13.73.73 0 0 0 .16.22l.43.1a.16.16 0 0 0 .06-.08ZM40.31 19.1a.14.14 0 0 0 0-.07 1.8 1.8 0 0 0 0-.22 1.18 1.18 0 0 0-.07-.2.13.13 0 0 0-.06-.07H40.01a.23.23 0 0 0-.07.07.32.32 0 0 0 0 .09c.11.12.24.3.37.4ZM43.86 16.63a.17.17 0 0 0-.12.15s0 0 0 .06a.25.25 0 0 0 0 .17.61.61 0 0 0 .05.12.18.18 0 0 0 .09.1.29.29 0 0 0 .13.05.06.06 0 0 0 .06 0 .13.13 0 0 0 .07-.09.56.56 0 0 0-.12-.54.17.17 0 0 0-.16-.02Zm.24.46ZM47.26 17.35h-.15a.31.31 0 0 0-.1 0 .27.27 0 0 0-.06.1s0 0 0 .06l-.06.12a.57.57 0 0 0 0 .18H47a.12.12 0 0 0 .1 0 .76.76 0 0 0 .08-.11.34.34 0 0 0 .06-.12.11.11 0 0 0 0-.05v-.05a.13.13 0 0 0 0-.09.09.09 0 0 0 0-.07s.03.05.02.03Z" class="cls-10"/><path d="m38.13 4.82 1.87.06a9.28 9.28 0 0 0 5.33-.61 9.91 9.91 0 0 0 1.16-.62l.12-.08c.25-.16.56-.4.47-.75s-.52-.43-.87-.43a1.09 1.09 0 0 0 .14-.23c.26-.62-.39-.81-.86-.8a3.89 3.89 0 0 0-1.36.29A7.66 7.66 0 0 0 44.6 1a.35.35 0 0 0-.37-.52 5.9 5.9 0 0 0-2.47 1.37c0-1-.07-2.11-.86-1.78-.45.18-.72.83-.85 1.26a3.09 3.09 0 0 0-.13 1.05 17.84 17.84 0 0 0-2-.83.36.36 0 0 0-.41.5 6.06 6.06 0 0 0 .92 1.2c-.88 0-1.79.11-1.56.93a.66.66 0 0 0 .19.34 1.63 1.63 0 0 0 1.07.3Z" style="fill:#a3c366"/><path d="M1.08 64.85a.38.38 0 0 0-.45-.39.41.41 0 0 0-.36.39L0 76.64a.41.41 0 0 0 .74.23.42.42 0 0 0 .07-.23ZM33.41 76.51q-11.67.13-23.35-.07c-2.2 0-4.41-.08-6.61-.13a.4.4 0 0 0-.37.55.39.39 0 0 0 .37.26q11.67.28 23.35.25c2.2 0 4.41 0 6.61-.05a.4.4 0 0 0 .39-.46.38.38 0 0 0-.39-.35ZM49.69 76.2c-4.78.29-9.59.35-14.38.2a.38.38 0 0 0-.39.45.39.39 0 0 0 .39.36c4.79.15 9.6.09 14.38-.2a.4.4 0 0 0 .39-.4.36.36 0 0 0-.39-.41ZM51.45 75.74q.24-6.8 0-13.58a.39.39 0 0 0-.38-.39.37.37 0 0 0-.43.39c.09 2.16.13 4.32.14 6.48 0 2.37 0 4.74-.1 7.1a.39.39 0 0 0 .47.39.4.4 0 0 0 .34-.39ZM69.66 56.49l-.09.07c-.2.2-.39.4-.59.59L56.77 69.49l-3.6 3.64a.4.4 0 0 0 .13.65.37.37 0 0 0 .45-.08l12.79-12.92 3.6-3.64a.37.37 0 0 0 .06-.47.41.41 0 0 0-.54-.18ZM75.39 51.11Q73.7 52.72 72 54.27l-.89.79a.44.44 0 0 0-.12.19.42.42 0 0 0 .25.45.41.41 0 0 0 .45-.07q2.19-1.93 4.33-4a.41.41 0 0 0-.58-.57ZM78.13 23.64a.39.39 0 0 0-.27.36c-.12 1.69-.23 3.38-.35 5.07-.18 2.67-.37 5.34-.55 8v.39a.49.49 0 0 0-.24-.21.42.42 0 0 0-.41.08 1.33 1.33 0 0 1-.42.26 13.84 13.84 0 0 1-2.3.32 5.51 5.51 0 0 0-2.59 1.5c-.23.22-.44.46-.65.7-1.12 1.32-2 2.88-3.57 3.73a.38.38 0 0 0-.2.36.42.42 0 0 0 .61.34c1.88-1 2.83-3 4.31-4.48a5.43 5.43 0 0 1 .68-.59 3.83 3.83 0 0 1 1.9-.83c.33 0 .68-.06 1-.09a2.82 2.82 0 0 0 1.72-.63l.06-.06c-.08 1.06-.15 2.13-.22 3.2-.06.77-.11 1.53-.16 2.3v.66q-.2 2.83-.38 5.65a.34.34 0 0 0 .34.38.42.42 0 0 0 .47-.38q.68-10 1.37-20l.39-5.67a.38.38 0 0 0-.54-.36ZM78.66 11.14a.43.43 0 0 0-.55.37 90.69 90.69 0 0 0-.36 10.68.39.39 0 0 0 .43.39.37.37 0 0 0 .39-.39 86.8 86.8 0 0 1 .36-10.69.33.33 0 0 0-.21-.35ZM53 30q6.86-5.46 14.09-10.43c.5-.35 1-.68 1.5-1l2.63-1.77a.37.37 0 0 0 .18-.3.39.39 0 0 0-.06-.26.36.36 0 0 0-.53-.14l-1.55 1q-6.57 4.41-12.88 9.22-2 1.52-4 3.08a.34.34 0 0 0-.06.49.46.46 0 0 0 .68.11ZM72.08 15.72a.34.34 0 0 0 .41 0l5-3.41a.41.41 0 0 0 .15-.49.36.36 0 0 0-.56-.21l-3.69 2.5-1.31.89a.47.47 0 0 0-.15.17.46.46 0 0 0 .15.55ZM3.86 29.22l23.54.18h6.59a.41.41 0 0 0 0-.82l-23.54-.18-6.59-.05a.35.35 0 0 0-.35.22.41.41 0 0 0 .35.65ZM50.51 30a.38.38 0 0 0 .29-.11.42.42 0 0 0-.29-.7l-13.79-.4a.41.41 0 0 0-.22.74.38.38 0 0 0 .22.07ZM1.87 28.28l11.63-7.49 11.63-7.48 6.58-4.23a.41.41 0 0 0-.41-.71l-11.63 7.49L8 23.34l-6.54 4.24a.4.4 0 0 0-.11.57.35.35 0 0 0 .52.13ZM53.16 9.11c5.93.26 11.85.52 17.76 1 1.69.14 3.38.31 5.06.5.31 0 .43-.24.37-.48a.42.42 0 0 0-.35-.3c-5.89-.67-11.82-1-17.74-1.3l-5.1-.23a.36.36 0 0 0-.39.4.41.41 0 0 0 .39.41Z" class="cls-12"/><path d="M69 35.41a3.66 3.66 0 0 0 1.52-1.84A2.79 2.79 0 0 1 72 31.82a11.69 11.69 0 0 1 2.58-.33 2.84 2.84 0 0 0 1.73-.9l.06-.08.08-.11a.35.35 0 0 0 0-.45.43.43 0 0 0-.67 0 2.33 2.33 0 0 1-1.88.77 6 6 0 0 0-2.47.45 3.21 3.21 0 0 0-1.43 1.6 5.79 5.79 0 0 1-.52 1.13 2.56 2.56 0 0 1-.86.81.37.37 0 0 0-.17.44.38.38 0 0 0 .55.26ZM65.16 45.13a.43.43 0 0 0-.07-.53.35.35 0 0 0-.26-.06 16.86 16.86 0 0 0-2.43.4 9.85 9.85 0 0 0-1.69.56 7.25 7.25 0 0 0-1.64.94c-1.45 1.09-2.44 2.68-3.9 3.76a5 5 0 0 1-3.17 1c.07-1.8.14-3.61.19-5.41a2.16 2.16 0 0 0 1.57-.89c.44-.54.66-1.23 1.13-1.75.9-1 2.49-.66 3.67-.93A4 4 0 0 0 61.13 40a.43.43 0 0 1 0-.07 8.15 8.15 0 0 1 2-3 4.26 4.26 0 0 1 4-.59c.49.18.7-.6.22-.78h-.06a5.12 5.12 0 0 0-3.71.19A5.47 5.47 0 0 0 61 38.41c-.51 1-1 2.23-2 2.81a3.53 3.53 0 0 1-1 .34c-.67.11-1.38.09-2 .21a3.79 3.79 0 0 0-.73.21 3.33 3.33 0 0 0-1.57 1.52c-.34.59-.75 1.42-1.49 1.48.06-2.58.11-5.16.12-7.74v-6.42a.41.41 0 0 0-.82 0q.06 7.16-.13 14.31a3 3 0 0 1-.51-.08A8.89 8.89 0 0 1 48.5 44a7.12 7.12 0 0 0-3.06-1.14c-2.06-.12-3.66 1.42-5.25 2.48a4.89 4.89 0 0 1-2.92 1 .37.37 0 0 0-.37.49.39.39 0 0 0 .37.32c2 .09 3.62-1.42 5.21-2.48A5.2 5.2 0 0 1 45 43.65a5.75 5.75 0 0 1 3.06 1 7.79 7.79 0 0 0 3.27 1.25c0 1.66-.1 3.31-.16 5h-.1l-2.5 1.5-.36.21c-.92.53-1.84 1.09-2.79 1.55-.17.08-.34.16-.51.22a5.66 5.66 0 0 1-2.37.49A7.94 7.94 0 0 1 40 54.3a24.53 24.53 0 0 0-5-1.73 8.55 8.55 0 0 0-5 1.1 37.42 37.42 0 0 1-5.34 2.66.4.4 0 0 0-.25.22.4.4 0 0 0 .46.57 26.77 26.77 0 0 0 4.8-2.37 9 9 0 0 1 4.88-1.41c1.81.13 3.45 1.08 5.12 1.71a9.48 9.48 0 0 0 2.56.62 6.38 6.38 0 0 0 2.83-.47 25.59 25.59 0 0 0 3.15-1.66l3-1.7c0 .6-.05 1.19-.08 1.78q-.15 3.23-.34 6.44a.35.35 0 0 0 .34.39.42.42 0 0 0 .47-.39c.16-2.68.3-5.37.41-8.05a5.64 5.64 0 0 0 3-.71A9.31 9.31 0 0 0 57 49.58c.62-.65 1.2-1.34 1.87-1.95a7.55 7.55 0 0 1 2.5-1.55c.24-.09.49-.16.74-.24a15.23 15.23 0 0 1 2.68-.49.43.43 0 0 0 .37-.22Z" class="cls-12"/><path d="M1.45 62.76q-.07-3.65-.12-7.27l.09-.06c1.19-1 3 0 4.05.61 1.39.82 2.89 1.58 4.51.91 1.38-.56 2.39-1.75 3.78-2.32a7.23 7.23 0 0 1 4-.41 7.08 7.08 0 0 1 4 2.18.38.38 0 0 0 .64-.12.42.42 0 0 0-.07-.46 8.13 8.13 0 0 0-8-2.24 7.53 7.53 0 0 0-2.07.92c-.67.44-1.28 1-2 1.39a3.75 3.75 0 0 1-1.08.45 2.61 2.61 0 0 1-1.18 0 5.16 5.16 0 0 1-1.15-.44c-.4-.2-.78-.43-1.15-.66-1.29-.76-3-1.48-4.42-.72v-8.87c1.78 1.5 3.85 3.07 6.31 2.75 2.31-.3 3.8-2.54 6.14-2.7a5.49 5.49 0 0 1 3.34 1 8.15 8.15 0 0 0 3.14 1.36c2.53.32 4.74-1.25 6.89-2.31a8.1 8.1 0 0 1 3.89-1 4.08 4.08 0 0 1 .64.1 4.2 4.2 0 0 1 1.66.9 11.12 11.12 0 0 1 1 1 .41.41 0 0 0 .58-.57 6.54 6.54 0 0 0-2.83-2.08 6 6 0 0 0-3.43.16h-.11a14.39 14.39 0 0 0-2.06.89 17.62 17.62 0 0 1-4.66 2 4.81 4.81 0 0 1-3.39-.62 12.48 12.48 0 0 0-3-1.53 5.43 5.43 0 0 0-3.55.35c-1 .46-1.85 1.18-2.81 1.7a4.47 4.47 0 0 1-3.83.19 12.28 12.28 0 0 1-3.57-2.41.41.41 0 0 0-.31-.1q0-4.19.13-8.38c.05-2.46.12-4.93.21-7.39a.35.35 0 0 0-.3-.38.37.37 0 0 0-.18 0l-.13.05a.37.37 0 0 0-.2.34Q.39 42.17.52 55.36q0 3.69.12 7.4a.28.28 0 0 0 0 .13.4.4 0 0 0 .81-.13ZM35.34 18.16c1-.59 2.31-.09 3.22.49a5.37 5.37 0 0 1 2.09 2.5.43.43 0 0 0 .5.28.4.4 0 0 0 .28-.5c-.06-.15-.13-.31-.2-.46a6.7 6.7 0 0 0-.92-1.37c-.13-.14-.26-.28-.4-.41a6 6 0 0 0-1-.79 5.44 5.44 0 0 0-1.45-.65l-.43-.1a3.26 3.26 0 0 0-1.49.06 2.75 2.75 0 0 0-.59.25.41.41 0 0 0 .39.7ZM42.3 20a7.25 7.25 0 0 1 6.44-.78c.5.17.71-.61.22-.79a8.09 8.09 0 0 0-7.07.87.42.42 0 0 0 0 .69.36.36 0 0 0 .41.01ZM29.78 12.59a2.6 2.6 0 0 1-.3.36c-1.51 1.82-2.81 4.25-2.05 6.68a5.08 5.08 0 0 0 2.3 2.89.35.35 0 0 0 .34 0 .4.4 0 0 0 .07-.72 4.34 4.34 0 0 1-1.87-2.22 4.66 4.66 0 0 1 0-3 8.94 8.94 0 0 1 1.63-2.88 2.4 2.4 0 0 0 .75-1.3 3.12 3.12 0 0 1 .26-1.28 2.81 2.81 0 0 1 2.4-1.59.41.41 0 0 0 .15-.76.36.36 0 0 0-.19 0 3.57 3.57 0 0 0-2.69 1.36 3.33 3.33 0 0 0-.78 2.07.79.79 0 0 1-.02.39ZM32.92 25.08a5.61 5.61 0 0 0 2.67.15.31.31 0 0 0 .23-.17.46.46 0 0 0 0-.32.42.42 0 0 0-.5-.29c-1.27.18-2.83 0-3.59-1.17-.28-.44-1 0-.7.41a4.24 4.24 0 0 0 .31.4 3.56 3.56 0 0 0 1.58.99Z" class="cls-12"/><path d="M37.51 26.31a4.31 4.31 0 0 0 5.23-.67 4.6 4.6 0 0 0 2.65.1 4.55 4.55 0 0 0 1.41-.66 4.68 4.68 0 0 0 .6-.5c.06-.07.17-.24.26-.28a.74.74 0 0 1 .36 0 4.3 4.3 0 0 0 4.81-3.3 5 5 0 0 0 3.38-3.85 6.5 6.5 0 0 0-.41-3.65 9.38 9.38 0 0 0-1.42-2.4c-.33-.41-.9.17-.58.57a6.66 6.66 0 0 1 1.63 5.26 4.16 4.16 0 0 1-3.06 3.35.41.41 0 0 0-.28.29A3.57 3.57 0 0 1 50.64 23a3.66 3.66 0 0 1-1.45.58 4.46 4.46 0 0 1-.73 0c-.26 0-.52-.09-.77-.09a.87.87 0 0 0-.64.3c-.15.13-.29.29-.44.43a3.43 3.43 0 0 1-1.16.66 4 4 0 0 1-1.09.21 3.63 3.63 0 0 1-1.53-.26.41.41 0 0 0-.49.06 3.49 3.49 0 0 1-4.42.73.41.41 0 0 0-.41.7ZM49.77 8.42a.41.41 0 0 0 .5.29 1.56 1.56 0 0 1 1.48.54 8 8 0 0 0 1.5 1.29.42.42 0 0 0 .6-.3.36.36 0 0 0-.2-.39 6.85 6.85 0 0 1-1.31-1.16l-.21-.18a2.24 2.24 0 0 0-2.08-.57.38.38 0 0 0-.15.06.37.37 0 0 0-.13.42Z" class="cls-12"/><path d="M21.46 33.7a13.07 13.07 0 0 1-.39 3.58c-.23.88-.76 2-1.8 2.07s-1.63-1.15-1.87-2a9.28 9.28 0 0 1-.2-3.56c0-.22-.21-.4-.41-.4a.41.41 0 0 0-.4.4 9.82 9.82 0 0 0 .12 3.29 4.31 4.31 0 0 0 1.31 2.62 2.16 2.16 0 0 0 2.54.13 3.75 3.75 0 0 0 1.5-2.36 13.85 13.85 0 0 0 .41-3.74.41.41 0 0 0-.81-.03ZM35 40.21a4.19 4.19 0 0 0 1.62-2.31 18.66 18.66 0 0 0 .52-3.9c0-.52-.76-.52-.81 0a28.6 28.6 0 0 1-.33 3 4.21 4.21 0 0 1-1 2.21 2 2 0 0 1-2 .57c-.81-.27-1.08-1.17-1.25-1.92a11.48 11.48 0 0 1-.24-3.36c0-.52-.77-.52-.81 0a11.58 11.58 0 0 0 .18 3.5 3.28 3.28 0 0 0 1.5 2.45 2.69 2.69 0 0 0 2.62-.24ZM25.92 39.09ZM27.15 38a.4.4 0 0 0-.24.22.87.87 0 0 0 0 .36.8.8 0 0 1-.06.3.81.81 0 0 1-.34.39.42.42 0 0 1-.33.06c-.11 0-.18-.14-.24-.24a1.91 1.91 0 0 1-.1-.54.42.42 0 0 0-.41-.4.41.41 0 0 0-.4.4 2.61 2.61 0 0 0 .23 1 1.23 1.23 0 0 0 .74.6 1.45 1.45 0 0 0 1.55-.84 1.66 1.66 0 0 0 .14-1 .4.4 0 0 0-.54-.31Zm-.47 1.1Z" class="cls-13"/><path d="M18.7 40.68c-1.23-.34-4-.06-4.49 1.36a1.55 1.55 0 0 0 .64 1.68 4.93 4.93 0 0 0 4 .35c.95-.34 2.11-1.32 1.29-2.47a2.79 2.79 0 0 0-1.44-.92ZM39.19 41.6a2.79 2.79 0 0 0-1.44-.92c-1.24-.34-4.06-.06-4.5 1.36a1.55 1.55 0 0 0 .65 1.68 4.93 4.93 0 0 0 4 .35c.95-.34 2.1-1.32 1.29-2.47Z" class="cls-14"/></g></g></svg>