<svg xmlns="http://www.w3.org/2000/svg" viewBox="0 0 106.55 77.03"><defs><style>.cls-1{fill:#e2c0a2}.cls-2{fill:#e0b48e}.cls-3{fill:#dca071}.cls-4{fill:#a47852}.cls-5{fill:#d993ba}.cls-6{fill:#b07545}</style></defs><g id="Capa_2" data-name="Capa 2"><g id="Capa_3" data-name="Capa 3"><path d="M.31 68.19a18.48 18.48 0 0 1 1.57-11.14 17.72 17.72 0 0 1 7.44-8.75A12.16 12.16 0 0 1 8 43.71a12.53 12.53 0 0 1 .07-5.21 17 17 0 0 1 4.22-6.76A19.52 19.52 0 0 1 13.92 30h.05c.25-.23.5-.46.76-.68l.16-.13q.38-.33.78-.63l.19-.15c.17-.13.34-.26.52-.38.43-.36.86-.73 1.3-1.08a.35.35 0 0 1 .43-.05l.12-.08a1.49 1.49 0 0 1 0-.21V23.76a.46.46 0 0 1-.5-.51 23.52 23.52 0 0 1 4.14-10.75 28 28 0 0 1 9.61-8.35 34.93 34.93 0 0 1 7-2.82.44.44 0 0 1 .46.14c.59-.18 1.18-.35 1.78-.49A.35.35 0 0 1 41 .54a24 24 0 0 1 9.61-.11 24.66 24.66 0 0 1 7.71 2.43 32 32 0 0 1 4.42 2.76c.89.6 1.75 1.24 2.58 1.9a56.36 56.36 0 0 1 5.39 5 11.9 11.9 0 0 1 4.1-1.78h.14l.5-.14h.21l.36-.08h.23l.35-.05H78.58l.47.06h.11l.6.11a11.28 11.28 0 0 1 1.13.34 11.1 11.1 0 0 1 3.16 1.42 5.59 5.59 0 0 1 2.55 3.24h1.75a.48.48 0 0 1 .47-.66 19.94 19.94 0 0 1 12.28 6.06 19.55 19.55 0 0 1 5.42 13.91 10 10 0 0 1-2.7 6.83.44.44 0 0 1-.5.09 7.94 7.94 0 0 1-1.27 1l-.35.22-.31.17a.48.48 0 0 1-.19.68 11.38 11.38 0 0 1-5.3 1 7.14 7.14 0 0 1-4.32-1.59 1.49 1.49 0 0 1-.14.12l-.25.22a.45.45 0 0 1-.33.28 7.59 7.59 0 0 1-.71.56l-.13.1c-.24.17-.49.33-.74.48l-.19.1a.42.42 0 0 1-.14.16 10.23 10.23 0 0 1-6.8 1.58H80.83l-.48-.07-.39-.06-.47-.1c-.13 0-.26 0-.38-.09l-.47-.13-.35-.1-1.17-.28a1.44 1.44 0 0 0-.53-.11c-.15 0-.21.17-.3.28-.25.35-.51.68-.77 1-.12.14-.24.28-.35.43l-.31.39-.26.32c-.13.16-.27.32-.41.47l-.27.31-.44.45-.28.29-.46.44-.3.27a.94.94 0 0 1-.1.1 33.73 33.73 0 0 1-16.66 8.62 34.11 34.11 0 0 1-10.95.35.41.41 0 0 1-.32-.25l-.3-.05-.65-.14L43 59h-.16a.4.4 0 0 1-.47.27 23.47 23.47 0 0 1-3.5-.94 13.49 13.49 0 0 1-10.8 6l-.55.08H27.18a1.31 1.31 0 0 0-.46.5s-.05.08-.07.13l-.1.19c-.25.48-.51 1-.78 1.42a.36.36 0 0 1 .13.52 20.45 20.45 0 0 1-8.15 8.11 13.26 13.26 0 0 1-10.86.76 10.73 10.73 0 0 1-4.09-2.85 11.51 11.51 0 0 1-2.49-5ZM44.06 59.26l.3.05ZM74.17 48.74ZM72.72 50.23l.46-.44ZM79.94 46.64l.39.06Z" class="cls-1"/><path d="M79.09 46.45c.12 0 .25.06.38.09-.13-.03-.26-.05-.38-.09ZM73.46 49.5l.44-.45ZM80.81 46.77h.39ZM77.78 10.27ZM77.18 10.28h-.34ZM81.69 46.84ZM76.6 10.33l-.35.05ZM88.13 15.48ZM78.39 10.29h-.38ZM79.06 10.36l-.47-.06ZM28.1 64.36l-.55.08h-.18.18ZM91.59 43.23ZM90.13 44.43l-.13.1ZM43 59l.37.09ZM89.07 45.11zM76 10.41l-.36.08ZM78.62 46.32l-.35-.1ZM75.15 47.56l-.31.39.24-.31ZM103.51 26l.23.43ZM104.39 27.71l-.15-.34.15.33ZM103.1 25.26c.09.14.17.28.25.42-.08-.14-.16-.28-.25-.42ZM26.75 65.07s-.05.08-.07.13.05-.09.07-.13ZM27.37 64.49h-.06ZM101.71 43l-.31.17ZM103.89 26.66c.07.14.15.29.22.44-.11-.1-.11-.3-.22-.44ZM101.74 23.27c.1.12.19.25.28.38-.09-.13-.18-.26-.28-.38ZM101.24 22.64l.29.36ZM97.81 19.29l.31.24ZM18.21 26.55v-.26.26ZM75.45 10.53l-.5.14ZM97.18 18.81l.31.23ZM79.77 10.49l-.6-.11.6.11a11.28 11.28 0 0 1 1.13.34 10.37 10.37 0 0 0-1.13-.34ZM96.54 18.37l.29.2ZM99.61 20.86l.31.31ZM98.43 19.79l.31.26ZM102.22 23.92l.27.39ZM99 20.31l.31.29ZM29.86 59.81a29.35 29.35 0 0 0-3.23.52c-.43-.59-.89-1.18-1.36-1.74a35.15 35.15 0 0 0-13.06-9.74 13.25 13.25 0 0 1-.56-7.5 13.29 13.29 0 0 1 5.07-8.66A18.24 18.24 0 0 1 19.61 31a72.57 72.57 0 0 1 3.18 3.38 76.62 76.62 0 0 1 8 10.94 75.83 75.83 0 0 1 5.33 10.62 15.69 15.69 0 0 1-3.2 2.61 8.49 8.49 0 0 1-3.06 1.26Z" class="cls-1"/><path d="M26.15 36.05a88.52 88.52 0 0 1 5.85 8.4 85.39 85.39 0 0 1 5.28 10.13l-.48.61q-1.08-2.61-2.34-5.13a78 78 0 0 0-7.25-11.67 76.83 76.83 0 0 0-6.73-7.8l.72-.31c1.74 1.84 3.38 3.78 4.95 5.77ZM100.71 22l.31.35ZM100.17 21.43l.31.33Z" class="cls-1"/><path d="M36.75 51.9c.33.67.64 1.35.94 2q.29-.45.54-.93a39.44 39.44 0 0 0 9.55 2 26.29 26.29 0 0 0 8.33-.85A37.68 37.68 0 0 0 63.67 51c4.16-2.18 8.76-5.21 10.6-9.75-.1-.28-.19-.57-.29-.85a94.52 94.52 0 0 1-2.64-9.15 45.44 45.44 0 0 1-1.08-15.45l-.07.12a45.48 45.48 0 0 0-4.91-4.5 31.29 31.29 0 0 0-22.66-6.65.32.32 0 0 0-.29.35 31.57 31.57 0 0 0-5.27 1.16 22.9 22.9 0 0 0-12.8 9.9c-2.43 4.18-2.79 9.09-2.43 13.82 1.33 1.41 2.59 2.88 3.8 4.36A85.83 85.83 0 0 1 36.75 51.9Zm24.17-9a1.43 1.43 0 0 1 .57-1.71A5.42 5.42 0 0 1 64.85 40a1.64 1.64 0 0 1 1.44.75 1.37 1.37 0 0 1 0 1.2 4.21 4.21 0 0 1-4.09 1.81 1.69 1.69 0 0 1-1.28-.9Zm-3.42-8.2a.44.44 0 0 1 .83-.3 20.8 20.8 0 0 0 1.54 3.36c.38.67 1 1.79 1.93 1.48s1.22-1.56 1.3-2.47a8.94 8.94 0 0 0-.34-3.37c-.16-.54.67-.84.83-.29a10 10 0 0 1 .41 3.13 5.54 5.54 0 0 1-.68 2.85 2.16 2.16 0 0 1-2.44 1 3.65 3.65 0 0 1-1.77-1.86 22.76 22.76 0 0 1-1.61-3.53Zm-5.56 8.08a.44.44 0 0 1 .26-.56.45.45 0 0 1 .56.27 1.38 1.38 0 0 0 .58.74.58.58 0 0 0 .28.09.54.54 0 0 0 .29-.15 1.12 1.12 0 0 0 .29-1 .44.44 0 1 1 .83-.29 2 2 0 0 1-.11 1.26 1.66 1.66 0 0 1-.92.92c-.9.4-1.79-.47-2.06-1.28Zm-5.24 3a2.62 2.62 0 0 1-2.65 1A4.34 4.34 0 0 1 41.48 45a20.38 20.38 0 0 1-2.07-3.6c-.24-.51.59-.8.83-.29a25.5 25.5 0 0 0 1.55 2.8 4.51 4.51 0 0 0 1.91 1.86 1.83 1.83 0 0 0 2.21-.43 3.31 3.31 0 0 0 .45-2.55 18.47 18.47 0 0 0-.87-3.5.44.44 0 0 1 .83-.29 20.39 20.39 0 0 1 .9 3.62 4.33 4.33 0 0 1-.52 3.12Zm-4.46 4.18a1.41 1.41 0 0 1 .57-1.71A5.4 5.4 0 0 1 46.16 47a1.64 1.64 0 0 1 1.44.75 1.37 1.37 0 0 1 0 1.2 4.23 4.23 0 0 1-4.1 1.81 1.7 1.7 0 0 1-1.26-.84ZM25.16 61.64A44.69 44.69 0 0 0 15 52c-.39-.27-.79-.53-1.19-.79l.11-.06a5.77 5.77 0 0 1-.91-.94c.7.33 1.4.69 2.08 1.07a34.44 34.44 0 0 1 10.7 9.43 1.09 1.09 0 0 0-.36.38 4 4 0 0 0-.27.55ZM87 23.41a35.15 35.15 0 0 1 0-5.62 11.24 11.24 0 0 1 4.13 1.4 21.79 21.79 0 0 1 5.64 4.22 19.46 19.46 0 0 1 4 6 8.18 8.18 0 0 1 .18 6.74 5.82 5.82 0 0 1-3.77 3.1 11.34 11.34 0 0 1-5.42-.36 9.93 9.93 0 0 1-.71 1c-.36-.94-.72-1.88-1-2.83A52.19 52.19 0 0 1 87 23.41Z" class="cls-1"/><path d="M24.91 62.4a11.33 11.33 0 0 1-1 2.65A17.94 17.94 0 0 1 18 70.79a12.94 12.94 0 0 1-7.34 1.92 10.33 10.33 0 0 1-6.29-2.94 8.45 8.45 0 0 1-2.64-6.07 8.78 8.78 0 0 1 1.8-5.3c2.38-3.2 6.19-5 9.62-6.86a45 45 0 0 1 7.76 6.21 43.2 43.2 0 0 1 4 4.65ZM18.1 24.7ZM12.28 31.74A19.52 19.52 0 0 1 13.92 30h.05a18.28 18.28 0 0 0-1.69 1.74ZM18.12 25.49v.34c.01-.11.01-.22 0-.34ZM86.61 15.49ZM15.86 28.35l-.19.15ZM14.89 29.13l-.16.13ZM87.48 30.83a71.62 71.62 0 0 0 3.09 9.57c-.22.22-.45.43-.68.63a29.44 29.44 0 0 1-1.44-3.49c-.6-1.77-1.06-3.58-1.51-5.39s-.84-3.38-1.17-5.09a31.19 31.19 0 0 1-.58-9.06 4.7 4.7 0 0 1 1.18-.2 41.33 41.33 0 0 0 1.11 13.03ZM102.67 24.58ZM87.32 15.47Z" class="cls-1"/><path d="M81.71 15.13a11.79 11.79 0 0 1 2.62 2.56 26.62 26.62 0 0 0-.07 4.89 62.51 62.51 0 0 0 2 10.48 40.94 40.94 0 0 0 2.92 8.51A12.91 12.91 0 0 1 78 42.75a12.32 12.32 0 0 1-1.59-.65c-.4-1.45-.8-2.91-1.17-4.37C73.23 30 71.74 22 72.63 14.07A12.38 12.38 0 0 1 75 13.6a9.88 9.88 0 0 1 6.71 1.53Z" class="cls-1"/><path d="M74.14 38.79a61.65 61.65 0 0 1-3.48-17.66 37.29 37.29 0 0 1 .39-6.25 4 4 0 0 1 .65-.42 48.6 48.6 0 0 0-.21 5.66c.18 7.29 1.91 14.41 3.83 21.43l-.32-.21c-.3-.85-.58-1.7-.86-2.55ZM18.13 23.91v.32a1.14 1.14 0 0 1 0-.32Z" class="cls-1"/><path d="M87.31 15.47ZM41.31 1.37a22.44 22.44 0 0 1 7-.39 29.22 29.22 0 0 1 11.93 4.1 47.2 47.2 0 0 1 10.1 8.32.4.4 0 0 0 .24.1c0 .18-.07.36-.1.54-.1.59-.18 1.18-.25 1.77l-.07.12a45.48 45.48 0 0 0-4.91-4.5 31.29 31.29 0 0 0-22.63-6.66.32.32 0 0 0-.29.35 31.57 31.57 0 0 0-5.27 1.16 22.9 22.9 0 0 0-12.8 9.9c-2.43 4.18-2.79 9.09-2.43 13.82-.92-1-1.83-1.93-2.83-2.82-.24-.22-.49-.43-.74-.63v-2.79a.36.36 0 0 0 .36-.34 21.58 21.58 0 0 1 1.68-6.16C23.56 9.52 30.83 4.4 38.8 2.16a.41.41 0 0 0 .2-.69c.59-.18 1.18-.35 1.78-.49a.48.48 0 0 0 .53.39ZM11.65 41.35a13.25 13.25 0 0 0 .56 7.5 26.5 26.5 0 0 0-1.23-.51.45.45 0 0 0-.57.24.41.41 0 0 0-.08-.33 11.58 11.58 0 0 1-1.56-5.4 13.85 13.85 0 0 1-.14-2.57 7.89 7.89 0 0 1 .54-2.34A15.59 15.59 0 0 1 11.49 34a38.27 38.27 0 0 1 5.87-5.72.43.43 0 0 0 .06.58c.74.69 1.47 1.4 2.19 2.12a18.24 18.24 0 0 0-2.89 1.7 13.29 13.29 0 0 0-5.07 8.67ZM38.45 57.47a.47.47 0 0 0-.11.13 12.58 12.58 0 0 1-11.28 5.87.41.41 0 0 0-.38.29c-.35-.53-.71-1-1.09-1.56-.14-.19-.28-.38-.43-.56a4 4 0 0 1 .27-.59 1.09 1.09 0 0 1 .36-.38c.6.81 1.16 1.64 1.69 2.49.29.48 1 0 .72-.5-.49-.8-1-1.57-1.57-2.33a29.35 29.35 0 0 1 3.23-.52 8.49 8.49 0 0 0 3.08-1.27 15.69 15.69 0 0 0 3.2-2.61c.21.52.42 1 .62 1.57a.44.44 0 0 0 .83-.29c-.26-.68-.53-1.35-.81-2l.48-.61c.41.93.81 1.9 1.19 2.87ZM53.74 1.19a28 28 0 0 0-3.13-.76 24.66 24.66 0 0 1 7.71 2.43 32 32 0 0 1 4.42 2.76 33.52 33.52 0 0 0-9-4.43ZM71.37 13.1a11 11 0 0 1 2.86-1.34 11.67 11.67 0 0 1 6.42-.09 10.28 10.28 0 0 1 3 1.35 4.51 4.51 0 0 1 2.16 2.91.46.46 0 0 0 .73.3c-.06.45-.11.9-.16 1.35v.19a4.7 4.7 0 0 0-1.18.2q.06-.59.15-1.17c.09-.56-.77-.73-.86-.17-.06.36-.1.71-.15 1.06a11.79 11.79 0 0 0-2.62-2.56A9.88 9.88 0 0 0 75 13.6a12.38 12.38 0 0 0-2.4.47c0-.28.06-.57.1-.85.08-.56-.79-.73-.86-.17s-.12.94-.17 1.41a4 4 0 0 0-.65.42c.12-.6.23-1.19.35-1.78ZM13.81 51.17A43.69 43.69 0 0 0 9.93 49a.51.51 0 0 0 .4-.25.36.36 0 0 0 .23.46c.82.31 1.62.66 2.41 1a5.77 5.77 0 0 0 .91.94ZM13.48 30.54q-.62.59-1.2 1.2A18.28 18.28 0 0 1 13.93 30c.25-.23.5-.46.76-.68l.16-.13q.38-.33.78-.63l.19-.15c.17-.13.34-.26.52-.38-.95.77-1.93 1.62-2.86 2.51ZM86.65 15.49v.11a.43.43 0 0 0 0-.11ZM75 41.34l.33.21.75 2.69-.25-.61c-.3-.76-.57-1.52-.83-2.29ZM80.89 10.83a12.39 12.39 0 0 0-6.08-.12h.14l.5-.14h.21l.36-.08h.23l.35-.05H78.58l.47.06h.11l.6.11a10.37 10.37 0 0 1 1.13.22ZM42.57 58.4a22.17 22.17 0 0 1-3.4-.92c-.47-1.19-1-2.37-1.48-3.54q.29-.45.54-.93a39.44 39.44 0 0 0 9.55 2 26.29 26.29 0 0 0 8.33-.85A37.68 37.68 0 0 0 63.67 51c4.16-2.18 8.76-5.21 10.6-9.75a32.62 32.62 0 0 0 1.54 4c-.49.54-.89 1.19-1.36 1.76a33.07 33.07 0 0 1-3.21 3.38 32.43 32.43 0 0 1-7.67 5.23 33 33 0 0 1-18.67 3 .47.47 0 0 0-.49.62l-.3-.05-.65-.14L43 59h-.16a.41.41 0 0 0-.27-.6ZM27.06 64.34h1.06l-.54.08H27.24ZM100.91 43a10.7 10.7 0 0 1-4.8 1 6.23 6.23 0 0 1-4-1.4c-.38-.9-.74-1.8-1.1-2.7a9.93 9.93 0 0 0 .71-1 11.34 11.34 0 0 0 5.42.36 5.82 5.82 0 0 0 3.77-3.1 8.18 8.18 0 0 0-.18-6.74 19.46 19.46 0 0 0-4-6 21.79 21.79 0 0 0-5.64-4.22A11.24 11.24 0 0 0 87 17.79c.07-.78.16-1.55.29-2.32h1.04a.37.37 0 0 0 .31.21 19.28 19.28 0 0 1 7.07 2.18l.58.33.22.15.29.2.35.24.31.23.32.25.31.24.31.26.31.26.29.26.31.29.27.26.31.31.25.26.31.33c.08.09.16.17.23.26l.31.35.22.27.29.36.21.27c.1.12.19.25.28.38l.2.27.27.39.18.27c.09.13.18.27.26.41s.12.18.17.27.17.28.25.42l.16.27.23.43.15.28c.07.14.15.29.22.44l.13.27.15.34q.17.41.3.81c1.34 4 1.75 9.37-1.53 12.55a.39.39 0 0 0 .17.66 7.94 7.94 0 0 1-1.27 1l-.35.22-.31.17a.36.36 0 0 0-.46-.09ZM75.08 47.64l-.24.31-.26.32c-.13.16-.27.32-.41.47l-.27.31-.44.45-.28.29-.46.44-.3.27a34.24 34.24 0 0 0 2.66-2.86ZM25.14 67a18.89 18.89 0 0 1-8.91 8.24A12 12 0 0 1 6.3 75a10.38 10.38 0 0 1-5.37-8.51 19.36 19.36 0 0 1 2.29-10.24 16.51 16.51 0 0 1 6-6.92c1.34.67 2.63 1.41 3.9 2.21-3.4 1.84-7.21 3.66-9.59 6.86a8.78 8.78 0 0 0-1.8 5.3 8.45 8.45 0 0 0 2.59 6.07 10.33 10.33 0 0 0 6.29 2.94A12.94 12.94 0 0 0 18 70.79a17.94 17.94 0 0 0 5.95-5.74 11.33 11.33 0 0 0 1-2.65c.65.86 1.26 1.75 1.84 2.67 0 0-.05.08-.07.13l-.1.19c-.25.48-.51 1-.78 1.42a.46.46 0 0 0-.7.19ZM91.13 43.19A20.1 20.1 0 0 1 89.89 41c.23-.2.46-.41.68-.63.29.74.59 1.47.9 2.21a.41.41 0 0 0 .06.57h.06a1.49 1.49 0 0 1-.14.12l-.25.22a.42.42 0 0 0-.07-.3ZM79.49 46.49a21 21 0 0 0 2.64.36H80.81l-.48-.07-.39-.06-.47-.1c-.13 0-.26 0-.38-.09l-.47-.13-.33-.09ZM88.43 44.55c-3.12 2.2-7.13 1.5-10.59.67-.28-.07-.6-.18-.91-.23a.43.43 0 0 0 .13-.46c-.22-.81-.45-1.62-.67-2.43a12.32 12.32 0 0 0 1.59.65 12.91 12.91 0 0 0 11.2-1.18 20.61 20.61 0 0 0 1.23 2.13.38.38 0 0 0 .43.17 7.59 7.59 0 0 1-.71.56l-.13.1c-.24.17-.49.33-.74.48l-.19.1a.44.44 0 0 0-.64-.56ZM21.18 30.28l-.72.31c-.81-.81-1.63-1.59-2.46-2.39a.38.38 0 0 0-.42-.09l.61-.5a.45.45 0 0 0 .11-.13c.42.37.84.75 1.24 1.13.55.55 1.1 1.11 1.64 1.67Z" class="cls-2"/><path d="M87 17.79a35.15 35.15 0 0 0 0 5.62A52.19 52.19 0 0 0 90 37c.33.95.69 1.89 1 2.83s.72 1.8 1.1 2.7h-.06a.41.41 0 0 0-.63.1c-.31-.74-.61-1.47-.9-2.21a71.62 71.62 0 0 1-3.09-9.57 41.33 41.33 0 0 1-1.11-13.06v-.19c.05-.45.1-.9.16-1.35a.34.34 0 0 0 .14-.36 2.56 2.56 0 0 0-.05-.27s0-.08 0-.11h.67c-.04.73-.13 1.49-.23 2.28ZM71.34 31.26a45.44 45.44 0 0 1-1.08-15.45c.07-.59.15-1.18.25-1.77 0-.18.07-.36.1-.54a.5.5 0 0 0 .3-.07c.15-.12.31-.22.46-.33-.12.59-.23 1.18-.32 1.78a37.29 37.29 0 0 0-.39 6.25 61.65 61.65 0 0 0 3.48 17.66c.28.85.56 1.7.85 2.55s.54 1.53.83 2.29l.25.61c.06.19.11.39.17.58a.34.34 0 0 0 .08.17.89.89 0 0 0-.51.29 32.62 32.62 0 0 1-1.54-4c-.1-.28-.19-.57-.29-.85a94.52 94.52 0 0 1-2.64-9.17ZM19 27.18c1 .89 2 1.84 2.88 2.82 1.33 1.41 2.59 2.88 3.8 4.36A85.83 85.83 0 0 1 36.75 51.9c.33.67.64 1.35.94 2 .52 1.17 1 2.35 1.48 3.54l-.25-.08a.44.44 0 0 0-.47.07c-.38-1-.78-1.94-1.19-2.89A85.39 85.39 0 0 0 32 44.45a88.52 88.52 0 0 0-5.83-8.4c-1.57-2-3.21-3.93-5-5.77-.54-.56-1.09-1.12-1.65-1.67-.4-.38-.82-.76-1.24-1.13a.48.48 0 0 0-.18-.64l.12-.08a1.49 1.49 0 0 1 0-.21c.24.2.49.45.78.63ZM24.91 62.4a43.2 43.2 0 0 0-4-4.65 45 45 0 0 0-7.76-6.21c-1.27-.8-2.56-1.54-3.9-2.21l.68-.33a43.69 43.69 0 0 1 3.88 2.22c.4.26.8.52 1.19.79a44.69 44.69 0 0 1 10.16 9.68c.15.18.29.37.43.56.38.51.74 1 1.09 1.56a.57.57 0 0 0 0 .18.45.45 0 0 0 .41.4l.15.22a1.31 1.31 0 0 0-.46.5c-.61-.96-1.22-1.85-1.87-2.71Z" class="cls-3"/><path d="M58.33 34.4a20.8 20.8 0 0 0 1.54 3.36c.38.67 1 1.79 1.93 1.48s1.22-1.56 1.3-2.47a8.94 8.94 0 0 0-.34-3.37c-.16-.54.67-.84.83-.29a10 10 0 0 1 .41 3.13 5.54 5.54 0 0 1-.68 2.85 2.16 2.16 0 0 1-2.44 1 3.65 3.65 0 0 1-1.77-1.86 22.76 22.76 0 0 1-1.61-3.53.44.44 0 0 1 .83-.3ZM44.05 46.78A4.34 4.34 0 0 1 41.48 45a20.38 20.38 0 0 1-2.07-3.6c-.24-.51.59-.8.83-.29a25.5 25.5 0 0 0 1.55 2.8 4.51 4.51 0 0 0 1.91 1.86 1.83 1.83 0 0 0 2.21-.43 3.31 3.31 0 0 0 .45-2.55 18.47 18.47 0 0 0-.87-3.5.44.44 0 0 1 .83-.29 20.39 20.39 0 0 1 .9 3.62 4.33 4.33 0 0 1-.52 3.13 2.62 2.62 0 0 1-2.65 1.03ZM52.2 42.22a.45.45 0 0 1 .56.27 1.38 1.38 0 0 0 .58.74.58.58 0 0 0 .28.09.54.54 0 0 0 .29-.15 1.12 1.12 0 0 0 .29-1 .44.44 0 1 1 .83-.29 2 2 0 0 1-.11 1.26 1.66 1.66 0 0 1-.92.92c-.91.34-1.8-.53-2.07-1.34a.44.44 0 0 1 .27-.5Z" class="cls-4"/><path d="M61.49 41.15A5.42 5.42 0 0 1 64.85 40a1.64 1.64 0 0 1 1.44.75 1.37 1.37 0 0 1 0 1.2 4.21 4.21 0 0 1-4.09 1.81 1.69 1.69 0 0 1-1.24-.88 1.43 1.43 0 0 1 .53-1.73ZM42.81 48.21A5.4 5.4 0 0 1 46.16 47a1.64 1.64 0 0 1 1.44.75 1.37 1.37 0 0 1 0 1.2 4.23 4.23 0 0 1-4.1 1.81 1.7 1.7 0 0 1-1.23-.88 1.41 1.41 0 0 1 .54-1.67Z" class="cls-5"/><path d="M86.63 15.6a2.56 2.56 0 0 1 .05.27.34.34 0 0 1-.14.36.46.46 0 0 1-.73-.3A4.51 4.51 0 0 0 83.65 13a10.28 10.28 0 0 0-3-1.35 11.67 11.67 0 0 0-6.42.09 11 11 0 0 0-2.86 1.34c-.15.11-.31.21-.46.33a.5.5 0 0 1-.3.07.4.4 0 0 1-.24-.1 47.2 47.2 0 0 0-10.1-8.32A29.22 29.22 0 0 0 48.34 1a22.44 22.44 0 0 0-7 .39.48.48 0 0 1-.6-.39.35.35 0 0 1 .26-.46 24 24 0 0 1 9.61-.11 28 28 0 0 1 3.13.76 33.52 33.52 0 0 1 9 4.43c.89.6 1.75 1.24 2.58 1.9a56.36 56.36 0 0 1 5.39 5 11.9 11.9 0 0 1 4.1-1.78 12.39 12.39 0 0 1 6.08.12 11.1 11.1 0 0 1 3.16 1.42 5.59 5.59 0 0 1 2.55 3.24.43.43 0 0 1 .03.08ZM103.16 41.07c3.28-3.18 2.87-8.58 1.53-12.55q-.14-.4-.3-.81a19.06 19.06 0 0 0-8.07-9.48l-.58-.33a19.28 19.28 0 0 0-7.07-2.18.37.37 0 0 1-.31-.21.48.48 0 0 1 .47-.66 19.94 19.94 0 0 1 12.28 6.06 19.55 19.55 0 0 1 5.42 13.91 10 10 0 0 1-2.7 6.83.44.44 0 0 1-.5.09.39.39 0 0 1-.17-.67ZM91.53 43.18a.41.41 0 0 1-.06-.57.41.41 0 0 1 .63-.1h.06a6.23 6.23 0 0 0 4 1.4 10.7 10.7 0 0 0 4.8-1 .36.36 0 0 1 .49.15.48.48 0 0 1-.19.68 11.38 11.38 0 0 1-5.3 1 7.14 7.14 0 0 1-4.32-1.59Z" class="cls-6"/><path d="M44.88 58.7a33 33 0 0 0 18.67-3 32.43 32.43 0 0 0 7.67-5.23 33.07 33.07 0 0 0 3.21-3.38c.47-.57.87-1.22 1.36-1.76a.89.89 0 0 1 .51-.29.34.34 0 0 1-.08-.17c-.06-.19-.11-.39-.17-.58l-.75-2.69c-1.92-7-3.65-14.14-3.83-21.43a48.6 48.6 0 0 1 .21-5.66c0-.47.11-.94.17-1.41s.94-.39.86.17c0 .28-.06.57-.1.85-.89 8 .6 16 2.59 23.66.37 1.46.77 2.92 1.17 4.37.22.81.45 1.62.67 2.43a.43.43 0 0 1-.13.46c.31 0 .63.16.91.23 3.46.83 7.47 1.53 10.59-.67a.44.44 0 0 1 .64.56.42.42 0 0 1-.14.16 10.23 10.23 0 0 1-6.8 1.58 21 21 0 0 1-2.64-.36l-1.2-.26L77.1 46a1.44 1.44 0 0 0-.53-.11c-.15 0-.21.17-.3.28-.25.35-.51.68-.77 1-.12.14-.24.28-.35.43l-.07.08a34.24 34.24 0 0 1-2.66 2.86.94.94 0 0 1-.1.1 33.73 33.73 0 0 1-16.66 8.62 34.11 34.11 0 0 1-10.95.35.41.41 0 0 1-.32-.25.47.47 0 0 1 .49-.66ZM27.12 64.34h-.06a.45.45 0 0 1-.41-.4.57.57 0 0 1 0-.18.41.41 0 0 1 .38-.29 12.58 12.58 0 0 0 11.31-5.87.47.47 0 0 1 .11-.13.44.44 0 0 1 .47-.07l.25.08a22.17 22.17 0 0 0 3.4.92.41.41 0 0 1 .31.59.4.4 0 0 1-.47.27 23.47 23.47 0 0 1-3.5-.94 13.49 13.49 0 0 1-10.8 6c-.34.05-.66.04-.99.02Z" class="cls-6"/><path d="M.31 68.19a18.48 18.48 0 0 1 1.57-11.14 17.72 17.72 0 0 1 7.44-8.75A12.16 12.16 0 0 1 8 43.71a12.53 12.53 0 0 1 .07-5.21 17 17 0 0 1 4.22-6.76q.59-.61 1.2-1.2c.93-.89 1.91-1.74 2.9-2.57.43-.36.86-.73 1.3-1.08a.35.35 0 0 1 .43-.05.48.48 0 0 1 .18.64.45.45 0 0 1-.11.13l-.61.5a.38.38 0 0 1 .42.09c.84.78 1.66 1.58 2.47 2.39a76.83 76.83 0 0 1 6.73 7.8 78 78 0 0 1 7.25 11.67q1.26 2.52 2.34 5.13c.28.67.55 1.34.81 2a.44.44 0 0 1-.83.29c-.2-.53-.41-1-.62-1.57a75.83 75.83 0 0 0-5.33-10.62 76.62 76.62 0 0 0-8-10.94c-1-1.16-2.09-2.29-3.18-3.38-.72-.72-1.45-1.43-2.19-2.12a.43.43 0 0 1-.06-.58 38.27 38.27 0 0 0-5.9 5.73 15.59 15.59 0 0 0-2.32 3.93 7.89 7.89 0 0 0-.54 2.34 13.85 13.85 0 0 0 .14 2.57 11.58 11.58 0 0 0 1.56 5.4.41.41 0 0 1 .08.33.45.45 0 0 1 .57-.24c.42.16.82.33 1.23.51a35.15 35.15 0 0 1 13.06 9.74c.47.56.93 1.15 1.36 1.74.55.76 1.08 1.53 1.57 2.33.29.48-.43 1-.72.5a37.57 37.57 0 0 0-1.69-2.49 34.44 34.44 0 0 0-10.7-9.43c-.68-.38-1.38-.74-2.08-1.07s-1.59-.72-2.41-1a.36.36 0 0 1-.23-.46.51.51 0 0 1-.4.25l-.68.38a16.51 16.51 0 0 0-6 6.92A19.36 19.36 0 0 0 .93 66.49 10.38 10.38 0 0 0 6.3 75a12 12 0 0 0 9.93.24A18.89 18.89 0 0 0 25.14 67a.46.46 0 0 1 .66-.14.36.36 0 0 1 .13.52 20.45 20.45 0 0 1-8.15 8.11 13.26 13.26 0 0 1-10.86.76 10.73 10.73 0 0 1-4.09-2.85 11.51 11.51 0 0 1-2.52-5.21ZM38.8 2.16c-8 2.24-15.24 7.36-18.63 15.1a21.58 21.58 0 0 0-1.68 6.16.36.36 0 0 1-.36.34.46.46 0 0 1-.5-.51 23.52 23.52 0 0 1 4.24-10.75 28 28 0 0 1 9.61-8.35 34.93 34.93 0 0 1 7-2.82.44.44 0 0 1 .46.14.41.41 0 0 1-.14.69ZM90.41 43.7a20.61 20.61 0 0 1-1.23-2.13 40.94 40.94 0 0 1-2.92-8.51 62.51 62.51 0 0 1-2-10.48 26.62 26.62 0 0 1 .07-4.89c0-.35.09-.7.15-1.06.09-.56 1-.39.86.17q-.09.59-.15 1.17a31.19 31.19 0 0 0 .58 9.09c.33 1.71.74 3.41 1.17 5.09s.91 3.62 1.51 5.39A29.44 29.44 0 0 0 89.89 41a20.1 20.1 0 0 0 1.24 2.16.42.42 0 0 1 0 .4.45.45 0 0 1-.33.28.38.38 0 0 1-.39-.14Z" class="cls-6"/></g></g></svg>