<svg xmlns="http://www.w3.org/2000/svg" viewBox="0 0 75.08 74.64"><defs><style>.cls-1{fill:#e2a779}.cls-2{fill:#d79e6b}.cls-3{fill:#cb8c5b}.cls-4{fill:#673619}.cls-5{fill:#804a20}.cls-6{fill:#d581a0}.cls-7{fill:#a9632d}.cls-8{fill:#351d16}.cls-9{fill:#7c4020}</style></defs><g id="Capa_2" data-name="Capa 2"><g id="Capa_3" data-name="Capa 3"><path d="M75 62.51a2.78 2.78 0 0 0-.45-1.45l-.19-.27a1.47 1.47 0 0 1-.1-.13l-.22-.24a.68.68 0 0 0-.04-.12 5.47 5.47 0 0 0-.51-.45 6 6 0 0 0-1.19-.8 12.59 12.59 0 0 0-2.6-.93c-1-.26-2-.48-3-.67-1.43-.28-2.86-.5-4.3-.66a30.9 30.9 0 0 0 1.72-2.71 38.51 38.51 0 0 0 3.44-8.33c.12-.42.24-.83.35-1.25a.31.31 0 0 0-.25-.38 33.47 33.47 0 0 0 .62-5.9c.2-.92.37-1.84.49-2.77a33.49 33.49 0 0 0 0-9 32.88 32.88 0 0 0-2.42-8.68c-.3-.7-.62-1.38-1-2-.26-.49-1-.16-.91.3-.22-.38-.44-.76-.68-1.13s-.51-.77-.77-1.15c.34 0 .66-.35.42-.7a16.89 16.89 0 0 0-2.5-2.71c-.85-.78-1.75-1.51-2.68-2.21a38.69 38.69 0 0 0-5.93-3.65A43 43 0 0 0 38 .31a48.49 48.49 0 0 0-8.77-.2.5.5 0 0 0-.43.49c-.75.06-1.5.14-2.24.24a.53.53 0 0 0 0-.13.52.52 0 0 0-.61-.34 36.51 36.51 0 0 0-7.3 1.77 24.4 24.4 0 0 0-5 2.32 29.45 29.45 0 0 0-9 9.32A31.49 31.49 0 0 0 .28 26a33.8 33.8 0 0 0 0 8.76v1.86A31.31 31.31 0 0 0 .71 44a29 29 0 0 0 4.05 11.27 29.39 29.39 0 0 0 6.9 7.65l.37.28.18.14.14.11.31.22.38.27.33.22.32.22.14.09.35.22.17.11a30.56 30.56 0 0 0 6 2.89h.08a37 37 0 0 0 6.09 1.56 2.81 2.81 0 0 0 .33.8 4.5 4.5 0 0 0 1.91 1.64 20.67 20.67 0 0 0 2.67 1.12A29.68 29.68 0 0 0 37 74.12a75.61 75.61 0 0 0 11.65.5 91.44 91.44 0 0 0 11.57-.81 32.12 32.12 0 0 0 10.62-3.25C72.3 69.8 74 68.85 74.57 67a3.43 3.43 0 0 0-.24-2.63l.07-.08q.19-.23.36-.45a.19.19 0 0 0 0-.21l.09-.22A2.47 2.47 0 0 0 75 63a.19.19 0 0 0 .09-.19c-.02-.07-.03-.19-.09-.3Z" class="cls-1"/><path d="M67.15 43.37a33.25 33.25 0 0 1-7.34 13.17c.62.05 1.24.1 1.85.17A31.57 31.57 0 0 0 64 52.89a40.1 40.1 0 0 0 3.24-8.56.3.3 0 0 1 .39-.21 33.47 33.47 0 0 0 .62-5.9c-.18.81-.39 1.62-.63 2.41s-.26 1.84-.47 2.74ZM11.66 62.92ZM14.35 64.8l-.17-.11ZM13 63.94l-.38-.27ZM12.21 63.34l.14.11-.35-.25ZM13.69 64.38l-.32-.22ZM1.21 42.61a29.89 29.89 0 0 1-.88-6A31.31 31.31 0 0 0 .71 44c-.06-.42-.11-.85-.14-1.27s.53-.45.64-.12ZM23.08 68.36a.32.32 0 1 1 .18-.61c1 .29 2.12.54 3.19.75a3.87 3.87 0 0 1 .16-1.31c.05-.16.11-.32.17-.47a3.42 3.42 0 0 1-.63-1c-8.21-1.91-15.73-6.4-20.49-13.29a30.52 30.52 0 0 1-4.42-9.8.13.13 0 0 0 0 .06 27.72 27.72 0 0 0 1.6 7.12 28.33 28.33 0 0 0 7.05 10.74 30 30 0 0 0 10.69 6.53.32.32 0 0 1-.1.63 37 37 0 0 0 6.09 1.56v-.1c-1.19-.17-2.35-.49-3.49-.81Z" class="cls-2"/><path d="M62.75 44.72a31.82 31.82 0 0 0 2.65-8.92 28.79 28.79 0 0 0-.14-9 26.17 26.17 0 0 0-3.09-8.47A27.46 27.46 0 0 0 56.06 11a32.55 32.55 0 0 0-7.87-4.84A38.24 38.24 0 0 0 39 3.47a37.49 37.49 0 0 0-9.58-.37l-.92.1C15.06 4.86 6.08 17.08 4.62 29.54A29.42 29.42 0 0 0 5 38.9a46.39 46.39 0 0 0 1.26 4.62 33.55 33.55 0 0 0 1.84 4.59c2.39 4.77 6.66 7.76 11.59 9.76a48.47 48.47 0 0 0 5.12 1.79 34.9 34.9 0 0 0 4.06.87A20.27 20.27 0 0 1 32 59.26a33.72 33.72 0 0 1 3.58-1c2.41-.52 4.87-.83 7.32-1.13.17 0 .24.11.22.24l.7-.1c1.21-.16 2.43-.3 3.64-.41a.25.25 0 0 1 .2-.38c1.61-.09 3.23-.15 4.84-.18a25.26 25.26 0 0 0 5.26-4.09 26.14 26.14 0 0 0 4.99-7.49Zm-47.68-9.65a4.05 4.05 0 0 1-3.07-.48 1.11 1.11 0 0 1-.43-1.26c.41-1 2.63-1.08 3.58-.77a2.12 2.12 0 0 1 1.09.76c.54.88-.41 1.55-1.17 1.75Zm2-6a3.28 3.28 0 0 1-1.43 2.28 2 2 0 0 1-2.43-.35A5.49 5.49 0 0 1 12 28.63a11.59 11.59 0 0 1-.49-2.91.64.64 0 0 1 1.28 0 10.1 10.1 0 0 0 .58 3A4 4 0 0 0 14 30a.93.93 0 0 0 .85.36c.64-.11.91-1 1-1.56a13.32 13.32 0 0 0 .25-3.15.64.64 0 0 1 1.28 0A15.28 15.28 0 0 1 17.1 29Zm.52-5.88a.44.44 0 0 1-.37.05A.49.49 0 0 1 17 23c.08.11 0 0 0 0l-.09-.11-.2-.18a.27.27 0 0 0-.08-.07l-.23-.14-.4-.24-.13-.05a3.16 3.16 0 0 0-.53-.13c-.27 0-.39-.37-.34-.6a.5.5 0 0 1 .23-.29.53.53 0 0 1 .37-.05 3.31 3.31 0 0 1 1.22.44 3.62 3.62 0 0 1 1 .93.48.48 0 0 1-.2.65Zm6.1 7.67a1.71 1.71 0 0 1-1.33.63 1.74 1.74 0 0 1-1.37-.7 2.24 2.24 0 0 1-.41-1.37.5.5 0 0 1 .49-.49.5.5 0 0 1 .49.49 1.11 1.11 0 0 0 .36.94c.55.4 1 0 1.21-.56.11-.35.16-1 .65-1a.49.49 0 0 1 .49.48 2.79 2.79 0 0 1-.55 1.55Zm2.22-7.67a.47.47 0 0 1-.22-.29.44.44 0 0 1 .05-.37 3.49 3.49 0 0 1 1-.93 3.33 3.33 0 0 1 1.26-.47.61.61 0 0 1 .38.05.49.49 0 0 1 .22.29.5.5 0 0 1 0 .38.48.48 0 0 1-.3.22 3.27 3.27 0 0 0-.54.13l-.13.05-.24.13a2.07 2.07 0 0 0-.25.15l-.1.09a1.8 1.8 0 0 0-.2.19l-.09.1a.53.53 0 0 1-.29.22.5.5 0 0 1-.52.03ZM28.36 31A3.89 3.89 0 0 1 27 28.91a10.63 10.63 0 0 1-.51-3 .64.64 0 0 1 1.28 0 9.38 9.38 0 0 0 .48 2.67c.19.57.57 1.59 1.35 1.42s1.12-1.55 1.3-2.21a10.81 10.81 0 0 0 .4-2.34.67.67 0 0 1 .64-.64.65.65 0 0 1 .64.64 13.09 13.09 0 0 1-.58 3.38 4.27 4.27 0 0 1-1.28 2.07 1.92 1.92 0 0 1-2.36.1Zm4.76 4.09a4.05 4.05 0 0 1-3.12-.5 1.11 1.11 0 0 1-.43-1.26c.41-1 2.63-1.08 3.58-.77a2.16 2.16 0 0 1 1.09.76c.59.88-.36 1.55-1.12 1.75Z" class="cls-1"/><path d="m31.77 59.84 1.49-.38c1.71-.43 3.42-.84 5.15-1.19-1.11.17-2.21.37-3.31.63a31.83 31.83 0 0 0-3.33.94Z" class="cls-1"/><path d="M26.2 1.3c-.64.08-1.29.19-1.92.31A27.94 27.94 0 0 0 13 6.13a28.85 28.85 0 0 0-8.24 9.46A30.51 30.51 0 0 0 1.09 27.8a34.8 34.8 0 0 0 1.85 13.94 38 38 0 0 0 2.91 6.48 23.35 23.35 0 0 0 4.32 5.72.47.47 0 0 1-.31.81c.61.6 1.24 1.19 1.92 1.74a.51.51 0 0 1 .67-.17c.64.43 1.28.84 1.94 1.23a41.1 41.1 0 0 0 12.24 4.85 6.24 6.24 0 0 1 2.1-1.78l.16-.09a34.9 34.9 0 0 1-4.06-.87 48.47 48.47 0 0 1-5.12-1.79c-4.93-2-9.2-5-11.59-9.76a33.55 33.55 0 0 1-1.84-4.59A46.39 46.39 0 0 1 5 38.9a29.42 29.42 0 0 1-.4-9.36C6.08 17.08 15.06 4.86 28.54 3.2l.92-.1a37.49 37.49 0 0 1 9.54.37 38.24 38.24 0 0 1 9.15 2.71A32.55 32.55 0 0 1 56.06 11a27.46 27.46 0 0 1 6.11 7.28 26.17 26.17 0 0 1 3.09 8.47 28.79 28.79 0 0 1 .14 9 31.82 31.82 0 0 1-2.65 8.92 26.14 26.14 0 0 1-5 7.53 25.26 25.26 0 0 1-5.26 4.09h3.08a33.17 33.17 0 0 0 6.8-7A31.49 31.49 0 0 0 68 33.3a32.6 32.6 0 0 0-3.49-17.09.49.49 0 0 1 0-.19c-.22-.38-.44-.76-.68-1.13s-.51-.77-.77-1.15a.52.52 0 0 1-.44-.22 17 17 0 0 0-2.75-2.88 35.11 35.11 0 0 0-2.95-2.33A39.35 39.35 0 0 0 44.44 2.5a46.15 46.15 0 0 0-15.17-1.43.42.42 0 0 1-.47-.47c-.75.06-1.5.14-2.24.24a.47.47 0 0 1-.36.46Z" class="cls-3"/><path d="M1.22 42.63a30.52 30.52 0 0 0 4.42 9.8c4.76 6.89 12.28 11.38 20.49 13.29a3.3 3.3 0 0 1 0-2.45 41.72 41.72 0 0 1-5.52-1.64A42.35 42.35 0 0 1 12 57.15a.49.49 0 0 1-.18-.66 26.64 26.64 0 0 1-1.92-1.74.48.48 0 0 1-.39-.14c-.51-.41-.91-.84-1.31-1.29a29.4 29.4 0 0 1-4-6.2 39.11 39.11 0 0 1-2.68-6.74A37.92 37.92 0 0 1 .29 34.8v1.86a29.89 29.89 0 0 0 .88 6ZM67.66 40.63a30.32 30.32 0 0 1-1.3 3.56A31.58 31.58 0 0 1 62 51.41a33.7 33.7 0 0 1-4.94 5c.92 0 1.85.08 2.77.15a33.25 33.25 0 0 0 7.34-13.17c.19-.92.36-1.84.49-2.76Z" class="cls-4"/><path d="M1.47 40.38a39.11 39.11 0 0 0 2.68 6.74 29.4 29.4 0 0 0 4 6.2c.4.45.83.88 1.27 1.29a.48.48 0 0 0 .7-.67 23.35 23.35 0 0 1-4.32-5.72 38 38 0 0 1-2.91-6.48 34.8 34.8 0 0 1-1.8-13.94 30.51 30.51 0 0 1 3.63-12.21A28.85 28.85 0 0 1 13 6.13a27.94 27.94 0 0 1 11.28-4.52c.63-.12 1.28-.23 1.92-.31a.47.47 0 0 0 .36-.46.53.53 0 0 0 0-.13.52.52 0 0 0-.61-.34 36.51 36.51 0 0 0-7.3 1.77 24.4 24.4 0 0 0-5 2.32 29.45 29.45 0 0 0-9 9.32A31.49 31.49 0 0 0 .28 26a33.8 33.8 0 0 0 0 8.76 37.92 37.92 0 0 0 1.19 5.62ZM68 33.3a31.49 31.49 0 0 1-5.68 16.05 33.17 33.17 0 0 1-6.8 7h1.51a33.7 33.7 0 0 0 4.94-5 31.58 31.58 0 0 0 4.38-7.22 30.32 30.32 0 0 0 1.3-3.56 32.786 32.786 0 0 0 1.12-5.18 33.49 33.49 0 0 0 0-9 32.88 32.88 0 0 0-2.42-8.68c-.3-.7-.62-1.38-1-2-.26-.49-1-.16-.91.3a.49.49 0 0 0 0 .19A32.6 32.6 0 0 1 68 33.3ZM12.45 56.32a.51.51 0 0 0-.67.17.49.49 0 0 0 .18.66 42.35 42.35 0 0 0 8.7 4.48 41.72 41.72 0 0 0 5.52 1.64 3.82 3.82 0 0 1 .21-.46c.08-.14.16-.28.25-.41a41.1 41.1 0 0 1-12.24-4.85c-.67-.39-1.31-.8-1.95-1.23ZM29.27 1.07A46.15 46.15 0 0 1 44.44 2.5a39.35 39.35 0 0 1 12.44 5.81 35.11 35.11 0 0 1 2.95 2.33 17 17 0 0 1 2.75 2.88.52.52 0 0 0 .44.22c.34 0 .66-.35.42-.7a16.89 16.89 0 0 0-2.5-2.71c-.85-.78-1.75-1.51-2.68-2.21a38.69 38.69 0 0 0-5.93-3.65A43 43 0 0 0 38 .31a48.49 48.49 0 0 0-8.77-.2.5.5 0 0 0-.43.49.42.42 0 0 0 .47.47Z" class="cls-5"/><path d="M15.11 32.56c-.95-.31-3.17-.26-3.58.77a1.11 1.11 0 0 0 .47 1.26 4.05 4.05 0 0 0 3.11.48c.76-.2 1.71-.87 1.13-1.75a2.12 2.12 0 0 0-1.13-.76ZM33.16 32.56c-.95-.31-3.17-.26-3.58.77a1.11 1.11 0 0 0 .42 1.26 4.05 4.05 0 0 0 3.11.48c.76-.2 1.71-.87 1.13-1.75a2.16 2.16 0 0 0-1.08-.76Z" class="cls-6"/><path d="M16.11 25.6a13.32 13.32 0 0 1-.25 3.15c-.12.54-.39 1.45-1 1.56A.93.93 0 0 1 14 30a4 4 0 0 1-.6-1.25 10.1 10.1 0 0 1-.58-3 .64.64 0 0 0-1.28 0 11.59 11.59 0 0 0 .46 2.88A5.49 5.49 0 0 0 13.21 31a2 2 0 0 0 2.46.34A3.28 3.28 0 0 0 17.1 29a15.28 15.28 0 0 0 .29-3.44.64.64 0 0 0-1.28.04ZM32 28.83a13.09 13.09 0 0 0 .65-3.34.65.65 0 0 0-.64-.64.67.67 0 0 0-.64.64 10.81 10.81 0 0 1-.4 2.34c-.18.66-.49 2-1.3 2.21s-1.16-.85-1.35-1.42A9.38 9.38 0 0 1 27.8 26a.64.64 0 0 0-1.28 0 10.63 10.63 0 0 0 .51 3 3.89 3.89 0 0 0 1.33 2 1.92 1.92 0 0 0 2.32-.08A4.27 4.27 0 0 0 32 28.83ZM23.81 28.75c-.49 0-.54.67-.65 1-.17.53-.66 1-1.21.56a1.11 1.11 0 0 1-.36-.94.5.5 0 0 0-.49-.49.5.5 0 0 0-.49.49 2.24 2.24 0 0 0 .39 1.39 1.74 1.74 0 0 0 1.37.7 1.71 1.71 0 0 0 1.33-.63 2.79 2.79 0 0 0 .58-1.6.49.49 0 0 0-.47-.48ZM16.78 21.57a3.31 3.31 0 0 0-1.22-.44.53.53 0 0 0-.37.05.5.5 0 0 0-.23.29c-.05.23.07.57.34.6a3.16 3.16 0 0 1 .53.13l.13.05.26.14.23.14a.27.27 0 0 1 .08.07l.2.18.09.11s.12.15 0 0a.49.49 0 0 0 .29.22.44.44 0 0 0 .37-.05.48.48 0 0 0 .18-.66 3.62 3.62 0 0 0-.88-.83ZM26.61 23l.09-.1a1.8 1.8 0 0 1 .2-.19l.1-.09a2.07 2.07 0 0 1 .25-.15l.24-.13.13-.05a3.27 3.27 0 0 1 .54-.13.48.48 0 0 0 .3-.22.5.5 0 0 0 0-.38.49.49 0 0 0-.22-.29.61.61 0 0 0-.38-.05 3.33 3.33 0 0 0-1.21.44 3.49 3.49 0 0 0-1 .93.44.44 0 0 0-.05.37.47.47 0 0 0 .22.29.5.5 0 0 0 .38.05.53.53 0 0 0 .41-.3Z" class="cls-7"/><path d="M20.58 67.08a30 30 0 0 1-10.69-6.53 28.33 28.33 0 0 1-7.06-10.74 27.72 27.72 0 0 1-1.6-7.12.13.13 0 0 1 0-.06c-.11-.33-.68-.31-.64.08s.08.85.14 1.27a29 29 0 0 0 4.03 11.29 29.39 29.39 0 0 0 6.9 7.65l.37.28.32.25.31.22.38.27.33.22.32.22.14.09.35.22.17.11a30.56 30.56 0 0 0 6 2.89h.08a.32.32 0 0 0 .15-.61ZM23.08 68.36c1.14.32 2.3.59 3.46.81a3.73 3.73 0 0 1-.09-.67c-1.07-.21-2.14-.46-3.19-.75a.32.32 0 1 0-.18.61ZM67.28 44.33A40.1 40.1 0 0 1 64 52.89a31.57 31.57 0 0 1-2.38 3.82l.75.08a30.9 30.9 0 0 0 1.72-2.71 38.51 38.51 0 0 0 3.44-8.33c.12-.42.24-.83.35-1.25a.31.31 0 0 0-.25-.38.3.3 0 0 0-.35.21Z" class="cls-5"/><path d="M73.84 64.89a6.33 6.33 0 0 1-.9 2.66 4.23 4.23 0 0 1-1.75 1.53c-1 .47-2 .9-3 1.3a36.51 36.51 0 0 1-6.28 1.87 70.56 70.56 0 0 1-13.22 1.08c-2.24 0-4.49 0-6.73-.15a61 61 0 0 1-6.61-.61 27.62 27.62 0 0 1-3.1-.67 15.16 15.16 0 0 1-2.75-1 3.71 3.71 0 0 1-1.74-1.63 4.78 4.78 0 0 1-.34-2 4.22 4.22 0 0 1-.64-.55c-.06.15-.12.31-.17.47a3.87 3.87 0 0 0-.16 1.31 3.73 3.73 0 0 0 .09.67v.1a2.81 2.81 0 0 0 .33.8 4.5 4.5 0 0 0 1.91 1.64 20.67 20.67 0 0 0 2.67 1.12A29.68 29.68 0 0 0 37 74.12a75.61 75.61 0 0 0 11.65.5 91.44 91.44 0 0 0 11.57-.81 32.12 32.12 0 0 0 10.62-3.25C72.3 69.8 74 68.85 74.57 67a3.43 3.43 0 0 0-.24-2.63 4.1 4.1 0 0 1-.49.52Z" class="cls-1"/><path d="M72.89 61.05a5.19 5.19 0 0 0-3-2 29.63 29.63 0 0 0-4.38-1 77.82 77.82 0 0 0-11-.6 73.77 73.77 0 0 0-11.2.82c-.9.13-1.8.24-2.7.34h-.1a39.72 39.72 0 0 0-8.84 2 6.79 6.79 0 0 0-3 1.83 2.39 2.39 0 0 0-.16 2.94A5.07 5.07 0 0 0 31.18 67a24.3 24.3 0 0 0 3 .69 61.06 61.06 0 0 0 11.12 1c3.78 0 7.55-.23 11.31-.53a47.83 47.83 0 0 0 5.62-.63c1.79-.35 3.58-.74 5.35-1.2a10.75 10.75 0 0 0 4.27-1.89 3.77 3.77 0 0 0 1.19-1.55 2.18 2.18 0 0 0-.15-1.84Z" class="cls-1"/><path d="M75 62.51a2.78 2.78 0 0 0-.45-1.45l-.19-.27a1.47 1.47 0 0 1-.1-.13l-.22-.24a.68.68 0 0 0-.04-.12 5.47 5.47 0 0 0-.51-.45A4.44 4.44 0 0 1 75 62.51ZM74.6 62.85c-.13-2-2-3.26-3.72-3.87a35.22 35.22 0 0 0-5.55-1.3c-1.95-.33-3.91-.55-5.88-.69a95 95 0 0 0-11.81 0 .2.2 0 0 1-.2-.1c-1.21.11-2.43.25-3.64.41l-.7.1a.25.25 0 0 1-.22.23c-1.49.19-3 .38-4.46.62-1.73.35-3.44.76-5.15 1.19l-1.49.38a16.37 16.37 0 0 0-3 1.32 4.72 4.72 0 0 0-2.13 2.28 2.74 2.74 0 0 0 .35 2.85 5.51 5.51 0 0 0 2.75 1.54c1.14.33 2.3.61 3.46.87a31.69 31.69 0 0 0 7.26.94.22.22 0 0 1 .22.27c2.61.13 5.23.13 7.83.1s5.33-.13 8-.33a.24.24 0 0 1 .23-.26 37.74 37.74 0 0 0 4.49-.46c1.28-.21 2.57-.45 3.84-.71a28.94 28.94 0 0 0 3.69-1 11.32 11.32 0 0 0 5.58-3.7.27.27 0 0 1 .44 0l.09-.22A2.47 2.47 0 0 0 75 63a.25.25 0 0 1-.4-.15Zm-2.71 1.61a10.75 10.75 0 0 1-4.27 1.89c-1.77.46-3.56.85-5.35 1.2a47.83 47.83 0 0 1-5.62.63c-3.76.3-7.53.54-11.31.53a61.06 61.06 0 0 1-11.12-1 24.3 24.3 0 0 1-3-.69 5.07 5.07 0 0 1-2.67-1.68 2.39 2.39 0 0 1 .16-2.94 6.79 6.79 0 0 1 3-1.83 39.72 39.72 0 0 1 8.84-2h.1c.9-.1 1.8-.21 2.7-.34a73.77 73.77 0 0 1 11.2-.82 77.82 77.82 0 0 1 11 .6 29.63 29.63 0 0 1 4.38 1 5.19 5.19 0 0 1 3 2 2.18 2.18 0 0 1 .19 1.86 3.77 3.77 0 0 1-1.23 1.59ZM73.76 65a.27.27 0 0 1 .08-.07 4.1 4.1 0 0 0 .49-.53l.07-.08c-.2.19-.4.42-.64.68Z" class="cls-3"/><path d="M50.92 71.29a.25.25 0 0 0-.17.08.26.26 0 0 0-.07.19.29.29 0 0 1-.13.22.29.29 0 0 1-.24 0 .36.36 0 0 1-.19-.21.19.19 0 0 0 0-.08l-.05-.07a.26.26 0 0 0-.21 0 .24.24 0 0 0-.17.29.75.75 0 0 0 1.49-.17.23.23 0 0 0-.26-.25ZM48.37 70.59a.24.24 0 0 0-.24.24 1.84 1.84 0 0 1-.08.84.39.39 0 0 1-.08.14.27.27 0 0 1-.35 0 .64.64 0 0 1-.26-.45v-.53a.24.24 0 1 0-.47 0 1.47 1.47 0 0 0 .51 1.39.82.82 0 0 0 .76.05.88.88 0 0 0 .41-.58 2.37 2.37 0 0 0 .07-.88.24.24 0 0 0-.27-.22ZM53.76 70.59a.24.24 0 0 0-.24.24 2.21 2.21 0 0 1-.06.77.42.42 0 0 1-.14.24.28.28 0 0 1-.25 0 .42.42 0 0 1-.19-.16 1.34 1.34 0 0 1-.16-.86.24.24 0 0 0-.48 0 1.48 1.48 0 0 0 .52 1.39.8.8 0 0 0 .75.05.93.93 0 0 0 .42-.58 2.37 2.37 0 0 0 .07-.88.24.24 0 0 0-.24-.21Z" class="cls-8"/><path d="M75.08 62.85v-.34a4.44 4.44 0 0 0-1.59-2.66 6 6 0 0 0-1.19-.8 12.59 12.59 0 0 0-2.6-.93c-1-.26-2-.48-3-.67-1.43-.28-2.86-.5-4.3-.66l-.75-.08c-.61-.07-1.23-.12-1.85-.17-.92-.07-1.85-.12-2.77-.15h-4.55c-1.61 0-3.23.09-4.84.18a.25.25 0 0 0-.2.38.2.2 0 0 0 .2.1 95 95 0 0 1 11.81 0c2 .14 3.93.36 5.88.69A35.22 35.22 0 0 1 70.88 59c1.73.61 3.59 1.86 3.72 3.87a.25.25 0 0 0 .4.13.19.19 0 0 0 .08-.15ZM74.35 63.58a11.32 11.32 0 0 1-5.58 3.7 28.94 28.94 0 0 1-3.69 1c-1.27.26-2.56.5-3.84.71a37.74 37.74 0 0 1-4.49.46.24.24 0 0 0-.23.26c-2.65.2-5.32.29-8 .33s-5.22 0-7.83-.1a.22.22 0 0 0-.22-.27 31.69 31.69 0 0 1-7.26-.94c-1.16-.26-2.32-.54-3.46-.87A5.51 5.51 0 0 1 27 66.27a2.74 2.74 0 0 1-.41-2.82 4.72 4.72 0 0 1 2.13-2.28 16.37 16.37 0 0 1 3-1.32 31.83 31.83 0 0 1 3.34-1c1.1-.26 2.2-.46 3.31-.63 1.48-.24 3-.43 4.46-.62a.25.25 0 0 0 .22-.23c0-.13-.05-.27-.22-.24-2.45.3-4.91.61-7.32 1.13a33.72 33.72 0 0 0-3.58 1 20.27 20.27 0 0 0-3.09 1.27l-.16.09a6.24 6.24 0 0 0-2.1 1.78c-.09.13-.17.27-.25.41a3.82 3.82 0 0 0-.21.46 3.3 3.3 0 0 0 0 2.45 3.42 3.42 0 0 0 .63 1 4.22 4.22 0 0 0 .64.55 4.78 4.78 0 0 0 .34 2 3.71 3.71 0 0 0 1.74 1.63 15.16 15.16 0 0 0 2.75 1 27.62 27.62 0 0 0 3.1.67 61 61 0 0 0 6.61.61c2.24.12 4.49.17 6.73.15a70.56 70.56 0 0 0 13.22-1.08 36.51 36.51 0 0 0 6.28-1.87c1-.4 2-.83 3-1.3a4.23 4.23 0 0 0 1.75-1.53 6.33 6.33 0 0 0 .9-2.66.27.27 0 0 0-.08.07c.22-.22.44-.45.64-.68s.25-.3.36-.45a.19.19 0 0 0 0-.21.27.27 0 0 0-.38-.04Zm-25.81 8.13a.88.88 0 0 1-.41.58.82.82 0 0 1-.76-.05 1.47 1.47 0 0 1-.51-1.39.24.24 0 1 1 .47 0v.53a.64.64 0 0 0 .26.45.27.27 0 0 0 .35 0 .39.39 0 0 0 .08-.14 1.84 1.84 0 0 0 .08-.84.24.24 0 0 1 .48 0 2.37 2.37 0 0 1-.04.86Zm1.93.59a.77.77 0 0 1-.8-.6.24.24 0 0 1 .17-.29.26.26 0 0 1 .21 0l.05.07a.19.19 0 0 1 0 .08.36.36 0 0 0 .19.21.29.29 0 0 0 .24 0 .29.29 0 0 0 .13-.22.26.26 0 0 1 .07-.19.25.25 0 0 1 .17-.08.23.23 0 0 1 .24.24.77.77 0 0 1-.67.78Zm3.46-.59a.93.93 0 0 1-.42.58.8.8 0 0 1-.75-.05 1.48 1.48 0 0 1-.52-1.39.24.24 0 0 1 .48 0 1.34 1.34 0 0 0 .16.86.42.42 0 0 0 .19.16.28.28 0 0 0 .25 0 .42.42 0 0 0 .14-.24 2.21 2.21 0 0 0 .06-.77.24.24 0 0 1 .48 0 2.37 2.37 0 0 1-.07.85Z" class="cls-9"/></g></g></svg>