<svg xmlns="http://www.w3.org/2000/svg" viewBox="0 0 133.56 77.88"><defs><style>.cls-1{fill:#e8bb90}.cls-2{fill:#de9a6e}.cls-4{fill:#ebc4aa}.cls-5{fill:#d06874}.cls-6{fill:#fbf085}.cls-8{fill:#995932}.cls-9{fill:#db95a1}.cls-11{fill:#b65521}</style></defs><g id="Capa_2" data-name="Capa 2"><g id="Capa_3" data-name="Capa 3"><path d="M132.05 30.46a27.1 27.1 0 0 0-7-12.41 20.24 20.24 0 0 0-11.73-5.76c-.56-.06-1.12-.09-1.69-.1a.48.48 0 0 0-.49.48c-1.76-.26-3.54-.45-5.28-.66l-1.61-.18c1.26.13 2.52.27 3.77.42.66.08.65-.95 0-1a199.22 199.22 0 0 0-21.88-1.48h-6.22a.51.51 0 0 0-.5.53c-1.69 0-3.37 0-5.06-.05l-.29-.34a8 8 0 0 0 2 .16.45.45 0 0 0 .38-.68 3.27 3.27 0 0 0-2-1.25l-1.81-.69a5.25 5.25 0 0 0 1.21-.89c.41-.42 1.13-1.2.92-1.84-.33-1.05-1.8-.54-3 .07a6.6 6.6 0 0 0 0-3.91c-.09-.29-.54-.48-.75-.2a13.67 13.67 0 0 0-1.33 2.18 7.4 7.4 0 0 0-.41-1.11C69.07 1.21 68.6.14 67.9 0s-.89.58-.82 1.11l.12.76A7 7 0 0 0 65.91.62a.45.45 0 0 0-.76.32 5.17 5.17 0 0 0 .21 1.41c-.24-.19-.48-.38-.72-.55A8.14 8.14 0 0 0 61 .16a4.7 4.7 0 0 0-3.87 1.31 24.32 24.32 0 0 0-2.94 3.38q-1.41 1.83-2.64 3.78c-.43.69-.85 1.4-1.26 2.12l-3.29.12h-.81a.48.48 0 0 0-.47-.65q-7.15.32-14.32.77a20.29 20.29 0 0 0-6.47 1.19 19 19 0 0 0-5 3 46.3 46.3 0 0 0-8 8.91A61.72 61.72 0 0 0 6 34.65a60.81 60.81 0 0 0-4.17 13 .5.5 0 0 0 .11.45q-.28 1.08-.54 2.16c-.06.22-.11.43-.16.65l-.24.93a.47.47 0 0 0-.07.16c-.16.72-.28 1.45-.39 2.18a1.55 1.55 0 0 1 0 .21c-.12.73-.22 1.45-.3 2.18-.06.48-.1 1-.13 1.45C0 58.78 0 59.51 0 60.24v1.2c0 .4 0 .8.1 1.2a14 14 0 0 0 .52 2.61c.09.27.18.55.28.82s.11.26.17.39a10.84 10.84 0 0 0 1.51 2.69 16 16 0 0 0 3.89 3.58 17.49 17.49 0 0 0 5 2.27 38.55 38.55 0 0 0 6 1q6.27.71 12.58 1.18 7.16.52 14.33.74a.47.47 0 0 0 .49-.53h6.09a.49.49 0 0 0 .5.5l25.75-.34a.49.49 0 0 0 .24 0h1.28c9-.12 18.1-.21 27.15-.35 3.87-.07 8.12-.34 11.15-3a.45.45 0 0 0 .16-.41c.59-.34 1.17-.71 1.74-1.1l.7-.49.61-.47a.43.43 0 0 0 .47 0 27.11 27.11 0 0 0 9-10.53A31.53 31.53 0 0 0 131 58c.14-.31.26-.61.38-.92s.31-.85.45-1.28a33.3 33.3 0 0 0 1.06-4.41c.15-.89.27-1.79.36-2.69.06-.58.11-1.16.14-1.74v-1.18a47.59 47.59 0 0 0-1.34-15.32Z" class="cls-1"/><path d="M44.82 77.35h6.09c-2.03.02-4.06.02-6.09 0ZM0 60.24a33.64 33.64 0 0 1 .5-5.82 33.64 33.64 0 0 0-.5 5.82ZM1.91 48.12q-.28 1.08-.54 2.16.25-1.08.54-2.16ZM119.58 72.13l.61-.47ZM75.51 14.34c-.54.47-1.12.06-1.6-.44a9 9 0 0 1-1.45 8.31c-1.69 2.2-4.41 3.3-7.06 3.82a32.27 32.27 0 0 1-8.38.51c-2.66-.18-6.08-.62-8.05-2.6s-2-4.82-1.3-7.26a25.24 25.24 0 0 1 1.74-4.26c-2.47.14-4.93.35-7.39.61-2.62.28-5.24.61-7.87.86A20 20 0 0 0 22 19.27a46.78 46.78 0 0 0-8.1 10A70.3 70.3 0 0 0 6.54 46c-.73 2.36-1.54 4.7-2.18 7.09-1.15 4.46-1.57 9.44 1 13.5 2 3.07 5.32 4.65 8.79 5.39a40.74 40.74 0 0 0 5.51.73c2.58.19 5.15.33 7.73.48 5.39.29 10.79.5 16.19.54 2.6 0 5.19 0 7.8.21s5.2.38 7.8.49a57.28 57.28 0 0 0 7.64-.08 9.14 9.14 0 0 0 5.39-1.76 7.44 7.44 0 0 0 2.29-4.13c.24-1.08.33-2.2.47-3.3.16-1.33.33-2.65.52-4a83 83 0 0 1 3.14-14.35 69 69 0 0 1 5-11.67A43.55 43.55 0 0 1 91.06 25 30 30 0 0 1 96 21a33.94 33.94 0 0 1 5.63-3c1.45-.56 3.22-1.14 3.86-2.7.56-1.36-.61-2.11-1.81-2.32a23.32 23.32 0 0 0-4.8-.12c-2.71.1-5.42.37-8.13.48A148.24 148.24 0 0 1 75.87 13a1.38 1.38 0 0 1-.36 1.34ZM27.37 68.1a6.27 6.27 0 0 1-5.09-.45 2 2 0 0 1-.82-2.13c.56-1.81 4.15-2.16 5.72-1.73A3.49 3.49 0 0 1 29 65c1.05 1.41-.42 2.67-1.63 3.1ZM29 60.63a3.54 3.54 0 0 1-1.42 2.09A2.24 2.24 0 0 1 25 62.3c-1.52-1.34-1.61-3.71-1.65-5.59a.52.52 0 0 1 1 0 13.18 13.18 0 0 0 .28 2.87 3.74 3.74 0 0 0 1.1 2 1.12 1.12 0 0 0 1.58 0 4.13 4.13 0 0 0 .88-2 10 10 0 0 0 .28-2.72c0-.67 1-.66 1 0a11.1 11.1 0 0 1-.47 3.77Zm8.9 2.16a1.47 1.47 0 0 1-1 .43 1.51 1.51 0 0 1-1-.36 1.7 1.7 0 0 1-.48-.94.51.51 0 1 1 1-.28 2 2 0 0 0 .1.32.42.42 0 0 0 .09.14l.13.07a.44.44 0 0 0 .53-.3 1.08 1.08 0 0 1 .17-.43.53.53 0 0 1 .37-.17.51.51 0 0 1 .51.52 1.62 1.62 0 0 1-.42 1Zm7-6.08a13.18 13.18 0 0 0 .28 2.87 3.74 3.74 0 0 0 1.1 2 1.11 1.11 0 0 0 1.57 0 4.15 4.15 0 0 0 .89-2 9.94 9.94 0 0 0 .26-2.66c0-.67 1-.66 1 0a11.11 11.11 0 0 1-.52 3.71 3.5 3.5 0 0 1-1.42 2.09 2.23 2.23 0 0 1-2.59-.42C44 61 43.93 58.59 43.9 56.71a.52.52 0 0 1 1.03 0Zm6 11.39a6.27 6.27 0 0 1-5.09-.45 2 2 0 0 1-.81-2.13c.56-1.81 4.14-2.16 5.71-1.73A3.52 3.52 0 0 1 52.55 65c1.04 1.41-.44 2.67-1.65 3.1ZM132.89 51.43a33.3 33.3 0 0 1-1.06 4.41 33.3 33.3 0 0 0 1.06-4.41c.15-.89.27-1.79.36-2.69.06-.58.11-1.16.14-1.74 0 .58-.08 1.16-.14 1.74-.09.9-.25 1.8-.36 2.69ZM.94 66.07c.05.13.11.26.17.39-.06-.13-.11-.26-.17-.39ZM1.21 50.93l-.21.91ZM117.14 73.72ZM131 58Z" class="cls-1"/><path d="M.43 64.1a28 28 0 0 1-.29-5.93 37.4 37.4 0 0 1 .4-4 1.55 1.55 0 0 1 0 .21A33.64 33.64 0 0 0 0 60.24v1.2c0 .4 0 .8.1 1.2a14 14 0 0 0 .52 2.61c.09.27.18.55.28.82s.11.26.17.39a12.76 12.76 0 0 1-.64-2.36ZM127.52 23l.62.72a23.12 23.12 0 0 0-1.34-2 .53.53 0 0 1-.69 0 6.05 6.05 0 0 0-.72-.53 14.34 14.34 0 0 1 2.13 1.81ZM1.92 52.3a36 36 0 0 0-.77 6.7 20.19 20.19 0 0 0 .64 6.34c1 3.36 3.85 5.91 6.9 7.48 3.47 1.78 7.46 2 11.27 2.39q12.15 1.28 24.37 1.64a.5.5 0 0 1 .49.5h6.09a.5.5 0 0 1 .5-.53l15.09-.2 10.28-.13c0-2.75.11-5.51.23-8.25.43-9.73 1.76-19.67 6.4-28.38.31-.59 1.2-.07.89.52a44.41 44.41 0 0 0-3.09 7.36 57.19 57.19 0 0 0-1.52 5.89 69.53 69.53 0 0 1 3.43-10.43 56.41 56.41 0 0 1 3.44-6.92.51.51 0 0 1-.48-.76 47.24 47.24 0 0 1 6.1-7.91 30.14 30.14 0 0 1 15.13-8.91 34.58 34.58 0 0 1 10.55-.43c2.5.24 5.3.49 7.56 1.72a22 22 0 0 0-2.11-2.1 18.38 18.38 0 0 0-11.72-4.67.48.48 0 0 1-.49-.55c-1.76-.26-3.54-.45-5.28-.66l-1.61-.18-2.41-.23a199.74 199.74 0 0 0-21.88-.78.47.47 0 0 1-.5-.5c-1.69 0-3.37 0-5.06-.05a11.12 11.12 0 0 1 1 1.52 3.75 3.75 0 0 1 .51 1.21 148.24 148.24 0 0 0 14.9.38c2.71-.11 5.42-.38 8.13-.48a23.32 23.32 0 0 1 4.8.12c1.2.21 2.37 1 1.81 2.32-.64 1.56-2.41 2.14-3.86 2.7A33.94 33.94 0 0 0 96 21a30 30 0 0 0-5 3.95 43.55 43.55 0 0 0-7.42 10.2 69 69 0 0 0-5 11.67 83 83 0 0 0-3.14 14.35c-.19 1.32-.36 2.64-.52 4-.14 1.1-.23 2.22-.47 3.3a7.44 7.44 0 0 1-2.29 4.13 9.14 9.14 0 0 1-5.39 1.76 57.28 57.28 0 0 1-7.64.08c-2.6-.11-5.2-.32-7.8-.49s-5.2-.19-7.8-.21c-5.4 0-10.8-.25-16.19-.54-2.58-.15-5.15-.29-7.73-.48a40.74 40.74 0 0 1-5.43-.72c-3.47-.74-6.83-2.32-8.79-5.39-2.6-4.06-2.18-9-1-13.5C5 50.7 5.81 48.36 6.54 46a70.3 70.3 0 0 1 7.37-16.69 46.78 46.78 0 0 1 8.1-10 20 20 0 0 1 12.14-5.38c2.63-.25 5.25-.58 7.87-.86 2.46-.26 4.92-.47 7.39-.61.29-.56.59-1.12.91-1.67l-3.32.08h-.81a.49.49 0 0 1-.47.38c-5.24.24-10.49.44-15.72.87a15.56 15.56 0 0 0-5.94 1.58 20.92 20.92 0 0 0-4.64 3.35 51.52 51.52 0 0 0-7.53 9 60.48 60.48 0 0 0-9.1 21.89.49.49 0 0 1-.88.18q-.28 1.08-.54 2.16c-.06.22-.11.43-.16.65l-.21.91a.53.53 0 0 1 .92.46Z" class="cls-2"/><path d="M125.53 62.51a36.23 36.23 0 0 0 4.53-17.44 38.15 38.15 0 0 0-2.72-15.89 13.53 13.53 0 0 0-4.18-5.71 15.36 15.36 0 0 0-6.45-2.47 22.35 22.35 0 0 0-7.39 0 15.27 15.27 0 0 0-6.46 2.67 18 18 0 0 0-1.63 1.28 37.27 37.27 0 0 0-11.6 11.68 56.58 56.58 0 0 0-6.95 17.08A61.73 61.73 0 0 0 81 63.48a38.35 38.35 0 0 0-.11 4.79 10.22 10.22 0 0 0 .63 3.89c.85 1.85 2.91 2.52 4.78 2.75a36.55 36.55 0 0 0 6.1 0c3.61-.14 7.21-.34 10.8-.69 1.84-.18 3.66-.4 5.48-.68a42.44 42.44 0 0 0 4.63-.87 17.59 17.59 0 0 0 6.69-3.4 24.89 24.89 0 0 0 5.53-6.76Zm-17.77 9.42c-5.11.45-10.72.15-15.18-2.67s-6.75-7.75-7.4-12.85a28 28 0 0 1 3-16.13 25.59 25.59 0 0 1 11.09-11.09 21.18 21.18 0 0 1 16.21-1.4 16.32 16.32 0 0 1 10.34 10.63c1.62 5.59-.83 11.11-3.61 15.88-2.63 4.52-6.33 8.76-11.73 9.74a22.46 22.46 0 0 1-8.53-.17 10.85 10.85 0 0 1-6.6-3.81 12.76 12.76 0 0 1-2.16-7.58 23.9 23.9 0 0 1 1.29-8.22c1.76-4.95 5.76-9.38 11.13-10.31 4.91-.85 10.31 1.67 12 6.55a12.67 12.67 0 0 1-.37 8.52 11.27 11.27 0 0 1-5.36 6.1c-2.48 1.21-5.64 1.55-8.1.11s-3.38-4.55-2.87-7.3a9.65 9.65 0 0 1 4.55-6.69c2.16-1.1 5.26-.7 6.48 1.62a4.67 4.67 0 0 1-.18 4.24 5.83 5.83 0 0 1-2.88 2.9 2.81 2.81 0 0 1-3.43-1.15c-.77-1.45.27-2.87 1.35-3.78a1 1 0 0 1 1.45 0 1 1 0 0 1 0 1.46 3.3 3.3 0 0 0-1 1.08v.28a.39.39 0 0 0 .19.16.89.89 0 0 0 .86-.05 3.27 3.27 0 0 0 1.06-1 3.5 3.5 0 0 0 .85-3 1.83 1.83 0 0 0-.61-.84 2.52 2.52 0 0 0-1.1-.49 1.79 1.79 0 0 0-.63-.07h-.52a3.93 3.93 0 0 0-1.38.59 6.82 6.82 0 0 0-2.1 2.45c-1.12 2-1.59 4.54-.28 6.55s3.93 2.08 5.94 1.51c4.67-1.33 7.12-6.59 6.46-11.18a7.57 7.57 0 0 0-3.28-5.24 9.11 9.11 0 0 0-5.71-1.44c-4.54.31-8.27 3.82-10.08 7.86a20.18 20.18 0 0 0-1.62 7.22 13.78 13.78 0 0 0 1 6.73c2.13 4.31 7.79 4.88 12.06 4.59a12.31 12.31 0 0 0 6.64-2.41 19.32 19.32 0 0 0 4.43-5 39.9 39.9 0 0 0 3.46-6.48 15.48 15.48 0 0 0 1.36-7.35 13.78 13.78 0 0 0-7-10.2 17.92 17.92 0 0 0-14.25-.94A22.8 22.8 0 0 0 92 38a26.18 26.18 0 0 0-4.92 14.21c-.19 4.33.69 9 3.41 12.46 2.9 3.68 7.47 5.11 12 5.35a39.17 39.17 0 0 0 7.18-.32 19.82 19.82 0 0 0 7.24-2.23 19.9 19.9 0 0 0 5.43-5 21.86 21.86 0 0 0 3.84-6.83 29.23 29.23 0 0 0 1.11-8.11 62.68 62.68 0 0 0-.43-8.77 17.13 17.13 0 0 0-2.18-7.16A14.16 14.16 0 0 0 120 27c-4.38-2.67-9.79-3-14.74-1.91a1 1 0 1 1-.55-2 26.29 26.29 0 0 1 8.71-.46c5.27.68 10.34 3.38 13.13 8a20.56 20.56 0 0 1 2.45 8.48 61.43 61.43 0 0 1 .34 9.59 26 26 0 0 1-1.68 8.9 28.08 28.08 0 0 1-4.81 7.4 18.23 18.23 0 0 1-6.65 5.09 27.4 27.4 0 0 1-8.44 1.84Z" style="fill:#f3dcc9"/><path d="M131 58c.14-.31.26-.61.38-.92s.31-.85.45-1.28a33.3 33.3 0 0 0 1.06-4.41c.15-.89.27-1.79.36-2.69.06-.58.11-1.16.14-1.74v-.6A41.28 41.28 0 0 1 131 58ZM120.14 70.73A26.55 26.55 0 0 0 129.51 59a40.68 40.68 0 0 0 3-15.1 44 44 0 0 0-1.89-14.66 28.11 28.11 0 0 0-2.47-5.51l-.62-.72a14.34 14.34 0 0 0-2.13-1.86 10.7 10.7 0 0 0-3.84-1.36 45 45 0 0 0-5.54-.65 30.61 30.61 0 0 0-10.09 1 26.33 26.33 0 0 0-7.48 3.54A40.66 40.66 0 0 0 87 36a.47.47 0 0 1-.41.24 56.41 56.41 0 0 0-3.44 6.92 69.53 69.53 0 0 0-3.43 10.46C78.15 61.14 78 68.87 77.81 76.5l15.44-.2c4.39-.06 8.79-.08 13.18-.18 3.39-.08 7.17-.36 9.83-2.72a.54.54 0 0 1 .88.32c.59-.34 1.17-.71 1.74-1.1l.7-.49.61-.47a.55.55 0 0 1-.05-.93Zm-6.87 1.89a42.44 42.44 0 0 1-4.63.87c-1.82.28-3.64.5-5.48.68-3.59.35-7.19.55-10.8.69a36.55 36.55 0 0 1-6.1 0c-1.87-.23-3.93-.9-4.78-2.75a10.22 10.22 0 0 1-.63-3.89 38.35 38.35 0 0 1 .15-4.74 61.73 61.73 0 0 1 1.72-9.82 56.58 56.58 0 0 1 6.95-17.08 37.27 37.27 0 0 1 11.6-11.68 18 18 0 0 1 1.63-1.28 15.27 15.27 0 0 1 6.42-2.62 22.35 22.35 0 0 1 7.39 0 15.36 15.36 0 0 1 6.45 2.49 13.53 13.53 0 0 1 4.18 5.71 38.15 38.15 0 0 1 2.72 15.89 36.23 36.23 0 0 1-4.53 17.44 24.89 24.89 0 0 1-5.53 6.74 17.59 17.59 0 0 1-6.73 3.35Z" class="cls-4"/><path d="M61.31 5.21ZM49.41 12.42a25.24 25.24 0 0 0-1.74 4.26C47 19.12 47.07 22 49 23.94s5.39 2.42 8.05 2.6A32.27 32.27 0 0 0 65.4 26c2.65-.52 5.37-1.62 7.06-3.82a9 9 0 0 0 1.45-8.31c-.29-.3-.54-.63-.73-.82l-3-3.1A17.21 17.21 0 0 1 67 5.75a17 17 0 0 1-1.67-3.4c-.24-.19-.48-.38-.72-.55A8.14 8.14 0 0 0 61 .16a4.7 4.7 0 0 0-3.87 1.31 24.32 24.32 0 0 0-2.94 3.38q-1.41 1.83-2.64 3.78c-.43.69-.85 1.4-1.26 2.12-.29.55-.59 1.11-.88 1.67ZM50 21.2a.58.58 0 0 1-.11.15.49.49 0 0 1-.13.12l-.17.07a.25.25 0 0 1-.22-.06.21.21 0 0 1-.06-.21 1 1 0 0 1 .28-.53.33.33 0 0 1 .16-.07.24.24 0 0 1 .16.07v.05a.18.18 0 0 1 .09.08v.05a.21.21 0 0 1 0 .08.84.84 0 0 1 0 .2Zm.32-6.55a.19.19 0 0 1 0 .08.85.85 0 0 1-.1.19L50 15a.47.47 0 0 1-.13.15h-.12a.22.22 0 0 1-.22-.22.82.82 0 0 1 .09-.38.91.91 0 0 1 .11-.16.94.94 0 0 1 .1-.1.27.27 0 0 1 .1-.06h.09a.23.23 0 0 1 .17.11.76.76 0 0 1 .06.2s.03.09.03.11Zm3.79 6-.38.29a.14.14 0 0 1-.08.05.11.11 0 0 1-.08 0 .22.22 0 0 1-.2-.33 1.38 1.38 0 0 1 .17-.25.81.81 0 0 1 .1-.09.25.25 0 0 1 0-.07.32.32 0 0 1 .2-.08.27.27 0 0 1 .23.12.11.11 0 0 1 0 .05.21.21 0 0 1 .05.13.25.25 0 0 1-.05.21Zm.3-4-.09-.07v-.05a.29.29 0 0 1 0-.09.25.25 0 0 1 0-.17.43.43 0 0 1 .09-.16.73.73 0 0 1 .09-.08l.11-.05h.22a.09.09 0 0 1 .08 0 .23.23 0 0 1 .08.11.19.19 0 0 1 .06.16.27.27 0 0 1-.06.16l-.28.27a.25.25 0 0 1-.34.02Zm1.27 8.12a.24.24 0 0 1-.16.23 1.17 1.17 0 0 1-.49.05.27.27 0 0 1-.12 0 .12.12 0 0 1-.06-.06.21.21 0 0 1 0-.19.48.48 0 0 1 .12-.22.71.71 0 0 1 .22-.13.44.44 0 0 1 .2 0 .42.42 0 0 1 .24.07.26.26 0 0 1 .11.14.22.22 0 0 1-.1.16ZM59 21.89h-.07a.21.21 0 0 1-.09.25.7.7 0 0 1-.51.06.21.21 0 0 1-.14-.1.17.17 0 0 1 0-.17.85.85 0 0 1 .13-.25.73.73 0 0 1 .2-.19.88.88 0 0 1 .47-.18.23.23 0 0 1 .22.28.45.45 0 0 1-.21.3Zm2-4.82a.68.68 0 0 1-.28.25.35.35 0 0 1-.11 0 .24.24 0 0 1-.14-.05.1.1 0 0 1 0-.05.57.57 0 0 1-.13 0 .2.2 0 0 1-.14-.11.21.21 0 0 1 .08-.3h.16a.81.81 0 0 1 .19-.18s0 0 0-.05a.19.19 0 0 1 .16-.06.27.27 0 0 1 .16.06.19.19 0 0 1 .06.16.62.62 0 0 1-.01.33Zm3.21 6.43a.25.25 0 0 1 0 .17.22.22 0 0 1-.14.11l-.4.08a.24.24 0 0 1-.24-.08.23.23 0 0 1 0-.25v-.08c0-.03 0 0 0 0a.43.43 0 0 1 0-.16.22.22 0 0 1 .11-.14.2.2 0 0 1 .17 0 .23.23 0 0 1 .12.08.58.58 0 0 1 .19 0 .2.2 0 0 1 .08 0 .22.22 0 0 1 .09.12.48.48 0 0 1 0 .12v.05a.08.08 0 0 1 .02-.02Zm2.45-6-.09.08a.25.25 0 0 1-.16.28l-.49.14a.23.23 0 0 1-.22-.06.21.21 0 0 1-.11-.08.23.23 0 0 1 0-.24.54.54 0 0 1 .35-.26.34.34 0 0 1 .06-.06.9.9 0 0 1 .51-.2.22.22 0 0 1 .21.14.21.21 0 0 1-.06.29Zm4.16 2.33a2.09 2.09 0 0 1-.84.28.21.21 0 0 1-.19-.11.24.24 0 0 1 0-.23 1 1 0 0 1 .33-.38.87.87 0 0 1 .34-.15h.12a.26.26 0 0 1 .16.07.26.26 0 0 1 .06.13.14.14 0 0 1 .11.09.22.22 0 0 1-.09.33Zm1.51-4.66a.35.35 0 0 1-.11.13.45.45 0 0 1-.14.1l-.16.05h-.23a.1.1 0 0 1-.07 0 .13.13 0 0 1-.07-.06v-.06a.2.2 0 0 1 0-.11.3.3 0 0 1 0-.1.32.32 0 0 1 .1-.1l.06-.06a.69.69 0 0 1 .15-.07.54.54 0 0 1 .22 0s0 0 .08 0a.21.21 0 0 1 .1.14.15.15 0 0 1 .07.17Zm-4-2.43-.57.54a.22.22 0 0 1-.29 0 .21.21 0 0 1-.07-.28s0 0 0-.07a.19.19 0 0 1-.08-.17.53.53 0 0 1 .15-.35.54.54 0 0 1 .3-.17.25.25 0 0 1 .17 0 .22.22 0 0 1 .09.1.21.21 0 0 1 .25 0 .23.23 0 0 1 .02.43Zm-2.64-5.91a.27.27 0 0 1 .07-.08.69.69 0 0 1 .34-.17.22.22 0 0 1 .24.08.18.18 0 0 1 0 .1.22.22 0 0 1 0 .14l-.08.1a.24.24 0 0 1 0 .09.25.25 0 0 1 0 .08.29.29 0 0 1-.09.15.51.51 0 0 1-.16.09h-.11a.35.35 0 0 1-.18-.13.24.24 0 0 1-.08-.28.24.24 0 0 1 .05-.17Zm-3.62 3.75a.54.54 0 0 1-.17.38.76.76 0 0 1-.15.26 1 1 0 0 1-.34.22.22.22 0 0 1-.22 0 .26.26 0 0 1-.06-.22 1.09 1.09 0 0 1 .22-.49 1.07 1.07 0 0 1 .44-.31.23.23 0 0 1 .28.16Zm-.92-5.32.14-.1a.21.21 0 0 1 .24 0 .23.23 0 0 1 .09.23s0 0 0 .05a.71.71 0 0 1-.54.69.19.19 0 0 1-.19 0 .2.2 0 0 1-.09-.17.92.92 0 0 1 .35-.7ZM59.5 1.57v-.05a.36.36 0 0 1 0-.09l.07-.09a.3.3 0 0 1 .14-.11.45.45 0 0 1 .11 0 .24.24 0 0 1 .14.05s0 0 0 .06a.18.18 0 0 1 .14.06.24.24 0 0 1 .07.16v.05a.24.24 0 0 1-.06.11 1.59 1.59 0 0 1-.36.32.18.18 0 0 1-.16 0 .22.22 0 0 1-.14-.1.26.26 0 0 1 0-.08.23.23 0 0 1-.07-.1.25.25 0 0 1 .12-.19ZM55.69 6.1l.11-.1a.33.33 0 0 1 .1-.25.24.24 0 0 1 .16-.07.22.22 0 0 1 .15.06.16.16 0 0 1 .13.06.22.22 0 0 1 0 .29.29.29 0 0 1 0 .09.2.2 0 0 1-.07.16.7.7 0 0 1-.46.2H55.74a.22.22 0 0 1-.1-.11.24.24 0 0 1 .05-.33Zm-.89 4.2a.23.23 0 0 1 .14-.1.21.21 0 0 1 .17 0l.08-.07h.09a.21.21 0 0 1 .1 0 .31.31 0 0 1 .1.05.2.2 0 0 1 .06.16.23.23 0 0 1-.06.16l-.35.36a.24.24 0 0 1-.27 0 .34.34 0 0 1-.08-.09.25.25 0 0 1 0-.17.31.31 0 0 1 .02-.3Z" class="cls-5"/><path d="M70.79 19.47a.26.26 0 0 0-.06-.13.26.26 0 0 0-.16-.07h-.12a.87.87 0 0 0-.34.15 1 1 0 0 0-.33.38.24.24 0 0 0 0 .23.21.21 0 0 0 .19.11 2.09 2.09 0 0 0 .84-.28.22.22 0 0 0 .08-.3.14.14 0 0 0-.1-.09ZM68 12.41a.22.22 0 0 0-.09-.1.25.25 0 0 0-.17 0 .54.54 0 0 0-.3.17.53.53 0 0 0-.15.35.19.19 0 0 0 .08.17s0 0 0 .07a.21.21 0 0 0 .07.28.22.22 0 0 0 .29 0l.57-.54a.23.23 0 0 0 0-.32.21.21 0 0 0-.3-.08ZM66.49 17.15a.9.9 0 0 0-.51.2.34.34 0 0 0-.06.06.54.54 0 0 0-.35.26.23.23 0 0 0 0 .24.21.21 0 0 0 .11.08.23.23 0 0 0 .22.06l.49-.14a.25.25 0 0 0 .16-.28l.09-.08a.21.21 0 0 0 0-.24.22.22 0 0 0-.15-.16ZM64.22 23.29a.22.22 0 0 0-.09-.12.2.2 0 0 0-.08 0 .58.58 0 0 0-.19 0 .23.23 0 0 0-.12-.08.2.2 0 0 0-.17 0 .22.22 0 0 0-.11.14.43.43 0 0 0 0 .16v.08a.23.23 0 0 0 0 .25.24.24 0 0 0 .24.08l.4-.08a.22.22 0 0 0 .14-.11.25.25 0 0 0 0-.17v-.05a.48.48 0 0 0-.02-.1ZM60.88 16.5a.19.19 0 0 0-.16.06s0 0 0 .05a.81.81 0 0 0-.19.18h-.16a.21.21 0 0 0-.08.3.2.2 0 0 0 .14.11.57.57 0 0 0 .13 0 .1.1 0 0 0 0 .05.24.24 0 0 0 .14.05.35.35 0 0 0 .11 0 .68.68 0 0 0 .28-.25.62.62 0 0 0 .1-.35.19.19 0 0 0-.06-.16.27.27 0 0 0-.25-.04ZM61.35 10.68a1.09 1.09 0 0 0-.22.49.26.26 0 0 0 .06.22.22.22 0 0 0 .22 0 1 1 0 0 0 .34-.22.76.76 0 0 0 .15-.17.54.54 0 0 0 .17-.38.23.23 0 0 0-.28-.21 1.07 1.07 0 0 0-.44.27ZM61.14 6.13a.71.71 0 0 0 .54-.69s0 0 0-.05a.23.23 0 0 0-.09-.23.21.21 0 0 0-.24 0l-.14.1a.92.92 0 0 0-.29.66.2.2 0 0 0 .09.17.19.19 0 0 0 .13.04Zm.13-.91ZM55.74 6.45h.11a.7.7 0 0 0 .46-.2.2.2 0 0 0 .07-.16.29.29 0 0 0 0-.09.22.22 0 0 0 0-.29.16.16 0 0 0-.13-.06.22.22 0 0 0-.15-.06.24.24 0 0 0-.16.07.33.33 0 0 0-.1.25V6l-.11.12a.24.24 0 0 0 0 .24.22.22 0 0 0 .01.09ZM54.81 10.61a.25.25 0 0 0 0 .17.34.34 0 0 0 .08.09.24.24 0 0 0 .27 0l.35-.36a.23.23 0 0 0 .06-.16.2.2 0 0 0-.06-.16.31.31 0 0 0-.1-.05.21.21 0 0 0-.1 0h-.09l-.08.07a.21.21 0 0 0-.17 0 .23.23 0 0 0-.14.1.31.31 0 0 0-.02.3ZM58.94 21.34a.88.88 0 0 0-.47.18.73.73 0 0 0-.2.19.85.85 0 0 0-.13.25.17.17 0 0 0 0 .17.21.21 0 0 0 .14.1.7.7 0 0 0 .51-.06.21.21 0 0 0 .09-.25s.05 0 .07 0a.45.45 0 0 0 .19-.27.23.23 0 0 0-.2-.31ZM55 16.22a.19.19 0 0 0-.06-.16.23.23 0 0 0-.08-.11.09.09 0 0 0-.08 0h-.22l-.11.05a.73.73 0 0 0-.09.08.43.43 0 0 0-.09.16.25.25 0 0 0 0 .17.29.29 0 0 0 0 .09v.05l.09.07a.25.25 0 0 0 .25-.05l.28-.27a.27.27 0 0 0 .11-.08ZM50.06 14.26H50a.27.27 0 0 0-.1.06.94.94 0 0 0-.1.1.91.91 0 0 0-.11.16.82.82 0 0 0-.09.38.22.22 0 0 0 .22.22h.12A.47.47 0 0 0 50 15h.09a.85.85 0 0 0 .1-.19.19.19 0 0 0 0-.08v-.08a.76.76 0 0 0-.06-.2.23.23 0 0 0-.07-.19ZM54.07 20.34a.27.27 0 0 0-.23-.12.32.32 0 0 0-.2.08.25.25 0 0 0 0 .07.81.81 0 0 0-.1.09 1.38 1.38 0 0 0-.17.25.22.22 0 0 0 .2.33.11.11 0 0 0 .08 0 .14.14 0 0 0 .08-.05l.38-.29a.25.25 0 0 0 .06-.16.21.21 0 0 0-.05-.13.11.11 0 0 0-.05-.07ZM55.55 24.52a.42.42 0 0 0-.24-.07.44.44 0 0 0-.2 0 .71.71 0 0 0-.22.13.48.48 0 0 0-.12.22.21.21 0 0 0 0 .19.12.12 0 0 0 .06.06.27.27 0 0 0 .12 0 1.17 1.17 0 0 0 .49-.05.24.24 0 0 0 .16-.23.22.22 0 0 0 0-.16.26.26 0 0 0-.05-.09ZM50 20.87a.18.18 0 0 0-.09-.08v-.05a.24.24 0 0 0-.16-.07.33.33 0 0 0-.16.07 1 1 0 0 0-.28.53.21.21 0 0 0 .06.21.25.25 0 0 0 .22.06l.17-.07a.49.49 0 0 0 .13-.12.58.58 0 0 0 .11-.15.84.84 0 0 0 0-.2.21.21 0 0 0 0-.11ZM65.72 7.2a.35.35 0 0 0 .18.13h.17a.51.51 0 0 0 .16-.09.29.29 0 0 0 .09-.15.25.25 0 0 0 0-.08.24.24 0 0 0 0-.09l.08-.1a.22.22 0 0 0 0-.14.18.18 0 0 0 0-.1.22.22 0 0 0-.24-.08.69.69 0 0 0-.34.17.27.27 0 0 0-.07.08.24.24 0 0 0 0 .13.24.24 0 0 0 .08.24ZM72.25 14.9h-.08a.54.54 0 0 0-.22 0 .69.69 0 0 0-.15.07l-.06.06a.32.32 0 0 0-.1.1.3.3 0 0 0 0 .1.2.2 0 0 0 0 .11v.06a.13.13 0 0 0 .07.06.1.1 0 0 0 .07 0h.23l.16-.05a.45.45 0 0 0 .14-.1.35.35 0 0 0 .11-.13.15.15 0 0 0 0-.16.21.21 0 0 0-.17-.12ZM59.55 1.84a.26.26 0 0 0 0 .08.22.22 0 0 0 .14.1.18.18 0 0 0 .16 0 1.59 1.59 0 0 0 .36-.32.24.24 0 0 0 .06-.11v-.07a.24.24 0 0 0-.07-.16.18.18 0 0 0-.14-.06s0-.05 0-.06a.24.24 0 0 0-.14-.05.45.45 0 0 0-.11 0 .3.3 0 0 0-.14.11l-.07.09a.36.36 0 0 0 0 .09v.05a.25.25 0 0 0 0 .17.23.23 0 0 0-.05.14Z" class="cls-6"/><path d="m70.18 10 3 3.1c.19.19.44.52.73.82.48.5 1.06.91 1.6.44a1.38 1.38 0 0 0 .36-1.36 3.75 3.75 0 0 0-.46-1.23 11.12 11.12 0 0 0-1-1.52l-.29-.34a8 8 0 0 0 2 .16.45.45 0 0 0 .38-.68 3.27 3.27 0 0 0-2-1.25l-1.81-.69a5.25 5.25 0 0 0 1.21-.89c.41-.42 1.13-1.2.92-1.84-.33-1.05-1.8-.54-3 .07a6.6 6.6 0 0 0 0-3.91c-.09-.29-.54-.48-.75-.2a13.67 13.67 0 0 0-1.33 2.18 7.4 7.4 0 0 0-.41-1.11C69.07 1.21 68.6.14 67.9 0s-.89.58-.82 1.11l.12.76A7 7 0 0 0 65.91.62a.45.45 0 0 0-.76.32 5.17 5.17 0 0 0 .21 1.41A17 17 0 0 0 67 5.75 17.21 17.21 0 0 0 70.18 10Z" style="fill:#c3d8a8"/><path d="M28.48 56.92a10 10 0 0 1-.28 2.72 4.13 4.13 0 0 1-.88 2 1.12 1.12 0 0 1-1.58 0 3.74 3.74 0 0 1-1.1-2 13.18 13.18 0 0 1-.28-2.87.52.52 0 0 0-1 0c0 1.88.13 4.25 1.65 5.59a2.24 2.24 0 0 0 2.6.42A3.54 3.54 0 0 0 29 60.63a11.1 11.1 0 0 0 .51-3.71c-.02-.66-1.05-.67-1.03 0ZM45.55 62.3a2.23 2.23 0 0 0 2.59.42 3.5 3.5 0 0 0 1.42-2.09 11.11 11.11 0 0 0 .52-3.71c0-.66-1.06-.67-1 0a9.94 9.94 0 0 1-.27 2.72 4.15 4.15 0 0 1-.89 2 1.11 1.11 0 0 1-1.57 0 3.74 3.74 0 0 1-1.1-2 13.18 13.18 0 0 1-.28-2.87.52.52 0 0 0-1 0c-.04 1.82.03 4.23 1.58 5.53ZM37.82 61.27a.53.53 0 0 0-.37.17 1.08 1.08 0 0 0-.17.43.44.44 0 0 1-.53.3l-.13-.07a.42.42 0 0 1-.09-.14 2 2 0 0 1-.1-.32.51.51 0 1 0-1 .28 1.7 1.7 0 0 0 .48.94 1.51 1.51 0 0 0 1 .36 1.47 1.47 0 0 0 1-.43 1.62 1.62 0 0 0 .43-1 .51.51 0 0 0-.52-.52Z" class="cls-8"/><path d="M27.18 63.79c-1.57-.43-5.16-.08-5.72 1.73a2 2 0 0 0 .82 2.13 6.27 6.27 0 0 0 5.09.45c1.21-.43 2.68-1.69 1.64-3.14a3.49 3.49 0 0 0-1.83-1.17ZM50.71 63.79c-1.57-.43-5.15-.08-5.71 1.73a2 2 0 0 0 .81 2.13 6.27 6.27 0 0 0 5.09.45c1.21-.43 2.69-1.69 1.65-3.14a3.52 3.52 0 0 0-1.84-1.17Z" class="cls-9"/><path d="M122.85 65a28.08 28.08 0 0 0 4.76-7.38 26 26 0 0 0 1.68-8.9 61.43 61.43 0 0 0-.34-9.59 20.56 20.56 0 0 0-2.38-8.41c-2.79-4.65-7.86-7.35-13.13-8a26.29 26.29 0 0 0-8.71.46 1 1 0 1 0 .55 2c5-1.05 10.36-.76 14.74 1.91a14.16 14.16 0 0 1 4.64 4.5 17.13 17.13 0 0 1 2.18 7.16 62.68 62.68 0 0 1 .43 8.77 29.23 29.23 0 0 1-1.11 8.11 21.86 21.86 0 0 1-3.84 6.83 19.9 19.9 0 0 1-5.43 5 19.82 19.82 0 0 1-7.24 2.23 39.17 39.17 0 0 1-7.18.32c-4.52-.24-9.09-1.67-12-5.35-2.72-3.46-3.6-8.13-3.41-12.46A26.18 26.18 0 0 1 92 38a22.8 22.8 0 0 1 11-8.11 17.92 17.92 0 0 1 14.22.95 13.78 13.78 0 0 1 7 10.2 15.48 15.48 0 0 1-1.34 7.37 39.9 39.9 0 0 1-3.46 6.48 19.32 19.32 0 0 1-4.43 5 12.31 12.31 0 0 1-6.68 2.41c-4.27.29-9.93-.28-12.06-4.59a13.78 13.78 0 0 1-1-6.73 20.18 20.18 0 0 1 1.62-7.22c1.81-4 5.54-7.55 10.08-7.86a9.11 9.11 0 0 1 5.74 1.56 7.57 7.57 0 0 1 3.31 5.18c.66 4.59-1.79 9.85-6.46 11.18-2 .57-4.69.39-5.94-1.51s-.84-4.53.28-6.55a6.82 6.82 0 0 1 2.1-2.45 3.93 3.93 0 0 1 1.38-.59h.52a1.79 1.79 0 0 1 .63.07 2.52 2.52 0 0 1 1.1.49 1.83 1.83 0 0 1 .61.84 3.5 3.5 0 0 1-.85 3 3.27 3.27 0 0 1-1.06 1 .89.89 0 0 1-.86.05.39.39 0 0 1-.19-.16s0-.1 0-.06v-.22a3.3 3.3 0 0 1 1-1.08 1 1 0 0 0 0-1.46 1 1 0 0 0-1.45 0c-1.08.91-2.12 2.33-1.35 3.78a2.81 2.81 0 0 0 3.42 1.03 5.83 5.83 0 0 0 2.88-2.91 4.67 4.67 0 0 0 .18-4.24c-1.22-2.32-4.32-2.72-6.48-1.62a9.65 9.65 0 0 0-4.55 6.69c-.51 2.75.34 5.82 2.87 7.3s5.62 1.1 8.1-.11a11.27 11.27 0 0 0 5.36-6.1 12.67 12.67 0 0 0 .37-8.52c-1.69-4.88-7.09-7.4-12-6.55-5.37.93-9.37 5.36-11.13 10.31a23.9 23.9 0 0 0-1.29 8.22 12.76 12.76 0 0 0 2.16 7.58 10.85 10.85 0 0 0 6.6 3.81 22.46 22.46 0 0 0 8.53.17c5.4-1 9.1-5.22 11.73-9.74 2.78-4.77 5.23-10.29 3.61-15.88a16.32 16.32 0 0 0-10.34-10.63 21.18 21.18 0 0 0-16.21 1.4 25.59 25.59 0 0 0-11.13 11.1 28 28 0 0 0-3 16.13c.65 5.1 2.94 10 7.4 12.85s10.07 3.12 15.18 2.67a27.4 27.4 0 0 0 8.44-1.86 18.23 18.23 0 0 0 6.69-5.07Z" style="fill:#faf3ed"/><path d="M2.79 47.94A60.48 60.48 0 0 1 11.9 26.1a51.52 51.52 0 0 1 7.53-9 20.92 20.92 0 0 1 4.64-3.35A15.56 15.56 0 0 1 30 12.16c5.23-.43 10.48-.63 15.72-.87a.49.49 0 0 0 .47-.38.48.48 0 0 0-.47-.65q-7.15.32-14.32.77a20.29 20.29 0 0 0-6.47 1.19 19 19 0 0 0-5 3 46.3 46.3 0 0 0-8 8.91A61.72 61.72 0 0 0 6 34.65a60.81 60.81 0 0 0-4.17 13 .5.5 0 0 0 .11.45.49.49 0 0 0 .85-.16ZM44.33 76.85Q32.12 76.49 20 75.21c-3.81-.41-7.8-.61-11.27-2.39-3-1.57-5.88-4.12-6.9-7.48A20.19 20.19 0 0 1 1.15 59a36 36 0 0 1 .77-6.7.53.53 0 0 0-.92-.46.47.47 0 0 0-.07.16c-.16.72-.28 1.45-.39 2.18a37.4 37.4 0 0 0-.4 4 28 28 0 0 0 .29 5.92 12.76 12.76 0 0 0 .68 2.36 10.84 10.84 0 0 0 1.51 2.69 16 16 0 0 0 3.89 3.58 17.49 17.49 0 0 0 5 2.27 38.55 38.55 0 0 0 6 1q6.27.71 12.58 1.18 7.16.52 14.33.74a.47.47 0 0 0 .49-.53.5.5 0 0 0-.58-.54ZM116.26 73.4c-2.66 2.36-6.44 2.64-9.83 2.72-4.39.1-8.79.12-13.18.18l-15.44.2c.15-7.63.34-15.36 1.88-22.84a57.19 57.19 0 0 1 1.52-5.89 44.41 44.41 0 0 1 3.09-7.36c.31-.59-.58-1.11-.89-.52-4.64 8.71-6 18.65-6.4 28.38-.12 2.74-.18 5.5-.23 8.25l-10.28.13-15.09.2a.5.5 0 0 0-.5.53.49.49 0 0 0 .5.5l25.75-.34a.49.49 0 0 0 .24 0h1.28c9-.12 18.1-.21 27.15-.35 3.87-.07 8.12-.34 11.15-3a.45.45 0 0 0 .16-.41.54.54 0 0 0-.88-.38ZM133.42 46.4v-.58a47.59 47.59 0 0 0-1.41-15.36 27.1 27.1 0 0 0-7-12.41 20.24 20.24 0 0 0-11.73-5.76c-.56-.06-1.12-.09-1.69-.1a.48.48 0 0 0-.49.48.48.48 0 0 0 .49.55 18.38 18.38 0 0 1 11.72 4.67 22 22 0 0 1 2.11 2.1c-2.26-1.23-5.06-1.48-7.56-1.72a34.58 34.58 0 0 0-10.55.43 30.14 30.14 0 0 0-15.13 8.91 47.24 47.24 0 0 0-6.1 7.91.51.51 0 0 0 .48.76A.47.47 0 0 0 87 36a40.66 40.66 0 0 1 11.44-12.35 26.33 26.33 0 0 1 7.48-3.54 30.61 30.61 0 0 1 10.09-1 45 45 0 0 1 5.54.65 10.7 10.7 0 0 1 3.84 1.36 6.05 6.05 0 0 1 .72.53.53.53 0 0 0 .69 0 23.12 23.12 0 0 1 1.34 2 28.11 28.11 0 0 1 2.47 5.51 44 44 0 0 1 1.89 14.66 40.68 40.68 0 0 1-3 15.1 26.55 26.55 0 0 1-9.37 11.72.55.55 0 0 0 0 .93.43.43 0 0 0 .47 0 27.11 27.11 0 0 0 9-10.53A31.53 31.53 0 0 0 131 58a41.28 41.28 0 0 0 2.42-11.6ZM79.92 10.82a199.74 199.74 0 0 1 21.88.78l2.41.23c1.26.13 2.52.27 3.77.42.66.08.65-.95 0-1a199.22 199.22 0 0 0-21.84-1.48h-6.22a.51.51 0 0 0-.5.53.47.47 0 0 0 .5.52Z" class="cls-11"/></g></g></svg>