<svg xmlns="http://www.w3.org/2000/svg" viewBox="0 0 105.9 104.73"><defs><style>.cls-1{fill:#fcf7f8}.cls-2{fill:#f8eced}.cls-4{fill:#d06968}.cls-5{fill:#db9497}.cls-6{fill:#d2a7ad}.cls-7{fill:#7b3637}.cls-8{fill:#da9092}</style></defs><g id="Capa_2" data-name="Capa 2"><g id="Capa_3" data-name="Capa 3"><path d="M105.84 73.41a77.56 77.56 0 0 0-1.46-11.14 111.5 111.5 0 0 0-3-11.81 112.36 112.36 0 0 0-9.61-22.24A63.47 63.47 0 0 0 85 18.3a63.08 63.08 0 0 0-8.9-8.3 63 63 0 0 0-9.86-6.82A27.36 27.36 0 0 0 54.53 0a26.05 26.05 0 0 0-3.06.07.71.71 0 0 0-.56 1c-.79.08-1.57.19-2.35.34q-.69.14-1.38.3a.59.59 0 0 0-.8-.63 52.13 52.13 0 0 0-16.3 10.13A77.11 77.11 0 0 0 17.58 26 118.42 118.42 0 0 0 7.39 45.15C5.88 48.7 4.51 52.31 3.32 56A69.78 69.78 0 0 0 .48 67.35C-.58 74.42 0 82 3.71 88.23a22.17 22.17 0 0 0 1.45 2.13.8.8 0 0 0 .51.32 25.64 25.64 0 0 0 3.52 4.26l.58.55c.52.46 1.05.9 1.6 1.31a24.12 24.12 0 0 0 2.7 1.77 34.57 34.57 0 0 0 10.81 4.63A68.1 68.1 0 0 0 43 104.68c6.38-.15 12.76-.48 19.14-.73l2.06-.08c1.81 0 3.61-.08 5.42-.16s3.42-.14 5.13-.25c2.15-.08 4.29-.16 6.43-.29 5.59-.36 11.43-1.39 15.84-5.11a13.75 13.75 0 0 0 1.4-1.35.66.66 0 0 0 .07-.83c.25-.24.51-.49.75-.75s.55-.6.81-.92A.68.68 0 0 0 101 94c4.13-6 5.19-13.45 4.84-20.59Z" class="cls-1"/><path d="M69.63 103.71c-1.81.08-3.61.13-5.42.16 1.81 0 3.61-.08 5.42-.16s3.42-.14 5.13-.25c-1.71.11-3.43.18-5.13.25ZM103.1 71.26a70.35 70.35 0 0 0-2.62-14 130.93 130.93 0 0 0-6-15.92C93.32 38.7 92.13 36 91 33.3a61.68 61.68 0 0 0-3.52-7.16 48.42 48.42 0 0 0-4.56-6.63 58 58 0 0 0-4.77-5A56.35 56.35 0 0 0 66.7 5.85c-3.92-2.16-8.37-3.79-12.91-3.55a25 25 0 0 0-5.65 1.1c-4.73 1-8.86 3.83-12.39 7a58.46 58.46 0 0 0-9.88 11.74A79.68 79.68 0 0 0 19.11 36c-1 2.49-1.85 5-2.84 7.48s-2.11 5.22-3.12 7.85a66.1 66.1 0 0 0-4.34 15.89 35.74 35.74 0 0 0 1.58 15 31 31 0 0 0 7 12.14 21.75 21.75 0 0 0 5.76 4.32 28 28 0 0 0 7.18 2.41 56.1 56.1 0 0 0 7.42.91c2.8.18 5.6.32 8.41.39 6 .15 12 0 18-.3 3-.15 5.93-.36 8.89-.6 2.62-.22 5.25-.4 7.86-.77A29.74 29.74 0 0 0 93.7 96.1a21.25 21.25 0 0 0 7.89-10.8 35.9 35.9 0 0 0 1.51-14.04ZM74.6 99.82c-2.6-.14-5.21-1-7.78-1h-3.6c-7.42.23-14.93 1.59-22.28-.16a21.6 21.6 0 0 1-9-4.42 20.63 20.63 0 0 1-5.34-7.3 27 27 0 0 1-2.25-9.22 36.79 36.79 0 0 1 1.09-11 54.66 54.66 0 0 1 1.77-5.89 80 80 0 0 1 3.06-8C31.13 50.85 32 48.92 33 47l.41-1a94.89 94.89 0 0 0 3.48-9.7c.87-2.92 1.65-5.86 2.57-8.76 1.82-5.79 4.26-11.58 8.76-15.83a1.15 1.15 0 0 1 .26-.19 16.26 16.26 0 0 1 1.29-1.07 13.94 13.94 0 0 1 6.75-2.62c4.92-.59 9.88 1.36 13.68 4.4s6.7 7.46 9 11.86c.93 1.81 1.81 3.66 2.62 5.52.57 1.14 1.14 2.28 1.72 3.42 2.59 5.16 5.14 10.35 7.51 15.62a87.86 87.86 0 0 1 5.39 13.69c.2.76.38 1.54.52 2.34 2.8 15.32-3.9 36.15-22.36 35.14ZM98.5 95.88ZM9.77 95.49a25.41 25.41 0 0 1-4.1-4.81 25.41 25.41 0 0 0 4.1 4.81 24 24 0 0 0 4.3 3.08 24 24 0 0 1-4.3-3.08ZM48.56 1.46q-.69.14-1.38.3.69-.17 1.38-.3Z" class="cls-1"/><path d="m74.76 103.46-3 .11-7.51.3c1.81 0 3.61-.08 5.42-.16s3.38-.14 5.09-.25ZM99.82 93.33a21.93 21.93 0 0 0 1.37-2.21c3.39-6.2 3.77-13.56 3.12-20.45a87 87 0 0 0-1.86-11.11 114.49 114.49 0 0 0-3.22-11.49 106.92 106.92 0 0 0-10-21.49 55.67 55.67 0 0 0-7.11-9.4 78.06 78.06 0 0 0-9-7.79 43.43 43.43 0 0 0-10-6.19 25.91 25.91 0 0 0-11.65-1.78.54.54 0 0 1-.56-.3c-.79.08-1.57.19-2.35.34q-.69.14-1.38.3a.68.68 0 0 1-.44.66c-.72.27-1.43.55-2.13.86a52.65 52.65 0 0 0-15.39 10.61 80.3 80.3 0 0 0-11.81 14.86A122.37 122.37 0 0 0 7.66 48C6.23 51.49 5 55.08 3.85 58.73A58 58 0 0 0 1.48 70C.84 76.88 2 84.11 6.31 89.69a.67.67 0 0 1-.24.91.58.58 0 0 1-.4.08 25.41 25.41 0 0 0 4.1 4.81 24 24 0 0 0 4.3 3.08 28 28 0 0 1-3.4-2.66c-.63-.58.31-1.52.94-.94s1 .86 1.48 1.27a33.2 33.2 0 0 0 14.27 6.15c6 1.17 12.13 1.1 18.19.88 6.25-.22 12.5-.49 18.75-.74l9.41-.37c3.08-.12 6.17-.18 9.24-.46 5.28-.48 10.84-1.88 14.54-5.94a.63.63 0 0 1 1 .12c.25-.24.51-.49.75-.75s.55-.6.81-.92a.58.58 0 0 1-.23-.88Zm-6.08 2.82A29.74 29.74 0 0 1 81 100.77c-2.61.37-5.24.55-7.86.77-3 .24-5.92.45-8.89.6-6 .32-12 .45-18 .3-2.81-.07-5.61-.21-8.41-.39a56.1 56.1 0 0 1-7.42-.91 28 28 0 0 1-7.18-2.41 21.75 21.75 0 0 1-5.76-4.32 31 31 0 0 1-7-12.14 35.74 35.74 0 0 1-1.58-15 66.1 66.1 0 0 1 4.34-15.84c1-2.63 2.09-5.23 3.12-7.85s1.88-5 2.84-7.48a79.68 79.68 0 0 1 6.76-13.86 58.46 58.46 0 0 1 9.88-11.74c3.53-3.22 7.66-6 12.39-7a25 25 0 0 1 5.65-1.1c4.54-.24 9 1.39 12.91 3.55a56.35 56.35 0 0 1 11.45 8.64 58 58 0 0 1 4.77 5 48.42 48.42 0 0 1 4.56 6.63A61.68 61.68 0 0 1 91 33.3c1.13 2.71 2.32 5.4 3.49 8.09a130.93 130.93 0 0 1 6 15.92 70.35 70.35 0 0 1 2.62 14 35.9 35.9 0 0 1-1.47 14.09 21.25 21.25 0 0 1-7.9 10.75Z" class="cls-2"/><path d="M96.38 62.38A87.86 87.86 0 0 0 91 48.69c-2.37-5.27-4.92-10.46-7.51-15.62-.58-1.14-1.15-2.28-1.72-3.42-.81-1.86-1.69-3.71-2.62-5.52-2.27-4.4-5.06-8.73-9-11.86s-8.76-5-13.68-4.4a13.94 13.94 0 0 0-6.75 2.62 16.26 16.26 0 0 0-1.29 1.07 1.15 1.15 0 0 0-.26.19c-4.5 4.25-6.94 10-8.76 15.83-.92 2.9-1.7 5.84-2.57 8.76A94.89 94.89 0 0 1 33.38 46L33 47c-.93 1.92-1.84 3.85-2.69 5.8a80 80 0 0 0-3.06 8 54.66 54.66 0 0 0-1.77 5.89 36.79 36.79 0 0 0-1.09 11 27 27 0 0 0 2.25 9.22 20.63 20.63 0 0 0 5.36 7.3 21.6 21.6 0 0 0 9 4.42c7.35 1.75 14.86.39 22.28.16h3.6c2.57 0 5.18.91 7.78 1 18.46 1 25.16-19.81 22.3-35.1-.2-.77-.38-1.55-.58-2.31Zm-3 13.27a23.4 23.4 0 0 1-.82 5.45 19.43 19.43 0 0 1-2.76 5.77c-.36.52-.75 1-1.16 1.51a21 21 0 0 1-10.5 6.72 20.24 20.24 0 0 1-2.19.45c-.4.06-.8.1-1.2.13a73.11 73.11 0 0 1-7.75-.17h-3.38l-2.07.07a58.39 58.39 0 0 1-9.26-.14l-.93-.13c-.86-.13-1.71-.31-2.54-.52a28.48 28.48 0 0 1-6.67-2.59 23.63 23.63 0 0 1-3.3-2.15 19.16 19.16 0 0 1-2.12-1.9A15.35 15.35 0 0 1 34 84.1a15.86 15.86 0 0 1-1.43-6 23 23 0 0 1 0-2.49 24.38 24.38 0 0 1 .43-3.34 54.36 54.36 0 0 1 1.49-5.74c.25-.81.52-1.62.79-2.42 1-3 2.11-6 3-9 .28-.92.54-1.84.77-2.77.17-.71.33-1.42.47-2.13.41-2.1.75-4.22 1.07-6.33.13-.81.25-1.61.37-2.41.35-2.27.71-4.53 1.15-6.78.18-.88.36-1.75.56-2.6s.45-1.79.72-2.67A20.77 20.77 0 0 1 47 22.34 17.75 17.75 0 0 1 48.27 21l.55-.51a19.83 19.83 0 0 1 8-4.46 16.51 16.51 0 0 1 2.5-.5 13.87 13.87 0 0 1 7.12.87 13.68 13.68 0 0 1 1.9 1l.44.3a17.66 17.66 0 0 1 3.88 3.84c.52.67 1 1.35 1.49 2.05s.89 1.37 1.31 2.08c1.3 2.15 2.45 4.4 3.59 6.64l.17.33 1.18 2.33c1.48 2.91 2.94 5.83 4.32 8.79.39.84.78 1.69 1.16 2.53A114.5 114.5 0 0 1 90.06 57c.32 1 .63 2 .91 2.94a67.62 67.62 0 0 1 1.82 8 43.71 43.71 0 0 1 .56 5.24c.04.82.05 1.63.01 2.47Z" style="fill:#6f3d35"/><path d="M89.55 74.59a.89.89 0 0 1-.37-1.11 1 1 0 0 1 .22-.3s0-.06 0-.08a.89.89 0 0 1 .89-.89 9.65 9.65 0 0 1 2.53.67l.54.25a43.71 43.71 0 0 0-.56-5.24 67.62 67.62 0 0 0-1.82-8l-.26.07a10.1 10.1 0 0 1-3.1.26A.93.93 0 0 1 87 60h-.35a.89.89 0 0 1-.45-1.65 9.54 9.54 0 0 1 2.69-.88 6 6 0 0 1 1.17-.47 114.5 114.5 0 0 0-4.21-10.75 10.65 10.65 0 0 1-.86.64 9 9 0 0 1-1.68.81 2.47 2.47 0 0 1-2.09 0 .88.88 0 0 1-.07-1.47.93.93 0 0 1 .44-.72c.84-.52 1.7-1 2.56-1.52l.54-.3c-1.38-3-2.84-5.88-4.32-8.79A11.46 11.46 0 0 1 77 37.21a.94.94 0 0 1-1-.14.91.91 0 0 1-.18-1.07 7.53 7.53 0 0 1 .81-1.05 11.26 11.26 0 0 1 2.54-2.33l-.17-.37c-1.14-2.24-2.29-4.49-3.59-6.64-.25.27-.51.54-.78.79a15.44 15.44 0 0 1-3.1 2.29.91.91 0 0 1-1.07-.14.92.92 0 0 1-.14-1.08 6.43 6.43 0 0 1 1.8-2.12l.41-.34a14.69 14.69 0 0 1 1.57-1.48c-.47-.7-1-1.38-1.49-2.05a17.66 17.66 0 0 0-3.88-3.84 21.53 21.53 0 0 1-2.24 4 .89.89 0 0 1-1.6-.64 13 13 0 0 1 .6-1.95.7.7 0 0 1 0-.53 19 19 0 0 1 .94-2.12 13.87 13.87 0 0 0-7.12-.87 14.39 14.39 0 0 1 .41 1.63c.25 1.32.46 2.86-.34 4.05a.91.91 0 0 1-1.65-.21c-.13-.44-.25-.9-.35-1.35a1.43 1.43 0 0 1-.08-.22 18.51 18.51 0 0 1-.51-3.43 19.83 19.83 0 0 0-8 4.46c.45.53.89 1.06 1.32 1.61.24.3.48.61.71.92a4 4 0 0 1 .44.66 1.49 1.49 0 0 1-.43 2 .91.91 0 0 1-1.07-.14l-.35-.32a1 1 0 0 1-.94-.43A15 15 0 0 1 47 22.34a20.77 20.77 0 0 0-3.65 7.1l.29.23a5.33 5.33 0 0 1 1.91.94l1.58.76a2 2 0 0 1 1.16 1.36.9.9 0 0 1-1.09 1.09 11.2 11.2 0 0 1-2.44-.7 10.94 10.94 0 0 1-2.13-1c-.2.85-.38 1.72-.56 2.6-.44 2.25-.8 4.51-1.15 6.78l.22.09c.61.07 1.22.15 1.82.25s1.15.18 1.72.3a2 2 0 0 1 1.52.86.9.9 0 0 1-.53 1.3l-.58.07a.9.9 0 0 1-1 .51 14.27 14.27 0 0 1-3.45-1c-.32 2.11-.66 4.23-1.07 6.33-.14.71-.3 1.42-.47 2.13a15.57 15.57 0 0 1 2.63.46 13.76 13.76 0 0 1 1.74.6c.69.28 1.47.78 1.27 1.65a1 1 0 0 1-1 .8h-.92a16.18 16.18 0 0 1-2-.16 14.41 14.41 0 0 1-2.5-.59c-.9 3-2 6-3 9l2.18.4h.2a.78.78 0 0 1 .47.13L40 65c.68.12 1.43.49 1.38 1.29a.91.91 0 0 1-.89.89 14.17 14.17 0 0 1-4.76-.52 6.51 6.51 0 0 1-1.24-.12A54.36 54.36 0 0 0 33 72.27a24.38 24.38 0 0 0-.44 3.31l1.11.13 1.23.13a1.08 1.08 0 0 1 .19 0l1.91.24a2.05 2.05 0 0 1 1.58.82.9.9 0 0 1-.77 1.34 25.21 25.21 0 0 1-3.88-.18 4 4 0 0 1-1.42 0 15.86 15.86 0 0 0 1.43 6 15.35 15.35 0 0 0 2.82 4.05 22.74 22.74 0 0 1 1.57-2.71 23.22 23.22 0 0 1 1.39-1.87 2.42 2.42 0 0 1 1.79-1.06.9.9 0 0 1 .89.89 3.78 3.78 0 0 1-.62 2.13c-.36.63-.73 1.25-1.12 1.87-.56.9-1.15 1.79-1.78 2.65a23.63 23.63 0 0 0 3.3 2.15 28.48 28.48 0 0 0 6.67 2.59.77.77 0 0 1 0-.15 10.14 10.14 0 0 1 .64-2.31 15 15 0 0 1 .75-2 .42.42 0 0 1 .11-.15v-.18a.89.89 0 1 1 1.71.48c0 .28-.1.56-.16.84a9.84 9.84 0 0 1-.13 2.42 9.24 9.24 0 0 1-.37 1.37 1.55 1.55 0 0 0-.08.23l.93.13a58.39 58.39 0 0 0 9.26.14v-.39a.8.8 0 0 1-.06-.3v-.26a17.92 17.92 0 0 1 0-3 1 1 0 0 1 .36-.71c0-.23.07-.46.12-.69a.88.88 0 0 1 1-.64.89.89 0 0 1 .77.88c.06 1 .09 2 .09 3.08a6.94 6.94 0 0 1-.19 2h3.38a73.11 73.11 0 0 0 7.69.17c.4 0 .8-.07 1.2-.13A14.6 14.6 0 0 1 74.54 92a6.08 6.08 0 0 1-.23-1.33 1 1 0 0 1 1.43-1c.51.22.69.75.9 1.22.4.87.76 1.76 1.1 2.66a5 5 0 0 1 .38 1.6l-2.19.45a20.24 20.24 0 0 0 2.19-.45 21 21 0 0 0 10.5-6.72l-.71-.59a6.69 6.69 0 0 1-2.46-2.63.89.89 0 0 1 1.39-1.08l2.94 2.79-1.16 1.51c.41-.49.8-1 1.16-1.51a19.43 19.43 0 0 0 2.76-5.77 23.4 23.4 0 0 0 .82-5.45 6.34 6.34 0 0 1-1.45-.17 7.66 7.66 0 0 1-2.36-.94ZM53 75.8a4.65 4.65 0 0 1-4-.36 1.62 1.62 0 0 1-.64-1.72c.44-1.46 3.23-1.75 4.45-1.4a2.74 2.74 0 0 1 1.43.94c.83 1.18-.31 2.19-1.24 2.54Zm2.73-7.08a4.6 4.6 0 0 1-1.53 2.22 2.64 2.64 0 0 1-2.75.12c-1.88-1-2.18-3.51-2.2-5.38a.92.92 0 0 1 .89-.89.91.91 0 0 1 .89.89c0 1.14 0 2.75.95 3.6a1 1 0 0 0 1.07.27 1.23 1.23 0 0 0 .45-.37 5.47 5.47 0 0 0 .93-2.58v-.07a11 11 0 0 0 0-1.28.9.9 0 0 1 .89-.88.88.88 0 0 1 .88.88 9.51 9.51 0 0 1-.48 3.47Zm4-21.06c.07-5.72.54-11.52 1-17.18a3.64 3.64 0 0 1 .69-2.22c.6-.59 1.17-.44 1.34.4.09.42.17.83.25 1.24A67.32 67.32 0 0 1 64.36 44c0 6.8-.36 13.63-.73 20.42a3 3 0 0 1-.23 1.22 1.05 1.05 0 0 1-1 .62c-.54-.07-.84-.66-1-1.17a33.44 33.44 0 0 1-1.4-8.64c-.27-2.92-.34-5.86-.31-8.79ZM66.61 71a3.09 3.09 0 0 1-2.92 1.76 3.17 3.17 0 0 1-2.78-2.13.89.89 0 0 1 .62-1.09c.62-.21.88.31 1.14.74A1.41 1.41 0 0 0 64 71c1-.09 1.22-1.79 2.34-1.19a.9.9 0 0 1 .27 1.19Zm4.2-5.31a.91.91 0 0 1 .88-.89.9.9 0 0 1 .89.89c0 1.15.06 2.72.93 3.58a1 1 0 0 0 1 .31 1.25 1.25 0 0 0 .62-.52 6.53 6.53 0 0 0 .89-3.8.89.89 0 0 1 1.78 0 9.52 9.52 0 0 1-.54 3.47 4.54 4.54 0 0 1-1.53 2.22 2.64 2.64 0 0 1-2.75.12c-1.86-.96-2.16-3.52-2.17-5.39Zm7.81 10.11a4.66 4.66 0 0 1-4-.36 1.61 1.61 0 0 1-.62-1.72c.44-1.46 3.23-1.75 4.45-1.4a2.75 2.75 0 0 1 1.42.94c.84 1.18-.31 2.19-1.25 2.54ZM53 69.57ZM64.05 71ZM74.59 69.57Z" class="cls-4"/><path d="M62.4 66.28a1.05 1.05 0 0 0 1-.62 3 3 0 0 0 .23-1.22c.37-6.79.73-13.62.73-20.42a67.32 67.32 0 0 0-1.43-14.12c-.08-.41-.16-.82-.25-1.24-.17-.84-.74-1-1.34-.4a3.64 3.64 0 0 0-.69 2.22c-.42 5.66-.89 11.46-1 17.18 0 2.93 0 5.87.27 8.79a33.44 33.44 0 0 0 1.42 8.66c.22.51.52 1.1 1.06 1.17ZM33.94 78.09a25.21 25.21 0 0 0 3.88.18.9.9 0 0 0 .77-1.34 2.05 2.05 0 0 0-1.59-.82l-1.91-.24a1.08 1.08 0 0 0-.19 0l-1.23-.13-1.11-.13a23 23 0 0 0 0 2.49 4 4 0 0 0 1.38-.01ZM51.85 93.71a9.84 9.84 0 0 0 .15-2.42c.06-.28.12-.56.16-.84a.89.89 0 1 0-1.73-.45v.18a.42.42 0 0 0-.11.15 15 15 0 0 0-.75 2 10.14 10.14 0 0 0-.64 2.31.77.77 0 0 0 0 .15c.83.21 1.68.39 2.54.52a1.55 1.55 0 0 1 .08-.23 9.24 9.24 0 0 0 .3-1.37ZM63.76 90.45a.89.89 0 0 0-.77-.88.88.88 0 0 0-1 .64c-.05.23-.08.46-.12.69a1 1 0 0 0-.36.71 17.92 17.92 0 0 0 0 3v.26a.8.8 0 0 0 .06.3v.39l2.07-.07a6.94 6.94 0 0 0 .19-2c.02-.99-.01-2.02-.07-3.04ZM77.74 93.5c-.34-.9-.7-1.79-1.1-2.66-.21-.47-.39-1-.9-1.22a1 1 0 0 0-1.43 1 6.08 6.08 0 0 0 .23 1.38 14.6 14.6 0 0 0 1.39 3.58l2.19-.45a5 5 0 0 0-.38-1.63ZM86.84 84.08a.89.89 0 0 0-1.39 1.08 6.69 6.69 0 0 0 2.46 2.63l.71.59 1.16-1.51ZM92.81 72.88a9.65 9.65 0 0 0-2.53-.67.89.89 0 0 0-.89.89s0 .05 0 .08a1 1 0 0 0-.22.3.89.89 0 0 0 .37 1.11 7.66 7.66 0 0 0 2.36.89 6.34 6.34 0 0 0 1.45.17v-2.52ZM86.22 58.38a.89.89 0 0 0 .45 1.62H87a.93.93 0 0 0 .59.24 10.1 10.1 0 0 0 3.1-.26l.26-.07c-.28-1-.59-2-.91-2.94a6 6 0 0 0-1.15.52 9.54 9.54 0 0 0-2.67.89ZM81.59 45.52a.93.93 0 0 0-.44.72.88.88 0 0 0 .07 1.47 2.47 2.47 0 0 0 2.09 0 9 9 0 0 0 1.69-.84 10.65 10.65 0 0 0 .86-.64c-.38-.84-.77-1.69-1.16-2.53l-.54.3c-.87.5-1.73 1-2.57 1.52ZM76.65 34.91a7.53 7.53 0 0 0-.83 1.09.91.91 0 0 0 .18 1.07.94.94 0 0 0 1.08.14 11.46 11.46 0 0 0 3.33-2.3l-1.18-2.33a11.26 11.26 0 0 0-2.58 2.33ZM72.55 25l-.41.34a6.43 6.43 0 0 0-1.8 2.12.92.92 0 0 0 .14 1.08.91.91 0 0 0 1.07.14 15.44 15.44 0 0 0 3.1-2.29c.27-.25.53-.52.78-.79-.42-.71-.85-1.4-1.31-2.08A14.69 14.69 0 0 0 72.55 25ZM65.49 19a13 13 0 0 0-.6 1.95.89.89 0 0 0 1.62.68 21.53 21.53 0 0 0 2.24-4l-.44-.3a13.68 13.68 0 0 0-1.9-1 19 19 0 0 0-.94 2.12.7.7 0 0 0 .02.55ZM57.38 19.6c.1.45.22.91.35 1.35a.91.91 0 0 0 1.63.22c.8-1.19.59-2.73.34-4.05a14.39 14.39 0 0 0-.41-1.63 16.51 16.51 0 0 0-2.5.5 18.51 18.51 0 0 0 .51 3.39 1.43 1.43 0 0 0 .08.22ZM49.44 25.15l.35.32a.91.91 0 0 0 1.07.14 1.49 1.49 0 0 0 .43-2 4 4 0 0 0-.44-.66c-.23-.31-.47-.62-.71-.92-.43-.55-.87-1.08-1.32-1.61l-.55.51A17.75 17.75 0 0 0 47 22.34a15 15 0 0 0 1.47 2.38 1 1 0 0 0 .97.43ZM47.23 33.82a.9.9 0 0 0 1.09-1.09 2 2 0 0 0-1.16-1.36l-1.58-.76a5.33 5.33 0 0 0-1.91-.94l-.29-.23c-.27.88-.5 1.76-.72 2.67a10.94 10.94 0 0 0 2.13 1 11.2 11.2 0 0 0 2.44.71ZM45.08 44.35l.58-.07A.9.9 0 0 0 46.2 43a2 2 0 0 0-1.49-.82c-.57-.12-1.14-.21-1.72-.3s-1.21-.18-1.82-.25l-.17-.14c-.12.8-.24 1.6-.37 2.41a14.27 14.27 0 0 0 3.45 1 .9.9 0 0 0 1-.55ZM42.74 55.88h.92a1 1 0 0 0 1-.8c.2-.87-.58-1.37-1.27-1.65a13.76 13.76 0 0 0-1.74-.6 15.57 15.57 0 0 0-2.65-.47c-.23.93-.49 1.85-.77 2.77a14.41 14.41 0 0 0 2.5.59 16.18 16.18 0 0 0 2.01.16ZM40.47 67.17a.91.91 0 0 0 .89-.89c0-.8-.7-1.17-1.38-1.29l-1.87-.35a.78.78 0 0 0-.47-.13h-.2l-2.18-.4c-.27.8-.54 1.61-.79 2.42a6.51 6.51 0 0 0 1.24.12 14.17 14.17 0 0 0 4.76.52ZM41.79 85.53a3.78 3.78 0 0 0 .62-2.13.9.9 0 0 0-.89-.89 2.42 2.42 0 0 0-1.79 1.06 23.22 23.22 0 0 0-1.39 1.87 22.74 22.74 0 0 0-1.57 2.71 19.16 19.16 0 0 0 2.12 1.9c.63-.86 1.22-1.75 1.78-2.65.39-.62.76-1.24 1.12-1.87Z" class="cls-5"/><path d="M6.07 90.6a.67.67 0 0 0 .24-.91C2 84.11.84 76.88 1.48 70a58 58 0 0 1 2.37-11.27C5 55.08 6.23 51.49 7.66 48a122.37 122.37 0 0 1 9.75-19.2 80.3 80.3 0 0 1 11.81-14.91A52.65 52.65 0 0 1 44.61 3.28c.7-.31 1.41-.59 2.13-.86a.68.68 0 0 0 .44-.66.59.59 0 0 0-.8-.63 52.13 52.13 0 0 0-16.3 10.13A77.11 77.11 0 0 0 17.58 26 118.42 118.42 0 0 0 7.39 45.15C5.88 48.7 4.51 52.31 3.32 56A69.78 69.78 0 0 0 .48 67.35C-.58 74.42 0 82 3.71 88.23a22.17 22.17 0 0 0 1.45 2.13.8.8 0 0 0 .51.32.58.58 0 0 0 .4-.08ZM97.49 95.76c-3.7 4.06-9.26 5.46-14.54 5.94-3.07.28-6.16.34-9.24.46l-9.41.37c-6.25.25-12.5.52-18.75.74-6.06.22-12.21.29-18.19-.88a33.2 33.2 0 0 1-14.27-6.15c-.51-.41-1-.83-1.48-1.27s-1.57.36-.94.94a28 28 0 0 0 3.4 2.66 34.57 34.57 0 0 0 10.81 4.63A68.1 68.1 0 0 0 43 104.68c6.38-.15 12.76-.48 19.14-.73l2.06-.08 7.51-.3 3-.11c2.15-.08 4.29-.16 6.43-.29 5.59-.36 11.43-1.39 15.84-5.11a13.75 13.75 0 0 0 1.4-1.35.66.66 0 0 0 .07-.83.63.63 0 0 0-.96-.12ZM105.84 73.41a77.56 77.56 0 0 0-1.46-11.14 111.5 111.5 0 0 0-3-11.81 112.36 112.36 0 0 0-9.61-22.24A63.47 63.47 0 0 0 85 18.3a63.08 63.08 0 0 0-8.9-8.3 63 63 0 0 0-9.86-6.82A27.36 27.36 0 0 0 54.53 0a26.05 26.05 0 0 0-3.06.07.71.71 0 0 0-.56 1 .54.54 0 0 0 .56.3A25.91 25.91 0 0 1 63.22 3.2a43.43 43.43 0 0 1 10 6.19 78.06 78.06 0 0 1 9 7.79 55.67 55.67 0 0 1 7.11 9.4 106.92 106.92 0 0 1 10 21.49 114.49 114.49 0 0 1 3.22 11.49 87 87 0 0 1 1.86 11.11c.65 6.89.27 14.25-3.12 20.45a21.93 21.93 0 0 1-1.37 2.21.58.58 0 0 0 .24.88.68.68 0 0 0 .84-.21c4.13-6 5.19-13.45 4.84-20.59Z" class="cls-6"/><path d="M55.37 64.37a.9.9 0 0 0-.89.88 11 11 0 0 1 0 1.28v.07a5.47 5.47 0 0 1-.93 2.58 1.23 1.23 0 0 1-.45.37 1 1 0 0 1-1.1-.27c-.9-.85-.94-2.46-.95-3.6a.91.91 0 0 0-.89-.89.92.92 0 0 0-.89.89c0 1.87.32 4.43 2.2 5.38a2.64 2.64 0 0 0 2.75-.12 4.6 4.6 0 0 0 1.53-2.22 9.51 9.51 0 0 0 .53-3.47.88.88 0 0 0-.91-.88ZM53 69.57ZM75.75 70.94a4.54 4.54 0 0 0 1.53-2.22 9.52 9.52 0 0 0 .54-3.47.89.89 0 0 0-1.78 0 6.53 6.53 0 0 1-.89 3.8 1.25 1.25 0 0 1-.62.52 1 1 0 0 1-1-.31c-.87-.86-.92-2.43-.93-3.58a.9.9 0 0 0-.89-.89.91.91 0 0 0-.88.89c0 1.87.31 4.43 2.19 5.38a2.64 2.64 0 0 0 2.73-.12Zm-1.16-1.37ZM66.29 69.78C65.17 69.18 65 70.88 64 71a1.41 1.41 0 0 1-1.28-.7c-.26-.43-.52-1-1.14-.74a.89.89 0 0 0-.62 1.09 3.17 3.17 0 0 0 2.78 2.13A3.09 3.09 0 0 0 66.61 71a.9.9 0 0 0-.32-1.22ZM64 71Z" class="cls-7"/><path d="M52.84 72.32c-1.22-.35-4-.06-4.45 1.4a1.62 1.62 0 0 0 .61 1.72 4.65 4.65 0 0 0 4 .36c.94-.35 2.08-1.36 1.28-2.54a2.74 2.74 0 0 0-1.44-.94ZM78.48 72.32c-1.22-.35-4-.06-4.45 1.4a1.61 1.61 0 0 0 .63 1.72 4.66 4.66 0 0 0 4 .36c.94-.35 2.09-1.36 1.28-2.54a2.75 2.75 0 0 0-1.46-.94Z" class="cls-8"/></g></g></svg>