<svg xmlns="http://www.w3.org/2000/svg" viewBox="0 0 77.97 66.72"><defs><style>.cls-1{fill:#e7e9f6}.cls-2{fill:#d0d5ec}.cls-3{fill:#f7e2a8}.cls-4{fill:#f0cd7a}.cls-5{fill:#f4f3f3}.cls-6{fill:#d69726}.cls-7{fill:#5e70b0}.cls-8{fill:#e9c2da}.cls-9{fill:#dfa5c6}.cls-10{fill:#d06968}.cls-11{fill:#9aabd7}.cls-12{fill:#e3afb1}</style></defs><g id="Capa_2" data-name="Capa 2"><g id="Capa_3" data-name="Capa 3"><path d="M77.89 34.23a.46.46 0 0 0-.47-.7v-.06a.63.63 0 0 0 0-.19v-.11a.22.22 0 0 0 0-.08l-.24-.09c-.11-.1-.22-.2-.32-.31a.49.49 0 0 0 .29-.81q-3.75-3.92-7.63-7.72t-7.83-7.44q-4-3.68-8.1-7.22t-8.3-6.95C44 1.49 42.63.35 40.9.1a13.22 13.22 0 0 0-2.74-.1c-.95 0-1.88.15-2.82.29q-.69.15-1.34.28a.41.41 0 0 0-.33.54l-1.82.39a.49.49 0 0 0-.58-.29 49.86 49.86 0 0 0-13.66 4.64 50.37 50.37 0 0 0-11.77 8.29C4.86 15.07 3.9 16 3 17.05a12.3 12.3 0 0 0-2.27 3.67.45.45 0 0 0 0 .28.67.67 0 0 0-.1.19c-.05.19-.09.38-.13.58a.47.47 0 0 0-.48.46 20 20 0 0 0 .69 6.58v1.04l.12 2a.48.48 0 0 0-.48.48q.66 6.57 1.36 13.14c.31 3 .64 6 1 9 .06.52.11 1 .16 1.56L3 57.12c.16 1.49.33 3 .5 4.47a.52.52 0 0 0 .08.69l.06.53L4 66a.49.49 0 0 0 .48.48.52.52 0 0 0 .46.2l3.3-.06a.46.46 0 0 0 .32.11q9.28 0 18.57-.12t18.57-.35c3.47-.1 6.93-.22 10.4-.38a.45.45 0 0 0 .42-.3h1.13a.39.39 0 0 0 .43.28c4.57-.28 9.13-.51 13.7-.66q1.94-.07 3.87-.12a.49.49 0 0 0 .36-.8 1.13 1.13 0 0 0 0-.18v-2.6a.87.87 0 0 0 0-.19q.59-9.48 1-19c.09-1.81.17-3.61.26-5.41a.41.41 0 0 0-.25-.42c0-.51 0-1 .07-1.53.45-.24.63-.48.8-.72ZM30.57 10.32c-.06 0 0 0 0 0Z" class="cls-1"/><path d="M12.66 13.48a18.1 18.1 0 0 0-2.33 1.86 3.07 3.07 0 0 0-1.08 2.19c.08.73.86 1 1.47 1.14a66.33 66.33 0 0 0 7.28 1.2c2.59.31 5.18.56 7.77.87s5.26.75 7.89 1.19 5.3.9 7.94 1.39q7.92 1.45 15.77 3.18a35.29 35.29 0 0 1 3.69.86c1.09.35 2.12.84 3.18 1.25a8.83 8.83 0 0 0 3.24.72c.62 0 1.67-.06 1.9-.8s-.29-1.21-.62-1.65a20.59 20.59 0 0 0-1.53-1.7c-1.75-1.74-3.77-3.19-5.65-4.79s-3.9-3.45-5.87-5.15-4-3.41-6-5.08-4-3.37-6.11-4.95c-1.46-1.1-2.88-2.46-4.71-2.89a11 11 0 0 0-3.34-.08c-4.82.41-9.55 2.51-13.76 4.82-3.33 1.83-6.09 4.2-9.13 6.42ZM38.8 6.07a1.41 1.41 0 0 1 1.69.68 1.7 1.7 0 0 1-.12 1.53 4.28 4.28 0 0 1-4.09 2 1.39 1.39 0 0 1-1-.76 1.66 1.66 0 0 1 .37-1.61 5.51 5.51 0 0 1 3.15-1.84ZM31 5.16a8.42 8.42 0 0 0 1.65 1.56 2.35 2.35 0 0 0 1.89.63c1.6-.44 0-2.82-.62-3.49-.27-.3.18-.75.46-.45a6.49 6.49 0 0 1 1.25 2 2 2 0 0 1-.06 2 1.74 1.74 0 0 1-1.63.59 4 4 0 0 1-1.88-.93 8.82 8.82 0 0 1-1.52-1.47c-.26-.31.19-.76.46-.44Zm-1.45 4.92c.19-.12.37 0 .47.18a.41.41 0 0 0 .32.17.36.36 0 0 0 .38-.36.51.51 0 0 0-.14-.34.5.5 0 0 1-.13-.19.32.32 0 0 1 .22-.39.33.33 0 0 1 .24 0 1.14 1.14 0 0 1 .3.32 1.29 1.29 0 0 1 .12.38 1.06 1.06 0 0 1-.13.68 1 1 0 0 1-.56.44 1.08 1.08 0 0 1-1.21-.47.33.33 0 0 1 .11-.42ZM28.8 14a1.7 1.7 0 0 1-.12 1.53 4.31 4.31 0 0 1-4.09 2 1.45 1.45 0 0 1-1-.77 1.65 1.65 0 0 1 .37-1.6 5.53 5.53 0 0 1 3.11-1.83 1.41 1.41 0 0 1 1.73.67Zm-6.64-2.44a4.49 4.49 0 0 0 1.68 1 2.13 2.13 0 0 0 1.68.05c.55-.3.45-1 .18-1.48a6.28 6.28 0 0 0-1.49-1.51.32.32 0 0 1 .45-.45 6.69 6.69 0 0 1 1.59 1.64 1.91 1.91 0 0 1 .17 1.72 1.58 1.58 0 0 1-1.38.86 3.82 3.82 0 0 1-1.73-.36 5 5 0 0 1-1.6-1.03c-.3-.26.15-.71.45-.43ZM30.66 10.19c0 .06 0 0 0 0Z" class="cls-1"/><path d="M31.49 2.13a49.19 49.19 0 0 0-7.66 2.06 50.09 50.09 0 0 0-12.4 6.55 48.9 48.9 0 0 0-5.35 4.49c-.87.85-1.72 1.72-2.51 2.64a10.76 10.76 0 0 0-1.82 2.89l.59.06a.39.39 0 0 1 .45-.36l1.75.16c4.7.44 9.39.88 14.07 1.41s9.3 1.12 13.92 1.87 9.31 1.72 13.94 2.72 9.22 1.88 13.86 2.66 9.34 1.45 14 2a.49.49 0 0 1 .48.48.48.48 0 0 1-.48.48h-.27l2.88.68a.68.68 0 0 1 .21.1c-.11-.1-.22-.2-.32-.31a.41.41 0 0 1-.39-.13l-.94-1q-1.15-1.2-2.34-2.4c-3.51-3.41-7-6.84-10.52-10.24l-.41-.39-2-1.86q-3.93-3.6-8-7.06T44.08 2.8a11.32 11.32 0 0 0-2-1.35A5.45 5.45 0 0 0 39.69 1a27.29 27.29 0 0 0-5.48.53.5.5 0 0 1-.58-.38l-1.82.39a.48.48 0 0 1-.32.59Zm4.07.11a11 11 0 0 1 3.34.08c1.83.43 3.25 1.79 4.71 2.89 2.09 1.58 4.09 3.28 6.11 5s4 3.36 6 5.08 3.89 3.46 5.87 5.15 3.9 3.05 5.65 4.79a20.59 20.59 0 0 1 1.53 1.7c.33.44.8 1.06.62 1.65s-1.28.79-1.9.8a8.83 8.83 0 0 1-3.24-.72c-1.06-.41-2.09-.9-3.18-1.25a35.29 35.29 0 0 0-3.69-.86q-7.86-1.72-15.77-3.18-4-.74-7.94-1.39c-2.63-.44-5.25-.87-7.89-1.19s-5.18-.56-7.77-.87a66.33 66.33 0 0 1-7.29-1.2c-.61-.15-1.39-.41-1.47-1.14a3.07 3.07 0 0 1 1.08-2.19 18.1 18.1 0 0 1 2.33-1.86c3-2.22 5.8-4.59 9.13-6.42C26 4.75 30.73 2.65 35.56 2.24Z" class="cls-2"/><path d="M24.79 23.73c2.85.46 5.7.93 8.55 1.36l3.16.47c-1.89-.35-3.78-.68-5.68-1s-4.02-.56-6.03-.83Z" class="cls-2"/><path d="M10.11 57.09h1.16-1.16ZM33.68 57.38c-.2-.72-.7-1.49-1.53-1.5s-1.08.85-1.19 1.51v.28l2.89.07a2.37 2.37 0 0 0-.17-.36ZM60.28 62.55a.46.46 0 0 1-.46.5H47.54q-10.89 0-21.78-.2-8.11-.12-16.23-.34a6.68 6.68 0 0 0 2.59 1.12 43.85 43.85 0 0 0 6.67.8c4.6.25 9.19-.06 13.79-.16 4.75-.1 9.49-.15 14.24-.21s9.43-.2 14.15-.23c2.37 0 4.74 0 7.11-.15 1.6-.09 3.37-.12 4.69-1.16a4.31 4.31 0 0 0 .76-.78c-2.34.17-4.68.38-7 .51q-3.13.21-6.25.3ZM10.33 34.93a7.49 7.49 0 0 0 .86-.41 7.74 7.74 0 0 1-2.36.75 5 5 0 0 0 1.5-.34Z" class="cls-3"/><path d="M9.67 36.13a6.53 6.53 0 0 1-5.74-2l-.09-.09c.07 1.18.16 2.36.26 3.54.08 1 .18 2 .29 3.06a27.68 27.68 0 0 0 3 .67c2 .17 3.95.45 5.92.71 6.44.65 12.89 1.29 19.34 1.81 6.78.56 13.56 1 20.35 1.19a.44.44 0 0 1 .34.15h2a.43.43 0 0 1 .46-.17h4a130.77 130.77 0 0 0 14-1c.25 0 .47.25.47.48a.77.77 0 0 1 0 .15h.27v-2.66c0-1.14-.06-2.28-.13-3.42a.24.24 0 0 0-.36-.21 12.28 12.28 0 0 1-6.35 2.22 11.92 11.92 0 0 1-7.1-2.16 18.15 18.15 0 0 1-3.09-2.72.23.23 0 0 0-.29 0 21.86 21.86 0 0 1-8.29 3.12 22.23 22.23 0 0 1-2.6.29 9.34 9.34 0 0 1-.57 1.61 2.57 2.57 0 0 1-1.15 1.3 1.45 1.45 0 0 1-1.68-.25 3 3 0 0 1-.7-1.45 8.49 8.49 0 0 1-.23-1.83 7 7 0 0 1-1-.47 16.48 16.48 0 0 1-3.3-2.65.25.25 0 0 0-.38 0 4.94 4.94 0 0 1-3.12 2.31 9.23 9.23 0 0 1-.47 2 2.8 2.8 0 0 1-1 1.45 1.5 1.5 0 0 1-1.66.07 2.24 2.24 0 0 1-.9-1.49 9 9 0 0 1-.2-1.38 19.5 19.5 0 0 1-4.65-.3 10.54 10.54 0 0 1-3.5-1.36 22.36 22.36 0 0 1-3.79-3.22c-.85-.83-2.16-.68-3.27-.59a17.79 17.79 0 0 1-2.23 1.83 8.17 8.17 0 0 1-2.86 1.46Zm34.6 6.81a1 1 0 0 1 .7-.76 3.46 3.46 0 0 1 2.27 0 .92.92 0 0 1 .71.91 1.1 1.1 0 0 1-.56.79 2.69 2.69 0 0 1-2.85-.22.86.86 0 0 1-.27-.72Zm-6.82-2.34c.35 0 .31.42.39.64a.29.29 0 0 0 .47.09.68.68 0 0 0 .19-.45.31.31 0 0 1 .39-.22.32.32 0 0 1 .22.39 1.46 1.46 0 0 1-.15.49 1 1 0 0 1-1.13.48 1.09 1.09 0 0 1-.69-1.1.31.31 0 0 1 .31-.32Zm-9.34 1.46a1 1 0 0 1 .68-.73 3.33 3.33 0 0 1 2.16 0c.42.16.71.43.67.86a1 1 0 0 1-.53.76 2.57 2.57 0 0 1-2.71-.21.84.84 0 0 1-.27-.68ZM62.14 57.36a1.31 1.31 0 0 0-.25.32l2.11-.07-.11-.12a1.17 1.17 0 0 0-1.75-.13Z" class="cls-3"/><path d="M31.51 40.39a.62.62 0 0 0 .29.15.82.82 0 0 0 .67-.33 2.14 2.14 0 0 0 .2-.32 3 3 0 0 0 .14-.33 7.89 7.89 0 0 0 .41-1.56c-.38.09-.76.16-1.12.21s-.75.1-1.12.14a5.79 5.79 0 0 0 .24 1.48 1.4 1.4 0 0 0 .29.56ZM74.92 53.45c0-.49-.06-1-.09-1.49-2.13 0-4.26 0-6.38.07q-8 .15-15.94 0a.45.45 0 0 1-.44.59q-5.17-.29-10.35-.62-9.24-.55-18.46-1.35-8.93-.77-17.84-1.74c.12.82.24 1.63.37 2.45.3 1.89.6 3.79 1 5.67h.66c.87 0 1.74 0 2.61.06a9.34 9.34 0 0 1 .85-2.22A7.36 7.36 0 0 1 14 51.76a6.52 6.52 0 0 1 4.16-.62 5.68 5.68 0 0 1 3.57 2.49 10.45 10.45 0 0 1 1.48 3.85l4.45.11h-.36a7.41 7.41 0 0 1 1.36-3.23 5.65 5.65 0 0 1 3.7-2.24 4.54 4.54 0 0 1 4 1.49 6.76 6.76 0 0 1 1.32 4.25h4.57a6.56 6.56 0 0 1 1-2.2 5.73 5.73 0 0 1 6.23-2.26 4.9 4.9 0 0 1 2.6 2.91 9.1 9.1 0 0 1 .55 1.51l5.11-.08a7.5 7.5 0 0 1 1.15-2.14 6 6 0 0 1 2.79-2 5.42 5.42 0 0 1 3.31 0 4.38 4.38 0 0 1 2.57 2.13 6.23 6.23 0 0 1 .6 1.78c2.26-.09 4.52-.18 6.77-.3a27.16 27.16 0 0 0-.01-3.76ZM21.62 57.44h1.22Z" class="cls-3"/><path d="M47.84 56.79a1.41 1.41 0 0 0-1.55.92 1.54 1.54 0 0 0-.08.19h2.86a2 2 0 0 0-1.23-1.11ZM16.18 55.62a2.35 2.35 0 0 0-1.29 1.51l4.15.2c-.39-1.18-1.55-2.33-2.86-1.71ZM43.63 41.07c.55.49 1.11-.48 1.29-.87a7.28 7.28 0 0 0 .42-1.13 10.64 10.64 0 0 1-2.39-.3 7.33 7.33 0 0 0 .28 1.54 1.51 1.51 0 0 0 .4.76Z" class="cls-3"/><path d="M74.92 53.45a27.16 27.16 0 0 1 0 3.72h.6c0-.43 0-.86.07-1.29.08-1.3.15-2.61.23-3.92h-1c.04.5.08 1.04.1 1.49ZM6.77 57c-.38-1.88-.68-3.78-1-5.67-.13-.82-.25-1.63-.37-2.45l-.58-.06a.53.53 0 0 1-.44-.3l-1.35-.09c.16 1.46.31 2.93.47 4.4s.31 2.83.47 4.25H4ZM3 57.13c.16 1.49.33 3 .5 4.47-.15-1.49-.32-2.98-.5-4.47ZM1.38 32.34l.75 7.39v.19a21.91 21.91 0 0 0 2.24.77c-.11-1-.21-2-.29-3.06-.1-1.18-.19-2.36-.26-3.54a11.26 11.26 0 0 1-2.68-4c-.15-.33-.29-.66-.42-1v.79l.12 2a.49.49 0 0 1 .54.46ZM75.41 61.63h-.56l-1.32.1a4.31 4.31 0 0 1-.76.78c-1.32 1-3.09 1.07-4.69 1.16-2.37.13-4.74.13-7.11.15-4.72 0-9.44.17-14.15.23s-9.49.11-14.24.21c-4.6.1-9.19.41-13.79.16a43.85 43.85 0 0 1-6.67-.8 6.68 6.68 0 0 1-2.59-1.12l-5-.13c.14 1.2.27 2.39.4 3.59a.47.47 0 0 1-.42.47.52.52 0 0 0 .46.2l3.3-.06a.49.49 0 0 1 .32-.84L19 65.71c6.19 0 12.38-.1 18.57-.22s12.38-.3 18.57-.58a.46.46 0 0 1 .42.66h1.13a.51.51 0 0 1 .43-.68l3.88-.25q6.85-.37 13.71-.56a.44.44 0 0 1 .36.16 1.13 1.13 0 0 0 0-.18v-2.48h-.09a.53.53 0 0 1-.57.05ZM39.39 30.36a.21.21 0 0 0-.21-.11h.11a.52.52 0 0 1 .1.11Z" class="cls-4"/><path d="M74.62 37.33C69.48 40.48 62.73 39 58.53 35a.43.43 0 0 1 0-.6 9.17 9.17 0 0 1-1-1.43.34.34 0 0 1-.13.22 25.55 25.55 0 0 1-4 3c-.71.45-1.42.9-2.15 1.28a4.65 4.65 0 0 1-2.41.61.47.47 0 0 1-.37-.2 7.47 7.47 0 0 1-2.47-.32.47.47 0 0 1-.59.51c-2.59-.74-4.21-3-5.48-5.24a.48.48 0 0 1 .37-.71c-.27-.49-.52-1-.76-1.51a.42.42 0 0 1-.06.31 17.41 17.41 0 0 1-4.28 4 16.59 16.59 0 0 1-4.74 2.18 9.24 9.24 0 0 1-5.81 0c-3.09-1.19-4.93-4.3-5.85-7.33a.42.42 0 0 1 .24-.54c-.16-.59-.29-1.18-.4-1.77a17.49 17.49 0 0 1-3.71 5.34l-.09.09c1.11-.09 2.42-.24 3.27.59a22.36 22.36 0 0 0 3.79 3.22 10.54 10.54 0 0 0 3.5 1.36 19.5 19.5 0 0 0 4.65.3v-.47a.49.49 0 0 1 .48-.48.49.49 0 0 1 .48.48v.4c.37 0 .75-.08 1.12-.14s.74-.12 1.12-.21a2.23 2.23 0 0 0 0-.23.49.49 0 0 1 .48-.48.5.5 0 0 1 .48.44 4.94 4.94 0 0 0 3.12-2.31.25.25 0 0 1 .38 0A16.48 16.48 0 0 0 41 38a7 7 0 0 0 1 .46s0-.09 0-.14a.48.48 0 0 1 .48-.47.49.49 0 0 1 .48.47v.44a10.64 10.64 0 0 0 2.39.3c.06-.24.12-.48.17-.72a.49.49 0 0 1 .58-.34.5.5 0 0 1 .33.59 3.63 3.63 0 0 1-.1.45 22.23 22.23 0 0 0 2.6-.29 21.86 21.86 0 0 0 8.29-3.12.23.23 0 0 1 .29 0 18.15 18.15 0 0 0 3.09 2.77 11.92 11.92 0 0 0 7.05 2.17A12.28 12.28 0 0 0 74 38.35a.24.24 0 0 1 .36.21c.07 1.14.11 2.28.13 3.42v2.66l1.69-.17q.19-3.8.37-7.58a.5.5 0 0 1 .71-.42c0-.51 0-1 .07-1.53a11 11 0 0 1-2.71 2.39ZM3.6 62.29l.06.53-.06-.53ZM2.74 54.48c.06.52.11 1 .16 1.56l.1 1.08c-.07-.88-.16-1.76-.26-2.64Z" class="cls-4"/><path d="M73.79 45c-1.33.16-2.66.31-4 .43a128.28 128.28 0 0 1-14 .52.49.49 0 0 1-.42-.69h-2A.47.47 0 0 1 53 46q-5.74-.17-11.5-.53c-6.82-.43-13.62-1-20.42-1.69-3.36-.33-6.72-.65-10.08-1A33.63 33.63 0 0 1 2.26 41c.26 2.49.53 5 .79 7.48l1.35.09a.47.47 0 0 1 .44-.66c3.44.38 6.87.73 10.31 1.06q9.21.9 18.44 1.55t18.48 1.11a.45.45 0 0 1 .44.37q8 .19 15.94 0c2.12 0 4.25 0 6.38-.07h1c.13-2.49.27-5 .39-7.47l-1.69.17h-.27a.53.53 0 0 1-.47.37Z" class="cls-5"/><path d="m12.38 42 1 .09c-2-.26-3.95-.54-5.92-.71 1.6.26 3.27.43 4.92.62ZM37.7 57.85l-3.89-.11-2.89-.07-3-.07h-.25l-4.45-.11H21.73l4 .14q6.37.21 12.77.29h-.73Z" class="cls-5"/><path d="M10 57.09c-.87 0-1.74-.07-2.61-.06h-.62L4 57.12l.48 4.33q5.84.16 11.69.3 10.89.22 21.77.32t21.89 0a.44.44 0 0 1 .46.45q3.12-.09 6.23-.27c2.34-.13 4.68-.34 7-.51l1.32-.1h.56a.39.39 0 0 1-.15-.36c.06-1.05.13-2.11.19-3.16q-6.93.35-13.86.53-12.5.34-25 .16t-25-.88a.51.51 0 0 1-.38-.78h-1.16ZM3.53 61.59c-.12-1-.23-2-.34-3 0-.5-.1-1-.16-1.5H3c.16 1.49.33 3 .5 4.47ZM76.07 61.59h.09v-.12a.64.64 0 0 1-.09.12ZM1 22.23a17.73 17.73 0 0 0 .9 7.09c1.05 2.86 3.71 6.14 6.94 6a7.74 7.74 0 0 0 2.36-.75 13 13 0 0 0 1.61-1.09 18.15 18.15 0 0 0 2.08-1.93 16.87 16.87 0 0 0 3-4.74.49.49 0 0 1 .65-.17.5.5 0 0 1 .17.66c0 .09-.08.17-.12.26.11.59.24 1.18.4 1.77a.48.48 0 0 1 .68.28A13 13 0 0 0 22 34a7.12 7.12 0 0 0 3.48 2.38 9.37 9.37 0 0 0 5.39-.38 16.26 16.26 0 0 0 7.75-5.56.5.5 0 0 1 .55-.21.21.21 0 0 1 .21.11.58.58 0 0 1 .12.25c.24.51.49 1 .76 1.51a.44.44 0 0 1 .45.23c1.15 2 2.58 4.13 4.92 4.79a.45.45 0 0 1 .33.42 7.47 7.47 0 0 0 2.44.31.46.46 0 0 1 .37-.76 3.88 3.88 0 0 0 2.23-.6c.67-.37 1.33-.78 2-1.19a23.91 23.91 0 0 0 3.72-2.84.48.48 0 0 1 .8.46 9.17 9.17 0 0 0 1 1.43.47.47 0 0 1 .72-.07 13.93 13.93 0 0 0 3.71 2.55 12.43 12.43 0 0 0 8.18.93 10.05 10.05 0 0 0 6-4 .47.47 0 0 1 .36-.21v-.06a.63.63 0 0 0 0-.19v-.11a.22.22 0 0 0 0-.08l-.31-.11a.68.68 0 0 0-.21-.1l-2.88-.68-1.48-.22q-7-.87-14-2.08c-4.64-.8-9.25-1.73-13.85-2.72q-4.12-.9-8.26-1.67l-3.16-.47c-2.85-.43-5.7-.9-8.55-1.36q-4-.51-7.93-.94c-4.68-.5-9.37-.94-14.07-1.37a.52.52 0 0 1-.45-.6l-.59-.06a1.45 1.45 0 0 0-.09.22.48.48 0 0 1-.92 0 .67.67 0 0 0-.1.19c-.05.19-.09.38-.13.58a.44.44 0 0 1 .49.51ZM.72 28.81v.25c.13.34.27.67.42 1a12.28 12.28 0 0 1-.42-1.25Z" class="cls-5"/><path d="M31.12 41.28a1.5 1.5 0 0 0 1.66-.07 2.8 2.8 0 0 0 1-1.45 9.23 9.23 0 0 0 .47-2 .5.5 0 0 0-.48-.44.49.49 0 0 0-.48.48 2.23 2.23 0 0 1 0 .23 7.89 7.89 0 0 1-.41 1.57 3 3 0 0 1-.14.33 2.14 2.14 0 0 1-.2.32.82.82 0 0 1-.67.33.62.62 0 0 1-.29-.15 1.4 1.4 0 0 1-.29-.57 5.79 5.79 0 0 1-.29-1.52v-.4a.49.49 0 0 0-.48-.48.49.49 0 0 0-.48.48v.47a9 9 0 0 0 .2 1.38 2.24 2.24 0 0 0 .88 1.49ZM42.93 41.73a1.45 1.45 0 0 0 1.68.25 2.57 2.57 0 0 0 1.15-1.32 9.34 9.34 0 0 0 .57-1.61 3.63 3.63 0 0 0 .1-.45.5.5 0 0 0-.33-.6.49.49 0 0 0-.59.34c0 .24-.11.48-.17.72a7.28 7.28 0 0 1-.42 1.13c-.18.39-.74 1.36-1.29.87a1.51 1.51 0 0 1-.4-.76 7.33 7.33 0 0 1-.23-1.53v-.44a.49.49 0 0 0-.48-.47.48.48 0 0 0-.48.47v.14a8.49 8.49 0 0 0 .25 1.81 3 3 0 0 0 .64 1.45ZM37.83 42a1 1 0 0 0 1.17-.46 1.46 1.46 0 0 0 .15-.49.32.32 0 0 0-.22-.39.31.31 0 0 0-.39.22.68.68 0 0 1-.19.45.29.29 0 0 1-.47-.09c-.08-.22 0-.65-.39-.64a.31.31 0 0 0-.31.32 1.09 1.09 0 0 0 .65 1.08Z" class="cls-6"/><path d="M21.71 12a5 5 0 0 0 1.6 1.05 3.82 3.82 0 0 0 1.73.36 1.58 1.58 0 0 0 1.38-.86 1.91 1.91 0 0 0-.17-1.72 6.69 6.69 0 0 0-1.59-1.64.32.32 0 0 0-.45.45 6.28 6.28 0 0 1 1.49 1.51c.27.47.37 1.18-.18 1.48a2.13 2.13 0 0 1-1.68-.05 4.49 4.49 0 0 1-1.68-1c-.3-.29-.75.16-.45.42ZM32.06 7.08a4 4 0 0 0 1.88.92 1.74 1.74 0 0 0 1.62-.61 2 2 0 0 0 .06-1.95 6.49 6.49 0 0 0-1.25-2c-.28-.3-.73.15-.46.45.61.67 2.22 3.05.62 3.49a2.35 2.35 0 0 1-1.89-.63A8.42 8.42 0 0 1 31 5.16c-.26-.32-.71.13-.45.45a8.82 8.82 0 0 0 1.51 1.47ZM30.63 11a1 1 0 0 0 .56-.44 1.06 1.06 0 0 0 .13-.68 1.29 1.29 0 0 0-.12-.38 1.14 1.14 0 0 0-.3-.32.33.33 0 0 0-.24 0 .32.32 0 0 0-.22.39.5.5 0 0 0 .13.19.51.51 0 0 1 .14.34.36.36 0 0 1-.38.36.41.41 0 0 1-.32-.17c-.1-.16-.28-.3-.47-.18a.33.33 0 0 0-.12.44 1.08 1.08 0 0 0 1.21.45Zm0-.8Zm-.09.13s-.03.02.03-.01Z" class="cls-7"/><path d="M24 15.16a1.65 1.65 0 0 0-.37 1.6 1.45 1.45 0 0 0 1 .77 4.31 4.31 0 0 0 4.09-2A1.7 1.7 0 0 0 28.8 14a1.41 1.41 0 0 0-1.69-.68A5.53 5.53 0 0 0 24 15.16ZM35.32 9.5a1.39 1.39 0 0 0 1 .76 4.28 4.28 0 0 0 4.09-2 1.7 1.7 0 0 0 .12-1.53 1.41 1.41 0 0 0-1.69-.68 5.51 5.51 0 0 0-3.11 1.82 1.66 1.66 0 0 0-.41 1.63Z" class="cls-8"/><path d="M47.39 43.87a1.1 1.1 0 0 0 .56-.79.92.92 0 0 0-.71-.91 3.46 3.46 0 0 0-2.27 0 1 1 0 0 0-.7.76.86.86 0 0 0 .27.71 2.69 2.69 0 0 0 2.85.23ZM31.09 43a1 1 0 0 0 .53-.76c0-.43-.25-.7-.67-.86a3.33 3.33 0 0 0-2.16 0 1 1 0 0 0-.68.73.84.84 0 0 0 .27.68 2.57 2.57 0 0 0 2.71.21Z" class="cls-9"/><path d="M18 54.43v.05ZM23.19 57.48a10.45 10.45 0 0 0-1.48-3.85 5.68 5.68 0 0 0-3.57-2.49 6.52 6.52 0 0 0-4.16.62 7.36 7.36 0 0 0-3.09 3.11 9.34 9.34 0 0 0-.89 2.22h1.24a.39.39 0 0 1 .37-.17l3.24.17a2.35 2.35 0 0 1 1.29-1.51c1.31-.6 2.47.53 2.86 1.71l2.58.11h1.22Zm-10.4-3.26a.11.11 0 0 1 0 .08.13.13 0 0 1-.06.07.12.12 0 0 1-.08 0l-.21.05h-.18a.26.26 0 0 1-.09-.09v-.05a.17.17 0 0 1 0-.1.29.29 0 0 1 0-.09.23.23 0 0 1 .07-.07h.28a.28.28 0 0 1 .13 0h.06l.08.08v.06a.17.17 0 0 1 0 .06ZM14.47 56v.06l-.06.07h-.27l-.16-.1a.3.3 0 0 1-.08-.08v-.06a.29.29 0 0 1 0-.13.13.13 0 0 1 .06-.07.12.12 0 0 1 .08 0 .17.17 0 0 1 .1 0h.09l.15.1a.2.2 0 0 1 .09.09.28.28 0 0 1 0 .12Zm.65-1.37c0 .07-.06.13-.08.19A.21.21 0 0 1 15 55h-.32l-.06-.07v-.09a.28.28 0 0 1 0-.09l.07-.18a.41.41 0 0 1 .07-.11.28.28 0 0 1 .13 0h.19a.13.13 0 0 1 .06.07.16.16 0 0 1 0 .09.14.14 0 0 1-.02.04Zm-.18-1.45a.24.24 0 0 1 0-.48.24.24 0 0 1 0 .51Zm1.37-1.12a.14.14 0 0 1-.08 0 .21.21 0 0 1-.18 0 .14.14 0 0 1-.08 0 .39.39 0 0 1-.06-.11v-.06a.28.28 0 0 1 0-.12l.08-.05h.19a.18.18 0 0 1 .07.05.21.21 0 0 1 .06.1V52a.28.28 0 0 1 0 .09ZM18 54.38v.07a.24.24 0 0 1-.08.09h-.06a.16.16 0 0 1-.1 0h-.09a.12.12 0 0 1-.06-.06.22.22 0 0 1-.05-.08s0 0 0-.07a.17.17 0 0 0 0-.07v-.07l.05-.06a.24.24 0 0 1 .11-.06H17.95a.22.22 0 0 1 .05.08.21.21 0 0 1 0 .18Zm1.82-2a.13.13 0 0 1 .06-.07.12.12 0 0 1 .08 0h.1a.11.11 0 0 1 .08 0l.16.08a.24.24 0 0 1 .09.08v.06a.28.28 0 0 1 0 .13l-.06.07a.15.15 0 0 1-.09 0h-.18l-.16-.08a.3.3 0 0 1-.08-.08v-.06a.28.28 0 0 1 0-.12Zm-.49.81a.18.18 0 0 1-.07 0h-.27l-.2-.21a.24.24 0 0 1-.06-.11v-.06a.27.27 0 0 1 0-.12l.08-.05h.18l.08.05.2.21a.21.21 0 0 1 .06.1v.07a.27.27 0 0 1 0 .13Zm.93 3.5a.14.14 0 0 1-.05.08.13.13 0 0 1-.06.07L20 57h-.19l-.1-.07a.16.16 0 0 1 0-.09.34.34 0 0 1 0-.1.12.12 0 0 1 0-.08.13.13 0 0 1 .07-.06l.18-.11a.21.21 0 0 1 .12 0h.06a.24.24 0 0 1 .11.06v.05a.16.16 0 0 1 0 .09.14.14 0 0 1 .01.01Zm.37-1.58v.09l-.06.07h-.22a.24.24 0 0 1-.12 0h-.06a.26.26 0 0 1-.09-.09.17.17 0 0 1 0-.1.29.29 0 0 1 0-.09.23.23 0 0 1 .07-.07h.39a.26.26 0 0 1 .09.09v.06a.28.28 0 0 1 0 .05ZM22 56.17a.18.18 0 0 1-.05.07.21.21 0 0 1-.1.06h-.19a.14.14 0 0 1-.05-.08.21.21 0 0 1 0-.18.14.14 0 0 1 .05-.08.41.41 0 0 1 .11-.07H22a.18.18 0 0 1 0 .11.29.29 0 0 1 0 .09.3.3 0 0 1 0 .08ZM30.92 57.67v-.28c.11-.66.38-1.52 1.19-1.51s1.33.78 1.53 1.5a2.37 2.37 0 0 1 .09.36l3.89.11a6.76 6.76 0 0 0-1.32-4.25 4.54 4.54 0 0 0-4-1.49 5.65 5.65 0 0 0-3.7 2.24 7.41 7.41 0 0 0-1.36 3.23h.59Zm5.64-2.17a.24.24 0 0 1 .08-.09h.06a.16.16 0 0 1 .1 0 .11.11 0 0 1 .08 0 .22.22 0 0 1 .07.06s0 0 0 .08l.09.21a.29.29 0 0 1 0 .13v.06A.3.3 0 0 1 37 56h-.06a.17.17 0 0 1-.1 0 .11.11 0 0 1-.08 0 .13.13 0 0 1-.07-.06.12.12 0 0 1 0-.08l-.09-.21a.28.28 0 0 1-.04-.15Zm-1.44 1.25h.06a.19.19 0 0 1 .14.11.11.11 0 0 1 0 .08.17.17 0 0 1 0 .1.14.14 0 0 1-.05.08.09.09 0 0 1-.06.06.58.58 0 0 1-.22.08h-.28a.24.24 0 0 1-.11-.06v-.05a.31.31 0 0 1 0-.19.2.2 0 0 1 0-.08s0 0 .07-.06H35Zm-.62-3.43a.22.22 0 0 1 0-.08.21.21 0 0 1 .1-.06h.07a.19.19 0 0 1 .12 0h.05a.22.22 0 0 1 0 .08.29.29 0 0 1 0 .09.24.24 0 0 1 0 .09.22.22 0 0 1 0 .08.21.21 0 0 1-.1.06h-.07a.19.19 0 0 1-.12 0h-.05a.22.22 0 0 1 0-.08.29.29 0 0 1 0-.09.24.24 0 0 1 0-.09Zm-.27 1.47v-.08l.07-.06a.12.12 0 0 1 .09 0h.2l.1.07a.27.27 0 0 1 0 .12V55a.12.12 0 0 1 0 .08.13.13 0 0 1-.07.06.12.12 0 0 1-.09 0 .14.14 0 0 1-.09 0h-.11a.21.21 0 0 1-.1-.06v-.05a.27.27 0 0 1 0-.12Zm-1.56.05a.16.16 0 0 1 0 .09.13.13 0 0 1-.06.07.2.2 0 0 1-.08 0H32.32a.24.24 0 0 1-.09-.08v-.06a.17.17 0 0 1 0-.1.16.16 0 0 1 0-.09s0-.05.06-.06H32.64a.24.24 0 0 1 .08.09v.05a.17.17 0 0 1-.05.09Zm-.73-2.17a.25.25 0 0 1 0-.09l.07-.06a.32.32 0 0 1 .09 0h.09l.29.08a.26.26 0 0 1 .14.11.23.23 0 0 1 0 .18.36.36 0 0 1 0 .09l-.07.06h-.19l-.25-.04a.28.28 0 0 1-.15-.11.22.22 0 0 1-.02-.22ZM30 57.3H29.83a.18.18 0 0 1-.05-.07.3.3 0 0 1 0-.1.29.29 0 0 1 0-.09.35.35 0 0 1 .05-.08l.13-.13a.24.24 0 0 1 .11-.06h.06a.16.16 0 0 1 .12 0h.05a.22.22 0 0 1 .05.08.15.15 0 0 1 0 .09v.09a.22.22 0 0 1-.05.08l-.13.13a.24.24 0 0 1-.11.06Zm.41-2.3h.07a.21.21 0 0 1 .1.06.16.16 0 0 1 0 .09.28.28 0 0 1 0 .09.12.12 0 0 1 0 .08.23.23 0 0 1-.07.07l-.16.1a.21.21 0 0 1-.12 0h-.06a.24.24 0 0 1-.11-.06.29.29 0 0 1 0-.18.14.14 0 0 1 .05-.08.13.13 0 0 1 .06-.07l.16-.1a.27.27 0 0 1 .08 0Zm-.84-1.13a.14.14 0 0 1 .08 0 .21.21 0 0 1 .18 0 .14.14 0 0 1 .08 0l.13.15a.24.24 0 0 1 .06.11v.06a.21.21 0 0 1 0 .12v.05a.14.14 0 0 1-.08 0 .21.21 0 0 1-.18 0 .14.14 0 0 1-.08 0l-.13-.16a.21.21 0 0 1-.06-.1V54a.27.27 0 0 1 0-.14Zm-1.36 2.53v-.08l.07-.06a.11.11 0 0 1 .08 0h.28a.21.21 0 0 1 .11.07.32.32 0 0 1 0 .09.34.34 0 0 1 0 .1.2.2 0 0 1 0 .08.13.13 0 0 1-.07.06H28.47a.43.43 0 0 1-.16 0 .21.21 0 0 1-.1-.06v-.05a.27.27 0 0 1 0-.12ZM49.46 53.44a5.73 5.73 0 0 0-6.23 2.26 6.56 6.56 0 0 0-1 2.2h3.94a1.54 1.54 0 0 1 .08-.19 1.41 1.41 0 0 1 1.55-.92 2 2 0 0 1 1.23 1.1h3.56a9.1 9.1 0 0 0-.55-1.51 4.9 4.9 0 0 0-2.58-2.94Zm-5.2 3.14a.3.3 0 0 1 0 .08l-.07.06a.14.14 0 0 1-.09 0h-.18a.41.41 0 0 1-.11-.07.19.19 0 0 1 0-.12v-.07a.2.2 0 0 1 0-.08.13.13 0 0 1 .07-.06.16.16 0 0 1 .09 0h.11a.21.21 0 0 1 .1.06.27.27 0 0 1 0 .12Zm1.79.68a.2.2 0 0 1 0 .08.13.13 0 0 1-.07.06l-.21.11a.27.27 0 0 1-.12 0h-.06a.24.24 0 0 1-.11-.06v-.09a.28.28 0 0 1 0-.09.2.2 0 0 1 0-.08.13.13 0 0 1 .07-.06l.15-.13a.27.27 0 0 1 .12 0h.06a.26.26 0 0 1 .12 0 .29.29 0 0 1 0 .09.17.17 0 0 1 .05.17Zm.05-.82a.24.24 0 0 1-.06.11.21.21 0 0 1-.12 0h-.06a.2.2 0 0 1-.08 0 .13.13 0 0 1-.06-.07.16.16 0 0 1 0-.09v-.09a.31.31 0 0 1 0-.19.22.22 0 0 1 .11-.14h.09a.14.14 0 0 1 .09 0 .15.15 0 0 1 .09 0L46 56a.37.37 0 0 1 0 .11.25.25 0 0 1 0 .07v.13a.51.51 0 0 1 .1.13Zm.58-2.44a.22.22 0 0 1-.11.14l-.57.26a.27.27 0 0 1-.12 0h-.07a.26.26 0 0 1-.14-.11.25.25 0 0 1 0-.19.22.22 0 0 1 .11-.14l.55-.26h.19a.19.19 0 0 1 .14.11.22.22 0 0 1 .02.19Zm1.43-.52a.24.24 0 0 1 0 .48.24.24 0 0 1 0-.48Zm.39 1.41a.16.16 0 0 1 0 .09.13.13 0 0 1-.06.07.2.2 0 0 1-.08 0l-.24.08h-.18l-.09-.09v-.06a.14.14 0 0 1 0-.09.24.24 0 0 1 0-.09l.07-.07a.2.2 0 0 1 .08 0l.23-.08a.28.28 0 0 1 .13 0h.06a.24.24 0 0 1 .08.09.17.17 0 0 1 0 .15Zm.71 1.37a.16.16 0 0 1 0 .09.12.12 0 0 1-.06.06l-.08.05h-.13a.29.29 0 0 1-.13 0h-.06a.3.3 0 0 1-.08-.08v-.06a.14.14 0 0 1 0-.09.12.12 0 0 1 0-.09.13.13 0 0 1 .06-.07.12.12 0 0 1 .08 0l.13-.06A.28.28 0 0 1 49 56h.06a.3.3 0 0 1 .08.08v.06a.17.17 0 0 1 .07.12Zm1.12-1.16-.08-.05a.22.22 0 0 1 0-.08.29.29 0 0 1 0-.09.41.41 0 0 0 0-.11.45.45 0 0 0 0-.11.29.29 0 0 1 0-.09v-.07a.22.22 0 0 1 .11-.14h.18l.08.05s.05 0 .07.06a.86.86 0 0 1 .08.44.27.27 0 0 1 0 .12.22.22 0 0 1-.17.07Zm.81 2.32a.14.14 0 0 1 0 .08l-.15.13a.24.24 0 0 1-.11.06h-.06a.21.21 0 0 1-.12 0l-.05-.07a.16.16 0 0 1 0-.1.15.15 0 0 1 0-.09.35.35 0 0 1 .05-.08l.16-.13a.21.21 0 0 1 .1-.06h.06a.28.28 0 0 1 .13 0 .14.14 0 0 1 0 .08.21.21 0 0 1 0 .18Zm.28-1.16a.22.22 0 0 1-.05.08.12.12 0 0 1-.06.06.7.7 0 0 1-.23.08h-.24a.28.28 0 0 1-.17-.07.36.36 0 0 1-.07-.17.3.3 0 0 1 0-.1.18.18 0 0 1 .05-.07.23.23 0 0 1 .17-.07h.06l.18-.05h.17a.26.26 0 0 1 .14.11.16.16 0 0 1 0 .09.17.17 0 0 1 .05.11ZM65 53.56a5.42 5.42 0 0 0-3.31 0 6 6 0 0 0-2.79 2 7.5 7.5 0 0 0-1.15 2.14l4.17-.1a1.31 1.31 0 0 1 .25-.32 1.17 1.17 0 0 1 1.73.13l.11.12 4.16-.14a6.23 6.23 0 0 0-.6-1.78A4.38 4.38 0 0 0 65 53.56Zm-3.63 1v-.06l.08-.08h.15a.12.12 0 0 1 .09 0 .13.13 0 0 1 .07.06.12.12 0 0 1 0 .08l.06.18a.28.28 0 0 1 0 .13v.06a.34.34 0 0 1-.08.09h-.25l-.06-.07a.22.22 0 0 1 0-.08v-.18a.29.29 0 0 1-.09-.11Zm-1.42 1.76v.08a.21.21 0 0 1-.06.1h-.32l-.06-.07a.11.11 0 0 1 0-.08v-.06a.23.23 0 0 1 0-.11v-.06a.39.39 0 0 1 .06-.11h.05a.16.16 0 0 1 .09 0 .17.17 0 0 1 .1 0 .2.2 0 0 1 .08 0 .13.13 0 0 1 .06.07v.13Zm2 .78a.16.16 0 0 1 0 .09.13.13 0 0 1-.06.07H61.74a.24.24 0 0 1-.11.06h-.06a.24.24 0 0 1-.12 0h-.05a.22.22 0 0 1 0-.08v-.09a.15.15 0 0 1 0-.09.22.22 0 0 1 0-.08h.05l.09-.08h.36a.24.24 0 0 1 .08.09v.06a.14.14 0 0 1-.07.07Zm.05-1.16a.11.11 0 0 1 0 .06.22.22 0 0 1-.06.07s0 0-.08 0h-.08a.24.24 0 0 1-.11.06h-.06a.27.27 0 0 1-.12 0 .22.22 0 0 1-.05-.08.21.21 0 0 1 0-.18.22.22 0 0 1 .05-.08l.08-.06.08-.06h.18a.28.28 0 0 1 .13 0 .24.24 0 0 1 .09.08v.06a.31.31 0 0 1-.05.13Zm1.87.31a.24.24 0 0 1 0-.48.24.24 0 0 1 .02.48Zm.65-2.08a.24.24 0 0 1-.14.1 1 1 0 0 1-.52 0 .19.19 0 0 1-.14-.11.23.23 0 0 1 0-.18.2.2 0 0 1 .11-.14.26.26 0 0 1 .19 0h.26a.29.29 0 0 1 .13 0h.06a.26.26 0 0 1 .11.14.32.32 0 0 1-.04.19Zm1.33 1.56a.22.22 0 0 1-.05.08h-.58a.22.22 0 0 1-.07-.17.29.29 0 0 1 0-.09.22.22 0 0 1 0-.08H65.61a.27.27 0 0 1 .12 0 .22.22 0 0 1 .07.17.29.29 0 0 1 .07.09Zm.52-1.13a.16.16 0 0 1 0 .09v.05a.34.34 0 0 1-.08.09h-.25l-.06-.07a.22.22 0 0 1 0-.08.14.14 0 0 1 0-.09.16.16 0 0 1 0-.09.24.24 0 0 1 .08-.09h.06a.15.15 0 0 1 .13 0l.07.06v.08a.38.38 0 0 1 .07.05Zm.85 2.11a.35.35 0 0 1 0 .08l-.08.07a.41.41 0 0 0 0 .09.21.21 0 0 1-.06.1h-.18a.2.2 0 0 1-.08 0 .23.23 0 0 1-.07-.07.29.29 0 0 1 0-.09.14.14 0 0 1 0-.09.84.84 0 0 1 .06-.14v-.07a.57.57 0 0 1 .15-.16.21.21 0 0 1 .1-.06H67a.28.28 0 0 1 .17.07.22.22 0 0 1 0 .08.2.2 0 0 1 0 .09.29.29 0 0 1 .07.1Z" class="cls-10"/><path d="M1.07 21.31a.49.49 0 0 0 .59-.31 1.45 1.45 0 0 1 .09-.22 10.76 10.76 0 0 1 1.82-2.89c.79-.92 1.64-1.79 2.51-2.64a48.9 48.9 0 0 1 5.35-4.49 50.09 50.09 0 0 1 12.4-6.55 49.19 49.19 0 0 1 7.66-2.06.48.48 0 0 0 .33-.59.49.49 0 0 0-.58-.29 49.86 49.86 0 0 0-13.63 4.58 50.37 50.37 0 0 0-11.77 8.29C4.86 15.07 3.9 16 3 17.05a12.3 12.3 0 0 0-2.27 3.67.45.45 0 0 0 0 .28.49.49 0 0 0 .34.31ZM34.21 1.49A27.29 27.29 0 0 1 39.69 1a5.45 5.45 0 0 1 2.39.49 11.32 11.32 0 0 1 2 1.35q4.14 3.33 8.18 6.8t8 7.06l2 1.86c1.93 1.77 3.86 3.59 5.74 5.44 1.74 1.7 3.47 3.41 5.17 5.15q1.18 1.2 2.34 2.4l.94 1a.41.41 0 0 0 .39.13.49.49 0 0 0 .29-.81q-3.75-3.92-7.63-7.72t-7.83-7.44q-4-3.68-8.1-7.22t-8.28-6.94C44 1.49 42.63.35 40.9.1a13.22 13.22 0 0 0-2.74-.1c-.95 0-1.88.15-2.82.29q-.69.15-1.34.28a.41.41 0 0 0-.33.54.5.5 0 0 0 .54.38Z" class="cls-11"/><path d="M74.84 31.76a.49.49 0 0 0-.48-.48q-7-.83-14-2c-4.64-.78-9.26-1.68-13.86-2.66s-9.26-2-13.94-2.72-9.3-1.35-13.95-1.9-9.37-1-14.07-1.41l-1.75-.16a.39.39 0 0 0-.45.36.52.52 0 0 0 .45.6c4.7.43 9.39.87 14.07 1.37q4 .43 7.93.94c2 .27 4 .55 6 .86s3.79.62 5.68 1q4.14.77 8.26 1.67c4.6 1 9.21 1.92 13.85 2.72s9.32 1.5 14 2.08l1.48.17h.27a.48.48 0 0 0 .51-.44ZM1.16 30.06a11.26 11.26 0 0 0 2.68 4l.09.09a6.53 6.53 0 0 0 5.74 2 8.17 8.17 0 0 0 2.91-1.36 17.79 17.79 0 0 0 2.23-1.83l.09-.09a17.49 17.49 0 0 0 3.71-5.34c0-.09.09-.17.12-.26a.5.5 0 0 0-.17-.66.49.49 0 0 0-.65.17 16.87 16.87 0 0 1-3 4.74 18.15 18.15 0 0 1-2.08 1.93 13 13 0 0 1-1.61 1.09 7.49 7.49 0 0 1-.86.41 5 5 0 0 1-1.5.34c-3.23.19-5.89-3.09-6.94-6A17.73 17.73 0 0 1 1 22.23a.44.44 0 0 0-.48-.46.47.47 0 0 0-.48.46 20 20 0 0 0 .69 6.58 12.28 12.28 0 0 0 .43 1.25ZM39.28 30.26h-.11a.5.5 0 0 0-.55.21A16.26 16.26 0 0 1 30.87 36a9.37 9.37 0 0 1-5.41.43A7.12 7.12 0 0 1 22 34a13 13 0 0 1-2.29-4.48.48.48 0 0 0-.68-.28.42.42 0 0 0-.24.54c.92 3 2.76 6.14 5.85 7.33a9.24 9.24 0 0 0 5.81 0 16.59 16.59 0 0 0 4.74-2.18 17.41 17.41 0 0 0 4.28-4 .42.42 0 0 0 .06-.31.58.58 0 0 0-.12-.25.52.52 0 0 0-.13-.11ZM45.64 37.14c-2.34-.66-3.77-2.79-4.92-4.79a.44.44 0 0 0-.45-.23.48.48 0 0 0-.37.71c1.27 2.23 2.89 4.5 5.48 5.24a.47.47 0 0 0 .59-.51.45.45 0 0 0-.33-.42ZM56.65 32.46a23.91 23.91 0 0 1-3.72 2.84c-.64.41-1.3.82-2 1.19a3.88 3.88 0 0 1-2.18.62.46.46 0 0 0-.37.76.47.47 0 0 0 .37.2 4.65 4.65 0 0 0 2.41-.61c.73-.38 1.44-.83 2.15-1.28a25.55 25.55 0 0 0 4-3 .34.34 0 0 0 .13-.22.48.48 0 0 0-.79-.5ZM77.06 33.74a10.05 10.05 0 0 1-6 4 12.43 12.43 0 0 1-8.18-.93 13.93 13.93 0 0 1-3.71-2.55.47.47 0 0 0-.72.07.43.43 0 0 0 0 .6c4.2 4 11 5.53 16.09 2.38a11 11 0 0 0 2.73-2.39c.19-.23.37-.47.54-.71a.46.46 0 0 0-.47-.7.47.47 0 0 0-.28.23ZM56.17 64.91c-6.19.28-12.38.46-18.57.58s-12.38.18-18.57.22l-10.4.06a.49.49 0 0 0-.32.84.46.46 0 0 0 .32.11q9.28 0 18.57-.12t18.57-.35c3.47-.1 6.93-.22 10.4-.38a.45.45 0 0 0 .42-.3.46.46 0 0 0-.42-.66ZM75.72 64.08q-6.85.18-13.71.56l-3.86.22a.51.51 0 0 0-.43.68.39.39 0 0 0 .43.28c4.57-.28 9.13-.51 13.7-.66q1.94-.07 3.87-.12a.49.49 0 0 0 .36-.8.44.44 0 0 0-.36-.16Z" class="cls-11"/><path d="M76.57 36.89q-.18 3.78-.37 7.58c-.12 2.49-.26 5-.39 7.47-.08 1.31-.15 2.62-.23 3.92 0 .43 0 .86-.07 1.29h-.6c-2.25.12-4.51.21-6.77.3l-4.14.16-2.09.07-4.17.1-5.11.08h-14.2q-6.43-.06-12.77-.28l-4-.14h-.08L19 57.33l-4.15-.2-3.2-.13a.39.39 0 0 0-.37.17.51.51 0 0 0 .38.78q12.48.7 25 .88t25-.16q6.93-.18 13.86-.53c-.06 1-.13 2.11-.19 3.16a.39.39 0 0 0 .15.36.53.53 0 0 0 .66 0 .64.64 0 0 0 .1-.13.87.87 0 0 0 0-.19q.59-9.48 1-19c.09-1.81.17-3.61.26-5.41a.41.41 0 0 0-.25-.42.5.5 0 0 0-.68.38Z" class="cls-11"/><path d="M55.8 46a128.28 128.28 0 0 0 14-.52c1.33-.12 2.66-.27 4-.43a.53.53 0 0 0 .45-.33.77.77 0 0 0 0-.15c0-.23-.22-.51-.47-.48a130.77 130.77 0 0 1-14 1h-4a.43.43 0 0 0-.42.27.49.49 0 0 0 .44.64ZM4.84 48.86l.58.06q8.91 1 17.84 1.74 9.22.78 18.46 1.35 5.18.32 10.35.57a.45.45 0 0 0 .44-.59.45.45 0 0 0-.44-.37q-9.26-.45-18.48-1.11T15.15 49c-3.44-.33-6.87-.68-10.31-1.06a.47.47 0 0 0-.44.66.53.53 0 0 0 .44.26Z" class="cls-11"/><path d="M5 66c-.13-1.2-.26-2.39-.4-3.59l5 .13q8.12.21 16.23.34 10.89.18 21.78.2h12.28a.46.46 0 0 0 .46-.5.44.44 0 0 0-.46-.45q-10.95.06-21.89 0t-21.77-.32q-5.85-.14-11.69-.3L4 57.12c-.16-1.42-.31-2.84-.47-4.25s-.31-2.94-.47-4.4c-.26-2.5-.53-5-.79-7.48A33.63 33.63 0 0 0 11 42.8c3.36.35 6.72.67 10.08 1 6.8.65 13.6 1.26 20.42 1.69q5.74.36 11.5.53a.47.47 0 0 0 .34-.8.44.44 0 0 0-.34-.15c-6.79-.2-13.57-.63-20.35-1.19-6.45-.52-12.9-1.16-19.34-1.81l-1-.09c-1.65-.17-3.32-.34-5-.62a27.68 27.68 0 0 1-3-.67 21.91 21.91 0 0 1-2.24-.77v-.19l-.75-7.39a.49.49 0 0 0-.48-.48.48.48 0 0 0-.48.48q.66 6.57 1.36 13.14c.31 3 .64 6 1 9 .1.88.19 1.76.29 2.64.06.5.11 1 .16 1.5.11 1 .22 2 .34 3a.52.52 0 0 0 .08.69l.06.53L4 66a.49.49 0 0 0 .48.48A.47.47 0 0 0 5 66Z" class="cls-11"/><path d="M14.45 55.85a.2.2 0 0 0-.09-.09l-.15-.1h-.09a.17.17 0 0 0-.1 0 .12.12 0 0 0-.08 0 .13.13 0 0 0-.06.07.29.29 0 0 0 0 .13v.06a.3.3 0 0 0 .08.08l.16.1h.27l.06-.07v-.06a.28.28 0 0 0 0-.13ZM15.09 54.48a.13.13 0 0 0-.06-.07h-.14a.28.28 0 0 0-.13 0 .41.41 0 0 0-.07.11l-.07.18a.28.28 0 0 0 0 .09v.09l.06.07h.27L15 55a.21.21 0 0 0 .06-.1c0-.06.05-.12.08-.19a.14.14 0 0 0 0-.09.16.16 0 0 0-.05-.14ZM14.94 52.73a.24.24 0 0 0 0 .48.24.24 0 0 0 0-.48ZM16.27 51.8a.18.18 0 0 0-.07-.05h-.19l-.08.05a.28.28 0 0 0 0 .12V52a.39.39 0 0 0 .06.11.14.14 0 0 0 .08 0 .21.21 0 0 0 .18 0 .14.14 0 0 0 .08 0 .28.28 0 0 0 0-.13v-.08a.21.21 0 0 0-.06-.1ZM12.76 54.06l-.08-.06h-.06a.28.28 0 0 0-.13 0h-.28a.23.23 0 0 0-.07.07.29.29 0 0 0 0 .09.17.17 0 0 0 0 .1v.05a.26.26 0 0 0 .09.09h.18l.21-.05a.12.12 0 0 0 .08 0 .13.13 0 0 0 .06-.07.11.11 0 0 0 0-.08.17.17 0 0 0 0-.1ZM18 54.12H17.77a.24.24 0 0 0-.11.06l-.05.06v.07a.17.17 0 0 1 0 .07v.07a.22.22 0 0 0 .05.08.12.12 0 0 0 .06.06h.09a.16.16 0 0 0 .1 0h.06a.24.24 0 0 0 .08-.09v-.07a.21.21 0 0 0 0-.18.22.22 0 0 0-.05-.13Zm0 .31v-.05ZM19.29 52.91l-.2-.21-.09-.05h-.18l-.08.05a.27.27 0 0 0 0 .12v.06a.24.24 0 0 0 .06.11l.2.21h.27a.18.18 0 0 0 .07 0 .27.27 0 0 0 0-.12V53a.21.21 0 0 0-.05-.09ZM19.85 52.58a.3.3 0 0 0 .08.08l.16.08h.18a.15.15 0 0 0 .09 0l.06-.07a.28.28 0 0 0 0-.13v-.06a.24.24 0 0 0-.09-.08l-.16-.08a.11.11 0 0 0-.08 0H20a.12.12 0 0 0-.08 0 .13.13 0 0 0-.06.07.28.28 0 0 0 0 .13ZM20.6 55a.26.26 0 0 0-.09-.09h-.39a.23.23 0 0 0-.07.07.29.29 0 0 0 0 .09.17.17 0 0 0 0 .1.26.26 0 0 0 .09.09h.06a.24.24 0 0 0 .12 0h.22l.06-.07v-.09a.28.28 0 0 0 0-.09ZM20.23 56.52v-.05a.24.24 0 0 0-.11-.06H20a.21.21 0 0 0-.12 0l-.18.11a.13.13 0 0 0-.07.06.12.12 0 0 0 0 .08.34.34 0 0 0 0 .1.16.16 0 0 0 0 .09l.1.07h.07l.2.08.18-.1a.13.13 0 0 0 .06-.07.17.17 0 0 0 .05-.17.16.16 0 0 0-.06-.14ZM21.93 55.91H21.7a.41.41 0 0 0-.11.07.14.14 0 0 0-.05.08.21.21 0 0 0 0 .18.14.14 0 0 0 .05.08h.19a.21.21 0 0 0 .1-.06.18.18 0 0 0 .05-.07.3.3 0 0 0 0-.1A.29.29 0 0 0 22 56a.18.18 0 0 0-.07-.09ZM28.27 56.63a.21.21 0 0 0 .1.06.43.43 0 0 0 .16 0H28.74a.13.13 0 0 0 .07-.06.2.2 0 0 0 0-.08.34.34 0 0 0 0-.1.32.32 0 0 0 0-.09.21.21 0 0 0-.11-.07H28.4a.11.11 0 0 0-.08 0l-.07.06V56.5a.27.27 0 0 0 0 .12ZM29.61 54.15l.13.16a.14.14 0 0 0 .08 0 .21.21 0 0 0 .18 0 .14.14 0 0 0 .08 0v-.05a.21.21 0 0 0 0-.12v-.06a.24.24 0 0 0-.06-.11l-.02-.15a.14.14 0 0 0-.08 0 .21.21 0 0 0-.18 0 .14.14 0 0 0-.08 0 .27.27 0 0 0 0 .12v.07a.21.21 0 0 0-.05.14ZM30.07 55.19a.17.17 0 0 0-.05.17.14.14 0 0 0 0 .09.24.24 0 0 0 .11.06h.06a.21.21 0 0 0 .12 0l.16-.1a.23.23 0 0 0 .07-.07.12.12 0 0 0 0-.08.28.28 0 0 0 0-.09.16.16 0 0 0 0-.09.21.21 0 0 0-.1-.06h-.07a.27.27 0 0 0-.12 0l-.16.1a.13.13 0 0 0-.02.07ZM30.34 57.1a.22.22 0 0 0 .05-.08s0-.05 0-.09a.15.15 0 0 0 0-.09.22.22 0 0 0-.05-.08h-.05a.16.16 0 0 0-.12 0h-.06a.24.24 0 0 0-.11.06l-.13.13a.35.35 0 0 0-.05.08.29.29 0 0 0 0 .09.3.3 0 0 0 0 .1.18.18 0 0 0 .05.07H30.1a.24.24 0 0 0 .11-.06ZM32.64 54.69a.24.24 0 0 0-.08-.09H32.21l-.06.06a.16.16 0 0 0 0 .09.17.17 0 0 0 0 .1v.06a.24.24 0 0 0 .09.08H32.45a.2.2 0 0 0 .08 0 .13.13 0 0 0 .06-.07.16.16 0 0 0 0-.09.17.17 0 0 0 0-.1ZM32.11 53l.28.08h.19l.07-.06a.36.36 0 0 0 0-.09.23.23 0 0 0 0-.18.26.26 0 0 0-.14-.11l-.29-.08h-.09a.32.32 0 0 0-.09 0l-.07.06a.25.25 0 0 0 0 .09.22.22 0 0 0 0 .18.28.28 0 0 0 .14.11ZM34.55 53.58h.05a.19.19 0 0 0 .12 0h.07a.21.21 0 0 0 .1-.06.22.22 0 0 0 0-.08.24.24 0 0 0 0-.09.29.29 0 0 0 0-.09.22.22 0 0 0 0-.08h-.05a.19.19 0 0 0-.12 0h-.07a.21.21 0 0 0-.1.06.22.22 0 0 0 0 .08.24.24 0 0 0 0 .09.29.29 0 0 0 0 .09.22.22 0 0 0 0 .08ZM34.29 55a.21.21 0 0 0 .1.06h.11a.14.14 0 0 0 .09 0 .12.12 0 0 0 .09 0 .13.13 0 0 0 .07-.06.12.12 0 0 0 0-.08v-.07a.27.27 0 0 0 0-.12l-.1-.07h-.2a.12.12 0 0 0-.09 0l-.07.06V54.87a.27.27 0 0 0 0 .12ZM34.83 56.8h-.15l-.07.06a.2.2 0 0 0 0 .08.31.31 0 0 0 0 .19v.05a.24.24 0 0 0 .11.06H35a.58.58 0 0 0 .22-.08.09.09 0 0 0 .06-.06.14.14 0 0 0 .05-.08.17.17 0 0 0 0-.1.11.11 0 0 0 0-.08.19.19 0 0 0-.14-.11h-.26ZM36.65 55.84a.12.12 0 0 0 0 .08.13.13 0 0 0 .07.06.11.11 0 0 0 .08 0 .17.17 0 0 0 .1 0l.1.02a.3.3 0 0 0 .08-.08v-.06a.29.29 0 0 0 0-.13L37 55.5v-.08a.22.22 0 0 0-.07-.06.11.11 0 0 0-.08 0 .16.16 0 0 0-.1 0h-.06a.24.24 0 0 0-.08.09.28.28 0 0 0 0 .13ZM44.2 56.34a.21.21 0 0 0-.1-.06h-.18a.16.16 0 0 0-.09 0 .13.13 0 0 0-.07.06.2.2 0 0 0 0 .08v.07a.19.19 0 0 0 0 .12.41.41 0 0 0 .11.07H44.04a.14.14 0 0 0 .09 0l.07-.06a.3.3 0 0 0 0-.08v-.07a.27.27 0 0 0 0-.12ZM46.08 56.11A.37.37 0 0 0 46 56v-.07a.15.15 0 0 0-.09 0 .14.14 0 0 0-.09 0h-.09a.22.22 0 0 0-.11.14.31.31 0 0 0 0 .19v.06a.16.16 0 0 0 0 .09.13.13 0 0 0 .06.07.2.2 0 0 0 .08 0h.06a.21.21 0 0 0 .12 0 .24.24 0 0 0 .06-.11.51.51 0 0 0 0-.13v-.13a.25.25 0 0 0 .08 0ZM46 57.07a.26.26 0 0 0-.11-.07h-.06a.27.27 0 0 0-.12 0l-.21.11a.13.13 0 0 0-.07.06.2.2 0 0 0 0 .08.28.28 0 0 0 0 .09v.09a.24.24 0 0 0 .11.06h.06a.27.27 0 0 0 .12 0l.21-.11a.13.13 0 0 0 .07-.06.2.2 0 0 0 0-.08.17.17 0 0 0 0-.1.29.29 0 0 0 0-.07ZM48.47 54.74a.24.24 0 0 0-.08-.09h-.06a.28.28 0 0 0-.13 0l-.23.08a.2.2 0 0 0-.08 0l-.07.07a.24.24 0 0 0 0 .09.14.14 0 0 0 0 .09v.06l.09.09h.18l.24-.08a.2.2 0 0 0 .08 0 .13.13 0 0 0 .06-.07.16.16 0 0 0 0-.09.17.17 0 0 0 0-.1ZM46.52 53.71h-.19l-.55.26a.22.22 0 0 0-.11.14.25.25 0 0 0 0 .19.26.26 0 0 0 .14.11h.07a.27.27 0 0 0 .12 0l.55-.26a.22.22 0 0 0 .11-.14.22.22 0 0 0 0-.18.19.19 0 0 0-.14-.12ZM48.11 54a.24.24 0 0 0 0-.48.24.24 0 0 0 0 .48ZM50.63 55a.27.27 0 0 0 0-.12.86.86 0 0 0-.08-.44s0 0-.07-.06l-.08-.05h-.18a.22.22 0 0 0-.11.14v.07a.29.29 0 0 0 0 .09.45.45 0 0 1 0 .11.41.41 0 0 1 0 .11.29.29 0 0 0 0 .09.22.22 0 0 0 0 .08l.08.05h.09a.22.22 0 0 0 .17-.07ZM49.18 56.1a.3.3 0 0 0-.08-.1H49a.28.28 0 0 0-.13 0l-.13.06a.12.12 0 0 0-.08 0 .13.13 0 0 0-.06.07.12.12 0 0 0 0 .09.14.14 0 0 0 0 .09v.06a.3.3 0 0 0 .08.08h.06a.29.29 0 0 0 .13 0H49l.08-.05a.12.12 0 0 0 .06-.06.16.16 0 0 0 0-.09.17.17 0 0 0 0-.1ZM51.09 57.16a.28.28 0 0 0-.13 0h-.06a.21.21 0 0 0-.1.06l-.16.13a.35.35 0 0 0-.05.08.15.15 0 0 0 0 .09.16.16 0 0 0 0 .1l.05.07a.21.21 0 0 0 .12 0h.06a.24.24 0 0 0 .11-.06l.15-.13a.14.14 0 0 0 0-.08.21.21 0 0 0 0-.18.14.14 0 0 0 .01-.08ZM51.39 56.07a.26.26 0 0 0-.14-.11h-.17l-.18.04h-.06a.23.23 0 0 0-.17.07.18.18 0 0 0-.05.07.3.3 0 0 0 0 .1.36.36 0 0 0 .07.17.28.28 0 0 0 .17.07h.24a.7.7 0 0 0 .23-.08.12.12 0 0 0 .06-.06.22.22 0 0 0 .05-.08.17.17 0 0 0 0-.1.16.16 0 0 0-.05-.09ZM59.92 56.29v-.13a.13.13 0 0 0-.12-.16.2.2 0 0 0-.08 0 .17.17 0 0 0-.1 0 .16.16 0 0 0-.09 0h-.05a.39.39 0 0 0-.06.11v.06a.23.23 0 0 0 0 .11v.06a.11.11 0 0 0 0 .08l.06.07h.32a.21.21 0 0 0 .06-.1s0-.06 0-.08ZM61.39 54.89a.22.22 0 0 0 0 .08s0 .05.06.07h.25a.34.34 0 0 0 .08-.09v-.06a.28.28 0 0 0 0-.13l-.06-.18a.12.12 0 0 0 0-.08.13.13 0 0 0-.07-.06.12.12 0 0 0-.09 0h-.15l-.08.08v.06a.29.29 0 0 0 0 .13ZM62 55.78a.24.24 0 0 0-.09-.08.28.28 0 0 0-.13 0h-.18l-.08.06-.08.06a.22.22 0 0 0-.05.08.21.21 0 0 0 0 .18.22.22 0 0 0 .05.08.27.27 0 0 0 .12 0h.06a.24.24 0 0 0 .11-.06h.16A.22.22 0 0 0 62 56a.11.11 0 0 0 0-.08.31.31 0 0 0 0-.1ZM61.88 57a.24.24 0 0 0-.08-.09h-.36l-.09.08h-.05a.22.22 0 0 0 0 .08.15.15 0 0 0 0 .09v.09a.22.22 0 0 0 0 .08h.05a.24.24 0 0 0 .12 0h.06a.24.24 0 0 0 .11-.06H61.79a.13.13 0 0 0 .06-.07.16.16 0 0 0 0-.09.14.14 0 0 0 0-.09ZM63.89 55.77a.24.24 0 0 0 0 .48.24.24 0 0 0 0-.48ZM64.46 53.84h-.06a.29.29 0 0 0-.13 0h-.26a.26.26 0 0 0-.19 0 .2.2 0 0 0-.11.14.23.23 0 0 0 0 .18.19.19 0 0 0 .14.11 1 1 0 0 0 .52 0 .24.24 0 0 0 .14-.1.32.32 0 0 0 0-.19.26.26 0 0 0-.05-.14ZM66.34 54.42l-.07-.06a.15.15 0 0 0-.13 0h-.06a.24.24 0 0 0-.08.09.16.16 0 0 0 0 .09.14.14 0 0 0 0 .09.22.22 0 0 0 0 .08s0 .05.06.07h.25a.34.34 0 0 0 .08-.09v-.05a.16.16 0 0 0 0-.09.38.38 0 0 0 0-.1s-.03 0-.05-.03ZM65.77 55.43a.27.27 0 0 0-.12 0h-.46a.22.22 0 0 0 0 .08.29.29 0 0 0 0 .09.22.22 0 0 0 .07.17h.58a.22.22 0 0 0 .05-.08.29.29 0 0 0 0-.09.22.22 0 0 0-.07-.17ZM67.19 56.45a.28.28 0 0 0-.17-.07H67a.21.21 0 0 0-.1.06.57.57 0 0 0-.15.16v.07a.84.84 0 0 0-.06.14.14.14 0 0 0 0 .09.29.29 0 0 0 0 .09.23.23 0 0 0 .07.07.2.2 0 0 0 .08 0h.18a.21.21 0 0 0 .06-.1.41.41 0 0 1 0-.09l.08-.07a.35.35 0 0 0 0-.08.29.29 0 0 0 0-.09.2.2 0 0 0 0-.09.22.22 0 0 0 .03-.09Z" class="cls-12"/></g></g></svg>