<svg xmlns="http://www.w3.org/2000/svg" viewBox="0 0 922.73 922.73"><g data-name="Capa 2"><path d="M168.41 0h585.9a168.41 168.41 0 0 1 168.42 168.41v585.91a168.41 168.41 0 0 1-168.41 168.41h-585.9A168.42 168.42 0 0 1 0 754.32V168.41A168.41 168.41 0 0 1 168.41 0Z" style="fill:none"/><path d="M502.16 150.36h105.61c10.3 90.29 62.38 137.83 150.56 150.27v103.73c-53.58 2.41-100.87-15.32-147.28-45-.66 7.45-1.56 12.84-1.57 18.24-.09 66 .21 132-.12 198-.55 111.32-80.29 192.63-195.89 200.21-92.39 6.06-185-74.42-199.52-173.42-17.37-118.26 82.53-228.7 201.76-222.91 6.47.31 12.9 1.61 20.35 2.58v105.1c-5.65 0-11.24.26-16.81 0-53.87-2.89-96.93 34.45-98.86 85.85-1.85 49 36.76 91.47 84.85 93.29 54.4 2.06 96.33-36.06 96.62-90.41.69-132 .27-263.94.3-395.91Z" style="fill:#bf335e"/><path d="M476.57 125.85h105.62c10.29 90.3 62.37 137.83 150.56 150.27v103.73c-53.58 2.41-100.88-15.31-147.28-45-.67 7.45-1.56 12.85-1.57 18.24-.1 66 .2 132-.12 198-.55 111.31-80.3 192.63-195.89 200.21-92.39 6-185-74.42-199.52-173.42C171 459.56 270.9 349.13 390.13 354.92c6.47.31 12.89 1.6 20.35 2.57v105.17c-5.65 0-11.25.26-16.81 0-53.87-2.9-96.93 34.44-98.87 85.84-1.84 49 36.77 91.47 84.85 93.3 54.4 2.06 96.34-36.06 96.62-90.42.7-132 .27-263.94.3-395.91Z" style="fill:#74b4cb"/><path d="M642.83 242.37c-28.43-21-47.46-51.4-56.45-92h-84.22v29.58c0 132 .39 263.94-.3 395.91-.29 54.35-42.22 92.47-96.62 90.41-28.06-1.06-52.82-16-68.27-38a91 91 0 0 1-42.17-79.83c1.94-51.4 45-88.74 98.87-85.84 5.56.3 11.16 0 16.81 0v-83.28C293.59 377 196.84 485.8 214 602.33c5.86 39.89 24.4 76.76 50.49 106.19 35.51 28.91 79.51 45.61 123.4 42.73 115.59-7.58 195.34-88.9 195.89-200.21.32-66 0-132 .12-198 0-5.39.9-10.79 1.57-18.24 46.4 29.7 93.7 47.42 147.28 45V276.12c-36.24-5.12-66.27-16.26-89.92-33.75Z" style="fill:#dbaea5"/></g></svg>