<svg xmlns="http://www.w3.org/2000/svg" viewBox="0 0 922.73 922.73"><defs><style>.cls-2{fill:#dbaea5;stroke:#532d11;stroke-miterlimit:10;stroke-width:4px}</style></defs><g id="Capa_2" data-name="Capa 2"><g id="Capa_2-2" data-name="Capa 2"><path d="M168.41 0h585.9a168.41 168.41 0 0 1 168.42 168.41v585.91a168.41 168.41 0 0 1-168.41 168.41h-585.9A168.42 168.42 0 0 1 0 754.32V168.41A168.41 168.41 0 0 1 168.41 0Z" style="fill:none"/><path d="M461.37 165.06c96.5 0 107.93.38 146 2.12 35.23 1.6 54.38 7.49 67.11 12.44 16.87 6.55 28.9 14.38 41.55 27s20.49 24.68 27 41.56c5 12.73 10.82 31.86 12.43 67.1 1.75 38.12 2.12 49.54 2.12 146.06s-.37 107.92-2.12 146c-1.61 35.23-7.48 54.38-12.43 67.11-6.56 16.87-14.4 28.91-27 41.55s-24.68 20.49-41.55 27c-12.73 5-31.88 10.84-67.11 12.44-38.1 1.74-49.54 2.11-146 2.11s-107.94-.37-146-2.11c-35.23-1.6-54.37-7.48-67.11-12.44-16.87-6.55-28.9-14.39-41.55-27s-20.48-24.68-27-41.55c-5-12.73-10.82-31.88-12.43-67.11-1.75-38.11-2.12-49.54-2.12-146s.37-107.94 2.12-146.06c1.61-35.24 7.48-54.37 12.43-67.1 6.57-16.88 14.4-28.92 27-41.56s24.68-20.49 41.55-27c12.74-5 31.88-10.84 67.11-12.44 38.12-1.74 49.53-2.12 146.05-2.12m0-65.12c-98.16 0-110.46.43-149 2.18s-64.74 7.86-87.72 16.81c-23.78 9.24-43.94 21.59-64 41.67a177.23 177.23 0 0 0-41.68 64c-9 23-15.06 49.27-16.8 87.73s-2.19 50.87-2.19 149 .43 110.45 2.19 149 7.85 64.74 16.8 87.72a177.09 177.09 0 0 0 41.68 64c20.08 20.09 40.24 32.45 64 41.68 23 8.94 49.25 15.05 87.72 16.8s50.86 2.18 149 2.18 110.45-.43 149-2.18 64.72-7.86 87.72-16.8A184.75 184.75 0 0 0 803.81 698.1c8.94-23 15.05-49.25 16.79-87.72s2.2-50.87 2.2-149-.43-110.47-2.2-149-7.85-64.73-16.79-87.73a177.12 177.12 0 0 0-41.69-64c-20.1-20.08-40.24-32.43-64-41.67-23-9-49.25-15.05-87.72-16.81s-50.85-2.18-149-2.18" class="cls-2"/><path d="M461.37 275.77c-102.5 0-185.6 83.09-185.6 185.6S358.87 647 461.37 647 647 563.87 647 461.37s-83.1-185.6-185.59-185.6m0 306.07a120.48 120.48 0 1 1 120.42-120.47 120.49 120.49 0 0 1-120.46 120.47M697.65 268.44a43.37 43.37 0 1 1-43.36-43.37 43.36 43.36 0 0 1 43.36 43.37" class="cls-2"/></g></g></svg>